<?xml version="1.0" encoding="iso-8859-1"?>
<!-- Generator: Adobe Illustrator 19.0.0, SVG Export Plug-In . SVG Version: 6.00 Build 0)  -->
<svg xmlns="http://www.w3.org/2000/svg" xmlns:xlink="http://www.w3.org/1999/xlink" version="1.1" id="Layer_1" x="0px" y="0px" viewBox="0 0 512.012 512.012" style="enable-background:new 0 0 512.012 512.012;" xml:space="preserve" width="512" height="512">
<g id="XMLID_1049_">
	<path id="XMLID_1050_" d="M511.525,402.944c-1.462-8.291-6.065-15.517-12.961-20.345c-7.389-5.174-16.247-6.718-24.453-5.025   l-20.324-14.231c-3.393-2.376-8.069-1.551-10.445,1.842c-2.376,3.393-1.551,8.069,1.842,10.445l13.851,9.698   c-1.597,1.485-3.066,3.154-4.367,5.011c-1.29,1.842-2.36,3.791-3.219,5.813l-62.306-43.627l7.581-10.827l20.197,14.142   c3.393,2.376,8.069,1.551,10.445-1.842s1.551-8.07-1.842-10.445l-20.197-14.142l13.039-18.622   c6.355-9.078,4.141-21.634-4.936-27.99c-4.397-3.08-9.731-4.261-15.018-3.33c-2.926,0.516-5.631,1.665-7.997,3.317v-28.63   l5.746-2.77c61.751-29.771,98.114-95.547,90.485-163.675c-0.698-6.227-4.523-11.484-10.234-14.063   c-5.711-2.579-12.184-1.973-17.316,1.621l-59.481,41.649c-3.393,2.375-4.218,7.052-1.842,10.445   c2.376,3.394,7.054,4.218,10.445,1.842l59.481-41.649c1.045-0.733,2.04-0.463,2.539-0.238s1.359,0.794,1.501,2.063   c6.892,61.549-25.796,120.978-81.391,148.147c-0.858-28.789-10.812-55.331-27.082-76.847l16.236-11.369   c3.393-2.375,4.218-7.052,1.842-10.445c-2.375-3.394-7.053-4.217-10.445-1.842l-17.371,12.163   c-24.512-25.859-59.166-42.013-97.524-42.013c-23.877,0-47.332,6.345-67.826,18.349c-11,6.443-21.009,14.427-29.737,23.637   L52.916,75.269c-5.133-3.594-11.605-4.201-17.317-1.621c-5.71,2.579-9.536,7.836-10.234,14.064   c-7.629,68.127,28.734,133.903,90.485,163.675l5.746,2.77v28.63c-2.366-1.652-5.071-2.801-7.997-3.317   c-5.286-0.93-10.62,0.25-15.017,3.33c-9.077,6.356-11.292,18.912-4.936,27.99l13.039,18.622l-68.784,48.163   c-8.206-1.694-17.064-0.149-24.453,5.025c-6.896,4.829-11.5,12.054-12.961,20.345s0.392,16.655,5.221,23.551   c4.829,6.896,12.054,11.5,20.345,12.962c1.849,0.326,3.701,0.487,5.541,0.487c6.408,0,12.653-1.957,18.011-5.708   c6.896-4.829,11.5-12.054,12.961-20.345c0.054-0.309,0.095-0.617,0.14-0.926l1.956-1.37c11.152,14.708,28.216,22.584,45.552,22.583   c11.31,0,22.729-3.344,32.676-10.309l6.231-4.364c19.713-13.803,28.019-37.893,22.786-60l18.851-9.089v27.789   c0,9.072,7.381,16.453,16.454,16.453H304.8c9.073,0,16.454-7.381,16.454-16.453v-27.79l18.851,9.089   c-5.233,22.107,3.072,46.197,22.785,60l6.232,4.364c9.949,6.966,21.364,10.31,32.676,10.309   c17.334-0.001,34.401-7.876,45.552-22.583l1.956,1.369c0.045,0.309,0.086,0.618,0.14,0.926c1.462,8.291,6.065,15.517,12.961,20.345   c5.358,3.752,11.603,5.708,18.011,5.708c1.839,0,3.692-0.161,5.541-0.487c8.291-1.462,15.517-6.065,20.345-12.962   C511.133,419.6,512.987,411.235,511.525,402.944z M414.351,388.489c-2.5,2.742-5.811,4.588-9.539,5.246   c-4.456,0.787-8.944-0.206-12.636-2.792l-6.232-4.363c-7.032-4.924-9.154-14.264-5.277-21.677L414.351,388.489z M375.416,241.585   v63.84c0,1.86-0.462,3.612-1.265,5.158l-27.109-27.109c2.448-4.729,3.84-10.089,3.84-15.771v-42.277   c0-9.248-7.524-16.772-16.772-16.772h-57.108c-1.46,0-2.869,0.207-4.22,0.559l-72.925-72.925   c17.049-9.101,36.299-14.114,56.149-14.114C321.849,122.175,375.416,175.742,375.416,241.585z M275.23,225.427   c0-0.977,0.795-1.772,1.772-1.772h57.108c0.978,0,1.772,0.795,1.772,1.772v42.277c0,10.712-8.715,19.428-19.428,19.428h-21.797   c-10.712,0-19.428-8.715-19.428-19.428V225.427z M126.068,386.581l-6.232,4.363c-3.692,2.585-8.181,3.574-12.636,2.791   c-3.727-0.657-7.039-2.503-9.538-5.246l33.684-23.586C135.221,372.316,133.1,381.656,126.068,386.581z M115.289,341.699   l7.581,10.827l-62.306,43.627c-0.859-2.022-1.929-3.972-3.219-5.814c-1.3-1.857-2.769-3.526-4.367-5.011L115.289,341.699z    M47.795,411.286c-0.766,4.345-3.179,8.132-6.793,10.663c-3.614,2.53-7.997,3.501-12.343,2.736   c-4.345-0.766-8.132-3.179-10.663-6.793s-3.502-7.998-2.736-12.343c0.766-4.346,3.179-8.132,6.793-10.663   c2.877-2.015,6.179-2.981,9.451-2.981c5.212,0,10.346,2.455,13.555,7.038C47.589,402.557,48.561,406.941,47.795,411.286z    M140.518,407.218l-6.231,4.364c-18.419,12.897-43.676,8.953-57.347-8.584l8.372-5.862c4.837,6.004,11.603,10.017,19.282,11.371   c1.877,0.331,3.756,0.494,5.623,0.494c6.487,0,12.806-1.977,18.222-5.77l6.232-4.364c14.415-10.094,17.931-30.032,7.837-44.447   l-36.575-52.234c-1.612-2.302-1.051-5.487,1.252-7.099c1.115-0.781,2.467-1.082,3.808-0.844c1.341,0.236,2.51,0.98,3.291,2.096   l7.351,10.498c0.544,10.21,6.953,18.889,15.91,22.722l13.314,19.015C164.177,367.593,159.538,393.901,140.518,407.218z    M166.528,345.446c-1.016-1.865-2.135-3.696-3.381-5.476l-5.817-8.308h31.975c0.802,0,1.454,0.652,1.454,1.454v0.648   L166.528,345.446z M306.254,378.206c0,0.801-0.652,1.453-1.454,1.453h-12.642v-21.052c0-4.142-3.358-7.5-7.5-7.5   s-7.5,3.358-7.5,7.5v21.052h-13.652v-21.052c0-4.142-3.358-7.5-7.5-7.5c-4.142,0-7.5,3.358-7.5,7.5v21.052h-13.652v-21.052   c0-4.142-3.358-7.5-7.5-7.5s-7.5,3.358-7.5,7.5v21.052h-12.642c-0.802,0-1.454-0.652-1.454-1.453v-45.09   c0-9.073-7.381-16.454-16.454-16.454h-41.472c-6.196,0-11.237-5.041-11.237-11.237v-63.84c0-10.28,1.312-20.497,3.9-30.367   c1.05-4.007-1.346-8.106-5.353-9.157c-4.01-1.05-8.106,1.346-9.157,5.353c-2.572,9.81-4.021,19.921-4.325,30.114   c-55.594-27.17-88.281-86.598-81.389-148.146c0.142-1.269,1.001-1.837,1.501-2.063c0.499-0.225,1.493-0.495,2.54,0.238   l104.401,73.102c-3.154,4.173-6.081,8.525-8.735,13.053c-2.095,3.574-0.896,8.168,2.677,10.263   c3.575,2.095,8.169,0.896,10.263-2.677c8.663-14.779,20.304-27.288,33.894-36.941c0.198,0.257,0.407,0.508,0.643,0.744   l74.017,74.017c-0.795,1.95-1.242,4.077-1.242,6.31v42.277c0,18.983,15.444,34.428,34.428,34.428h21.797   c7.865,0,15.117-2.657,20.92-7.112l21.642,21.642h-36.31c-9.073,0-16.454,7.381-16.454,16.454V378.206z M321.254,333.764v-0.648   c0-0.802,0.652-1.454,1.454-1.454h31.975l-5.817,8.308c-1.246,1.78-2.365,3.611-3.381,5.476L321.254,333.764z M377.726,411.582   l-6.232-4.364c-19.02-13.317-23.659-39.625-10.341-58.645l13.315-19.015c1.244-0.532,2.436-1.161,3.572-1.871   c0.155-0.093,0.309-0.189,0.459-0.294c6.799-4.447,11.421-11.957,11.879-20.557l7.351-10.498c0.781-1.115,1.949-1.859,3.29-2.096   c1.342-0.237,2.694,0.063,3.809,0.844c2.302,1.612,2.864,4.797,1.252,7.099l-17.337,24.76c-0.001,0.002-0.003,0.004-0.004,0.006   l-19.234,27.469c-10.093,14.415-6.577,34.354,7.837,44.448l6.232,4.363c5.417,3.793,11.734,5.77,18.222,5.77   c1.866,0,3.746-0.164,5.623-0.494c7.68-1.354,14.446-5.367,19.282-11.371l8.372,5.862   C421.4,420.536,396.145,424.48,377.726,411.582z M494.017,417.892c-2.531,3.614-6.318,6.027-10.663,6.793   c-4.346,0.767-8.728-0.206-12.343-2.736c-3.614-2.531-6.027-6.317-6.793-10.663s0.206-8.729,2.736-12.343   c5.225-7.461,15.544-9.282,23.006-4.057c3.614,2.531,6.027,6.317,6.793,10.663C497.519,409.894,496.548,414.278,494.017,417.892z"/>
	<path id="XMLID_1064_" d="M198.847,214.458c-21.688,0-39.333,17.645-39.333,39.333s17.645,39.334,39.333,39.334   s39.333-17.645,39.333-39.334S220.535,214.458,198.847,214.458z M198.847,278.125c-13.417,0-24.333-10.916-24.333-24.334   c0-13.417,10.916-24.333,24.333-24.333s24.333,10.916,24.333,24.333C223.18,267.209,212.264,278.125,198.847,278.125z"/>
</g>















</svg>
