<?xml version="1.0" encoding="UTF-8" standalone="no"?>
<!DOCTYPE svg PUBLIC "-//W3C//DTD SVG 1.1//EN" "http://www.w3.org/Graphics/SVG/1.1/DTD/svg11.dtd">
<svg version="1.1" xmlns="http://www.w3.org/2000/svg" xmlns:xlink="http://www.w3.org/1999/xlink" preserveAspectRatio="xMidYMid meet" viewBox="0 0 640 640" width="640" height="640"><defs><path d="M481.14 43.54L485.12 157.2L597.78 161.14L544.4 261.57L640 321.32L543.55 381.59L596.47 481.14L482.81 485.12L478.86 597.78L378.44 544.4L318.69 640L258.41 543.56L158.86 596.47L154.88 482.81L42.22 478.87L95.6 378.44L0 318.69L96.45 258.41L43.53 158.87L157.19 154.89L161.14 42.22L261.56 95.61L321.31 0.01L381.59 96.45L481.14 43.54ZM196.52 103.5L193.45 191.14L104.81 194.25L145.97 271.68L70.76 318.69L145.13 365.17L103.5 443.49L191.14 446.56L194.24 535.2L271.68 494.03L318.69 569.25L365.17 494.88L443.48 536.51L446.55 448.86L535.19 445.76L494.03 368.32L569.24 321.32L494.87 274.84L536.51 196.52L448.86 193.45L445.76 104.81L368.32 145.98L321.31 70.76L274.83 145.13L196.52 103.5Z" id="ah7t6Nboc"></path><path d="M560.43 533.94C560.43 533.94 560.43 533.94 560.43 533.94C576.34 549.85 585.18 558.68 586.94 560.45C586.94 560.45 586.94 560.45 586.94 560.45C571.03 576.36 562.2 585.2 560.43 586.97C560.43 586.97 560.43 586.97 560.43 586.97C544.52 571.06 535.68 562.22 533.91 560.45C533.91 560.45 533.91 560.45 533.91 560.45C549.82 544.54 558.66 535.7 560.43 533.94Z" id="bM4FHxqrg"></path><path d="M613.48 586.97C613.48 586.97 613.48 586.97 613.48 586.97C629.39 602.88 638.22 611.71 639.99 613.48C639.99 613.48 639.99 613.48 639.99 613.48C624.08 629.39 615.24 638.23 613.48 640C613.48 640 613.48 640 613.48 640C597.57 624.09 588.73 615.25 586.96 613.48C586.96 613.48 586.96 613.48 586.96 613.48C602.87 597.57 611.71 588.73 613.48 586.97Z" id="f19wy88yQx"></path><path d="M26.52 0.01C26.52 0.01 26.52 0.01 26.52 0.01C42.42 15.92 51.26 24.75 53.03 26.52C53.03 26.52 53.03 26.52 53.03 26.52C37.12 42.43 28.28 51.27 26.52 53.04C26.52 53.04 26.52 53.04 26.52 53.04C10.61 37.13 1.77 28.29 0 26.52C0 26.52 0 26.52 0 26.52C15.91 10.61 24.75 1.77 26.52 0.01Z" id="bOX8uRyeA"></path><path d="M79.55 53.04C79.55 53.04 79.55 53.04 79.55 53.04C95.46 68.95 104.3 77.79 106.07 79.56C106.07 79.56 106.07 79.56 106.07 79.56C90.16 95.47 81.32 104.31 79.55 106.07C79.55 106.07 79.55 106.07 79.55 106.07C63.64 90.16 54.8 81.32 53.04 79.56C53.04 79.56 53.04 79.56 53.04 79.56C68.95 63.65 77.78 54.81 79.55 53.04Z" id="cAupUQnR"></path><path d="M613.48 0C613.48 0 613.48 0 613.48 0C629.39 15.91 638.23 24.75 639.99 26.52C639.99 26.52 639.99 26.52 639.99 26.52C624.08 42.43 615.24 51.27 613.48 53.04C613.48 53.04 613.48 53.04 613.48 53.04C597.57 37.13 588.73 28.29 586.96 26.52C586.96 26.52 586.96 26.52 586.96 26.52C602.87 10.61 611.71 1.77 613.48 0Z" id="b1ll21Cfnr"></path><path d="M79.54 533.94C79.54 533.94 79.54 533.94 79.54 533.94C95.45 549.85 104.29 558.69 106.06 560.45C106.06 560.45 106.06 560.45 106.06 560.45C90.15 576.36 81.31 585.2 79.54 586.97C79.54 586.97 79.54 586.97 79.54 586.97C63.63 571.06 54.8 562.22 53.03 560.45C53.03 560.45 53.03 560.45 53.03 560.45C68.94 544.54 77.78 535.71 79.54 533.94Z" id="a6ZMkCapf"></path><path d="M320.94 152.07L321.4 152.11L321.85 152.16L322.3 152.22L322.75 152.3L323.19 152.39L323.62 152.5L324.05 152.62L324.47 152.75L324.88 152.89L325.29 153.05L325.69 153.22L326.09 153.4L326.47 153.59L326.85 153.8L327.22 154.01L327.57 154.24L327.92 154.48L328.26 154.72L328.6 154.98L328.92 155.25L329.23 155.53L329.53 155.81L329.81 156.11L330.09 156.42L330.35 156.73L330.61 157.06L330.85 157.39L331.08 157.73L331.29 158.08L331.49 158.43L331.68 158.8L331.86 159.17L332.02 159.54L332.16 159.93L332.29 160.32L332.41 160.72L332.51 161.12L332.6 161.53L343.07 217.42L343.64 217.56L344.21 217.7L344.78 217.85L345.34 218L345.9 218.15L346.46 218.31L347.02 218.46L347.58 218.63L348.14 218.79L348.69 218.96L349.24 219.13L349.79 219.3L350.34 219.48L350.89 219.66L351.43 219.84L351.98 220.03L352.52 220.22L353.06 220.41L353.6 220.61L354.13 220.81L354.67 221.01L355.2 221.21L355.73 221.42L356.26 221.63L356.79 221.85L357.32 222.06L357.84 222.28L358.36 222.51L358.88 222.73L359.4 222.96L359.92 223.19L360.43 223.43L360.94 223.67L361.45 223.91L361.96 224.15L362.47 224.4L362.97 224.65L363.48 224.9L363.98 225.15L364.47 225.41L409.1 205.57L409.25 205.5L409.41 205.43L409.58 205.37L409.74 205.3L409.9 205.24L410.06 205.18L410.23 205.12L410.39 205.06L410.56 205.01L410.73 204.95L410.89 204.9L411.06 204.85L411.23 204.8L411.4 204.75L411.57 204.7L411.74 204.66L411.91 204.62L412.08 204.58L412.26 204.54L412.43 204.5L412.6 204.47L412.78 204.43L412.95 204.4L413.13 204.37L413.3 204.34L413.48 204.31L413.65 204.29L413.83 204.27L414.01 204.25L414.18 204.23L414.36 204.21L414.54 204.19L414.71 204.18L414.89 204.17L415.07 204.16L415.24 204.15L415.42 204.14L415.6 204.14L415.78 204.13L415.95 204.13L416.58 204.14L417.21 204.18L417.83 204.23L418.44 204.31L419.04 204.41L419.63 204.53L420.22 204.67L420.8 204.83L421.36 205.01L421.92 205.21L422.46 205.42L422.99 205.66L423.52 205.91L424.02 206.18L424.52 206.46L425 206.77L425.47 207.09L425.93 207.42L426.37 207.77L426.79 208.13L427.2 208.51L427.59 208.9L427.97 209.3L428.33 209.72L428.67 210.15L428.99 210.59L429.29 211.04L429.57 211.51L429.84 211.98L430.08 212.47L430.3 212.96L430.51 213.46L430.69 213.98L430.84 214.5L430.98 215.03L431.09 215.56L431.17 216.11L431.24 216.65L431.28 217.21L431.29 217.77L431.29 223.63L431.29 223.98L431.28 224.33L431.28 224.68L431.27 225.03L431.26 225.38L431.25 225.73L431.24 226.09L431.23 226.44L431.21 226.79L431.19 227.14L431.17 227.49L431.15 227.84L431.12 228.19L431.1 228.54L431.07 228.89L431.04 229.24L431.01 229.59L430.97 229.94L430.94 230.29L430.9 230.65L430.86 231L430.82 231.35L430.77 231.7L430.73 232.05L430.68 232.4L430.63 232.75L430.58 233.1L430.52 233.44L430.47 233.79L430.41 234.14L430.35 234.49L430.29 234.84L430.23 235.19L430.16 235.54L430.1 235.88L430.03 236.23L429.96 236.58L429.88 236.93L429.81 237.27L429.73 237.62L429.5 238.62L429.25 239.62L428.98 240.61L428.7 241.6L428.4 242.58L428.09 243.56L427.77 244.53L427.42 245.5L427.07 246.46L426.7 247.41L426.31 248.36L425.91 249.31L425.49 250.25L425.06 251.18L424.61 252.11L424.15 253.03L423.68 253.94L423.19 254.85L422.68 255.75L422.16 256.65L421.63 257.54L421.08 258.42L420.52 259.29L419.95 260.16L419.36 261.02L418.76 261.87L418.14 262.72L417.51 263.56L416.87 264.39L416.21 265.21L415.54 266.03L414.86 266.84L414.16 267.64L413.45 268.43L412.72 269.21L411.99 269.99L411.24 270.75L410.47 271.51L409.7 272.26L408.91 273L409.09 273.31L409.27 273.63L409.45 273.94L409.62 274.26L409.79 274.58L409.96 274.9L410.12 275.22L410.28 275.55L410.44 275.87L410.59 276.2L410.74 276.52L410.88 276.85L411.03 277.18L411.16 277.51L411.3 277.84L411.43 278.18L411.56 278.51L411.68 278.85L411.8 279.18L411.92 279.52L412.03 279.86L412.14 280.2L412.25 280.54L412.35 280.88L412.45 281.22L412.54 281.57L412.63 281.91L412.72 282.26L412.81 282.61L412.89 282.95L412.96 283.3L413.04 283.65L413.1 284L413.17 284.36L413.23 284.71L413.29 285.06L413.34 285.42L413.39 285.77L413.44 286.13L413.48 286.48L413.6 286.46L413.89 287.78L414.18 289.11L414.46 290.43L414.73 291.76L415 293.09L415.25 294.42L415.5 295.75L415.74 297.08L415.98 298.41L416.21 299.75L416.43 301.08L416.64 302.42L416.85 303.76L417.04 305.09L417.23 306.43L417.42 307.77L417.59 309.12L417.76 310.46L417.92 311.8L418.07 313.14L418.22 314.49L418.36 315.83L418.49 317.18L418.61 318.52L418.73 319.87L418.84 321.22L418.94 322.57L419.03 323.91L419.12 325.26L419.2 326.61L419.27 327.96L419.33 329.3L419.39 330.65L419.44 332L419.48 333.35L419.51 334.7L419.54 336.05L419.56 337.39L419.57 338.74L419.57 340.09L419.57 365.45L419.58 365.86L419.59 366.27L419.61 366.67L419.65 367.07L419.69 367.47L419.73 367.87L419.79 368.27L419.86 368.67L419.93 369.06L420.01 369.45L420.1 369.84L420.2 370.23L420.31 370.62L420.43 371L420.55 371.38L420.69 371.76L420.83 372.13L420.98 372.51L421.14 372.88L421.3 373.24L421.48 373.61L421.66 373.97L421.85 374.33L422.05 374.68L422.25 375.03L422.47 375.38L422.69 375.73L422.92 376.07L423.16 376.41L423.4 376.74L423.66 377.07L423.92 377.39L424.19 377.72L424.46 378.03L424.75 378.35L425.04 378.66L425.34 378.96L425.64 379.26L425.95 379.56L426.28 379.85L426.41 379.96L426.54 380.08L426.67 380.19L426.8 380.3L426.94 380.41L427.08 380.52L427.21 380.63L427.35 380.74L427.49 380.85L427.63 380.95L427.77 381.06L427.91 381.16L428.05 381.27L428.2 381.37L428.34 381.47L428.49 381.57L428.63 381.67L428.78 381.77L428.93 381.87L429.08 381.96L429.22 382.06L429.38 382.15L429.53 382.24L429.68 382.34L429.83 382.43L429.99 382.52L430.14 382.6L430.3 382.69L430.45 382.78L430.61 382.86L430.77 382.95L430.93 383.03L431.09 383.11L431.25 383.19L431.41 383.27L431.57 383.35L431.73 383.43L431.9 383.51L432.06 383.58L432.23 383.65L445.7 389.64L440.05 397.18L439.62 397.75L439.17 398.31L438.71 398.86L438.24 399.4L437.76 399.93L437.27 400.45L436.76 400.96L436.25 401.46L435.73 401.95L435.2 402.43L434.66 402.9L434.1 403.36L433.54 403.81L432.97 404.25L432.4 404.68L431.81 405.1L431.21 405.51L430.61 405.9L429.99 406.29L429.37 406.66L428.75 407.03L428.11 407.38L427.47 407.72L426.82 408.05L426.16 408.37L425.49 408.68L424.82 408.98L424.14 409.26L423.46 409.54L422.77 409.8L422.07 410.05L421.37 410.28L420.66 410.51L419.95 410.72L419.23 410.93L418.51 411.12L417.78 411.29L417.05 411.46L416.31 411.61L415.57 411.75L415.77 412.14L415.96 412.52L416.14 412.9L416.32 413.29L416.49 413.68L416.66 414.07L416.83 414.46L416.99 414.85L417.15 415.24L417.3 415.64L417.45 416.04L417.59 416.43L417.73 416.83L417.86 417.23L417.99 417.63L418.11 418.04L418.23 418.44L418.34 418.84L418.45 419.25L418.55 419.66L418.65 420.07L418.74 420.48L418.83 420.89L418.92 421.3L419 421.71L419.07 422.12L419.14 422.54L419.2 422.95L419.26 423.37L419.32 423.78L419.37 424.2L419.41 424.62L419.45 425.04L419.48 425.46L419.51 425.88L419.53 426.3L419.55 426.72L419.56 427.15L419.57 427.57L419.57 427.99L419.56 429.11L419.51 430.22L419.42 431.32L419.3 432.42L419.14 433.51L418.96 434.59L418.74 435.66L418.48 436.72L418.2 437.78L417.88 438.82L417.54 439.85L417.16 440.88L416.75 441.89L416.3 442.88L415.83 443.87L415.33 444.84L414.8 445.8L414.24 446.75L413.65 447.68L413.04 448.59L412.39 449.49L411.72 450.38L411.02 451.25L410.29 452.1L409.54 452.93L408.76 453.75L407.95 454.55L407.12 455.32L406.26 456.08L405.38 456.82L404.47 457.54L403.54 458.24L402.58 458.92L401.6 459.57L400.6 460.2L399.57 460.81L398.52 461.4L397.45 461.96L396.36 462.5L395.25 463.01L369.81 474.33L377.27 447.75L377.34 447.52L377.4 447.29L377.46 447.06L377.52 446.82L377.58 446.59L377.63 446.36L377.69 446.13L377.74 445.89L377.79 445.66L377.84 445.43L377.89 445.19L377.93 444.96L377.98 444.72L378.02 444.49L378.06 444.25L378.1 444.02L378.14 443.78L378.18 443.55L378.21 443.31L378.25 443.08L378.28 442.84L378.31 442.61L378.34 442.37L378.36 442.13L378.39 441.9L378.41 441.66L378.44 441.42L378.46 441.19L378.47 440.95L378.49 440.71L378.51 440.48L378.52 440.24L378.53 440L378.54 439.77L378.55 439.53L378.56 439.29L378.57 439.06L378.57 438.82L378.57 438.58L378.57 438.35L378.57 437.69L378.55 437.03L378.52 436.38L378.47 435.72L378.42 435.07L378.35 434.42L378.27 433.77L378.17 433.12L378.07 432.47L377.95 431.83L377.82 431.18L377.68 430.54L377.52 429.91L377.35 429.27L377.18 428.64L376.99 428.01L376.78 427.38L376.57 426.76L376.35 426.14L376.11 425.52L375.86 424.91L375.6 424.3L375.33 423.69L375.05 423.09L374.75 422.49L374.45 421.9L374.13 421.31L373.8 420.73L373.46 420.15L373.11 419.57L372.75 419L372.38 418.44L372 417.88L371.61 417.33L371.2 416.78L370.79 416.24L370.36 415.7L369.93 415.17L369.48 414.65L369.02 414.13L361.49 405.76L360.89 406.75L360.26 407.72L359.6 408.68L358.91 409.62L358.19 410.54L357.45 411.44L356.68 412.32L355.89 413.19L355.07 414.03L354.23 414.86L353.36 415.67L352.47 416.45L351.56 417.21L350.62 417.96L349.66 418.68L348.68 419.37L347.68 420.05L346.66 420.7L345.62 421.32L344.56 421.93L343.48 422.5L342.38 423.06L341.26 423.58L340.13 424.08L338.97 424.56L337.81 425L336.62 425.42L335.42 425.81L334.21 426.17L332.98 426.5L331.74 426.81L330.48 427.08L329.21 427.32L327.93 427.53L326.63 427.72L325.33 427.86L324.01 427.98L322.69 428.06L321.35 428.11L320 428.13L318.66 428.11L317.32 428.06L315.99 427.98L314.68 427.86L313.37 427.72L312.08 427.53L310.8 427.32L309.53 427.08L308.27 426.81L307.03 426.5L305.8 426.17L304.58 425.81L303.38 425.42L302.2 425L301.03 424.56L299.88 424.08L298.74 423.58L297.63 423.06L296.53 422.5L295.45 421.93L294.39 421.32L293.34 420.7L292.32 420.05L291.32 419.37L290.34 418.68L289.38 417.96L288.45 417.21L287.53 416.45L286.64 415.67L285.77 414.86L284.93 414.03L284.11 413.19L283.32 412.32L282.55 411.44L281.81 410.54L281.1 409.62L280.41 408.68L279.75 407.72L279.12 406.75L278.52 405.76L270.98 414.13L270.53 414.65L270.08 415.17L269.64 415.7L269.22 416.24L268.8 416.78L268.4 417.33L268.01 417.88L267.62 418.44L267.25 419L266.89 419.57L266.54 420.15L266.2 420.73L265.88 421.31L265.56 421.9L265.25 422.49L264.96 423.09L264.68 423.69L264.41 424.3L264.15 424.91L263.9 425.52L263.66 426.14L263.44 426.76L263.22 427.38L263.02 428.01L262.83 428.64L262.65 429.27L262.48 429.91L262.33 430.54L262.19 431.18L262.06 431.83L261.94 432.47L261.83 433.12L261.74 433.77L261.66 434.42L261.59 435.07L261.53 435.72L261.49 436.38L261.46 437.03L261.44 437.69L261.43 438.35L261.43 438.58L261.43 438.82L261.44 439.06L261.44 439.29L261.45 439.53L261.46 439.77L261.47 440L261.48 440.24L261.5 440.48L261.51 440.71L261.53 440.95L261.55 441.19L261.57 441.42L261.59 441.66L261.62 441.9L261.64 442.13L261.67 442.37L261.7 442.61L261.73 442.84L261.76 443.08L261.79 443.31L261.83 443.55L261.87 443.78L261.9 444.02L261.94 444.25L261.99 444.49L262.03 444.72L262.07 444.96L262.12 445.19L262.17 445.43L262.22 445.66L262.27 445.89L262.32 446.13L262.38 446.36L262.43 446.59L262.49 446.82L262.55 447.06L262.61 447.29L262.67 447.52L262.74 447.75L270.2 474.33L244.76 463.01L243.65 462.5L242.55 461.96L241.48 461.4L240.43 460.81L239.41 460.2L238.4 459.57L237.42 458.92L236.47 458.24L235.54 457.54L234.63 456.82L233.75 456.08L232.89 455.32L232.06 454.55L231.25 453.75L230.47 452.93L229.71 452.1L228.99 451.25L228.29 450.38L227.61 449.49L226.97 448.59L226.35 447.68L225.76 446.75L225.2 445.8L224.67 444.84L224.17 443.87L223.7 442.88L223.26 441.89L222.85 440.88L222.47 439.85L222.12 438.82L221.81 437.78L221.52 436.72L221.27 435.66L221.05 434.59L220.86 433.51L220.71 432.42L220.59 431.32L220.5 430.22L220.45 429.11L220.43 427.99L220.43 427.57L220.44 427.15L220.45 426.72L220.47 426.3L220.5 425.88L220.52 425.46L220.56 425.04L220.6 424.62L220.64 424.2L220.69 423.78L220.74 423.37L220.8 422.95L220.87 422.54L220.94 422.12L221.01 421.71L221.09 421.3L221.17 420.88L221.26 420.47L221.35 420.06L221.45 419.66L221.56 419.25L221.66 418.84L221.78 418.44L221.9 418.03L222.02 417.63L222.15 417.23L222.28 416.83L222.42 416.43L222.56 416.03L222.7 415.64L222.86 415.24L223.01 414.85L223.17 414.46L223.34 414.07L223.51 413.68L223.68 413.29L223.86 412.9L224.05 412.52L224.23 412.13L224.43 411.75L223.69 411.61L222.95 411.46L222.22 411.29L221.49 411.12L220.77 410.93L220.05 410.72L219.34 410.51L218.63 410.28L217.93 410.05L217.23 409.8L216.54 409.54L215.86 409.26L215.18 408.98L214.51 408.68L213.84 408.37L213.18 408.05L212.53 407.72L211.89 407.38L211.25 407.03L210.63 406.66L210.01 406.29L209.39 405.9L208.79 405.51L208.19 405.1L207.6 404.68L207.03 404.25L206.46 403.81L205.9 403.36L205.34 402.9L204.8 402.43L204.27 401.95L203.75 401.46L203.24 400.96L202.73 400.45L202.24 399.93L201.76 399.4L201.29 398.86L200.83 398.31L200.38 397.75L199.95 397.18L194.3 389.64L207.78 383.65L207.94 383.58L208.11 383.51L208.27 383.43L208.43 383.35L208.6 383.27L208.76 383.19L208.92 383.11L209.08 383.03L209.23 382.95L209.39 382.86L209.55 382.78L209.71 382.69L209.86 382.61L210.02 382.52L210.17 382.43L210.32 382.34L210.47 382.24L210.63 382.15L210.78 382.06L210.93 381.96L211.07 381.87L211.22 381.77L211.37 381.67L211.51 381.57L211.66 381.47L211.8 381.37L211.95 381.27L212.09 381.17L212.23 381.06L212.37 380.96L212.51 380.85L212.65 380.74L212.79 380.63L212.92 380.52L213.06 380.41L213.2 380.3L213.33 380.19L213.46 380.08L213.59 379.96L213.72 379.85L214.05 379.56L214.36 379.26L214.67 378.96L214.96 378.66L215.26 378.35L215.54 378.03L215.82 377.72L216.08 377.39L216.35 377.07L216.6 376.74L216.84 376.41L217.08 376.07L217.31 375.73L217.54 375.38L217.75 375.03L217.96 374.68L218.15 374.33L218.34 373.97L218.53 373.61L218.7 373.24L218.87 372.88L219.03 372.51L219.18 372.13L219.32 371.76L219.45 371.38L219.58 371L219.69 370.62L219.8 370.23L219.9 369.84L219.99 369.45L220.08 369.06L220.15 368.67L220.22 368.27L220.27 367.87L220.32 367.47L220.36 367.07L220.39 366.67L220.41 366.27L220.43 365.86L220.43 365.45L220.43 340.09L220.43 338.74L220.45 337.39L220.47 336.05L220.49 334.7L220.53 333.35L220.57 332L220.62 330.65L220.67 329.3L220.74 327.95L220.81 326.61L220.89 325.26L220.97 323.91L221.07 322.56L221.17 321.22L221.28 319.87L221.39 318.52L221.52 317.18L221.65 315.83L221.78 314.49L221.93 313.14L222.08 311.8L222.25 310.46L222.41 309.11L222.59 307.77L222.77 306.43L222.96 305.09L223.16 303.76L223.37 302.42L223.58 301.08L223.8 299.75L224.03 298.41L224.26 297.08L224.5 295.75L224.75 294.42L225.01 293.09L225.27 291.76L225.55 290.43L225.83 289.11L226.11 287.78L226.41 286.46L226.52 286.48L226.57 286.13L226.61 285.77L226.66 285.42L226.72 285.06L226.77 284.71L226.84 284.36L226.9 284L226.97 283.65L227.04 283.3L227.12 282.95L227.2 282.61L227.28 282.26L227.37 281.91L227.46 281.57L227.56 281.22L227.66 280.88L227.76 280.54L227.86 280.2L227.97 279.86L228.09 279.52L228.2 279.18L228.32 278.85L228.45 278.51L228.58 278.18L228.71 277.84L228.84 277.51L228.98 277.18L229.12 276.85L229.27 276.52L229.42 276.2L229.57 275.87L229.72 275.55L229.88 275.22L230.05 274.9L230.21 274.58L230.38 274.26L230.56 273.94L230.73 273.63L230.91 273.31L231.1 273L230.31 272.26L229.53 271.51L228.77 270.75L228.02 269.99L227.28 269.21L226.56 268.43L225.85 267.64L225.15 266.84L224.47 266.03L223.8 265.21L223.14 264.39L222.49 263.56L221.86 262.72L221.25 261.87L220.65 261.02L220.06 260.16L219.48 259.29L218.92 258.42L218.37 257.54L217.84 256.65L217.32 255.75L216.82 254.85L216.33 253.94L215.85 253.03L215.39 252.11L214.95 251.18L214.52 250.25L214.1 249.31L213.7 248.37L213.31 247.42L212.94 246.46L212.58 245.5L212.24 244.53L211.91 243.56L211.6 242.58L211.3 241.6L211.02 240.61L210.76 239.62L210.51 238.63L210.28 237.62L210.2 237.28L210.12 236.93L210.05 236.58L209.98 236.24L209.91 235.89L209.84 235.54L209.78 235.19L209.71 234.84L209.65 234.49L209.59 234.15L209.54 233.8L209.48 233.45L209.43 233.1L209.38 232.75L209.33 232.4L209.28 232.05L209.23 231.7L209.19 231.35L209.15 231L209.11 230.65L209.07 230.3L209.03 229.94L209 229.59L208.97 229.24L208.94 228.89L208.91 228.54L208.88 228.19L208.86 227.84L208.83 227.49L208.81 227.14L208.8 226.79L208.78 226.44L208.76 226.09L208.75 225.73L208.74 225.38L208.73 225.03L208.73 224.68L208.72 224.33L208.72 223.98L208.72 223.63L208.72 217.77L208.73 217.21L208.77 216.65L208.83 216.11L208.92 215.56L209.03 215.03L209.16 214.5L209.32 213.98L209.5 213.46L209.7 212.96L209.92 212.47L210.17 211.98L210.43 211.51L210.72 211.04L211.02 210.59L211.34 210.15L211.68 209.72L212.04 209.3L212.41 208.9L212.81 208.51L213.21 208.13L213.64 207.77L214.08 207.42L214.53 207.09L215 206.77L215.48 206.46L215.98 206.18L216.49 205.91L217.01 205.66L217.54 205.42L218.09 205.21L218.64 205.01L219.21 204.83L219.79 204.67L220.37 204.53L220.97 204.41L221.57 204.31L222.18 204.23L222.8 204.18L223.42 204.14L224.05 204.13L224.23 204.13L224.41 204.14L224.58 204.14L224.76 204.15L224.94 204.16L225.12 204.17L225.29 204.18L225.47 204.19L225.65 204.21L225.82 204.23L226 204.25L226.18 204.27L226.35 204.29L226.53 204.31L226.7 204.34L226.88 204.37L227.05 204.4L227.23 204.43L227.4 204.47L227.58 204.5L227.75 204.54L227.92 204.58L228.09 204.62L228.26 204.66L228.43 204.71L228.61 204.75L228.77 204.8L228.94 204.85L229.11 204.9L229.28 204.95L229.45 205.01L229.61 205.06L229.78 205.12L229.94 205.18L230.11 205.24L230.27 205.31L230.43 205.37L230.59 205.44L230.75 205.51L230.91 205.58L275.53 225.42L276.03 225.16L276.53 224.9L277.03 224.65L277.54 224.4L278.04 224.16L278.55 223.91L279.06 223.67L279.57 223.43L280.09 223.2L280.6 222.97L281.12 222.74L281.64 222.51L282.16 222.29L282.69 222.07L283.21 221.85L283.74 221.64L284.27 221.43L284.8 221.22L285.33 221.01L285.87 220.81L286.41 220.61L286.94 220.42L287.48 220.22L288.03 220.03L288.57 219.85L289.11 219.66L289.66 219.48L290.21 219.31L290.76 219.13L291.31 218.96L291.87 218.79L292.42 218.63L292.98 218.47L293.54 218.31L294.1 218.15L294.66 218L295.23 217.85L295.79 217.71L296.36 217.57L296.93 217.43L307.41 161.53L307.5 161.12L307.6 160.72L307.71 160.32L307.84 159.93L307.99 159.54L308.15 159.17L308.32 158.8L308.51 158.43L308.71 158.08L308.93 157.73L309.16 157.39L309.4 157.06L309.65 156.73L309.92 156.42L310.19 156.11L310.48 155.81L310.78 155.53L311.09 155.25L311.41 154.98L311.74 154.72L312.08 154.48L312.43 154.24L312.79 154.01L313.16 153.8L313.53 153.59L313.92 153.4L314.31 153.22L314.71 153.05L315.12 152.89L315.54 152.75L315.96 152.62L316.39 152.5L316.82 152.39L317.26 152.3L317.7 152.22L318.16 152.16L318.61 152.11L319.07 152.07L319.53 152.05L320 152.04L320.47 152.05L320.94 152.07ZM384.43 317.81L384.41 318.73L384.38 319.65L384.33 320.56L384.28 321.48L384.21 322.4L384.13 323.31L384.04 324.23L383.94 325.14L383.83 326.05L383.7 326.96L383.56 327.87L383.41 328.78L383.25 329.69L383.08 330.6L382.89 331.5L382.7 332.4L382.49 333.3L382.27 334.2L382.03 335.09L381.79 335.99L381.54 336.88L381.27 337.76L380.99 338.65L380.71 339.53L380.4 340.41L380.09 341.29L379.77 342.16L379.44 343.03L379.09 343.89L378.74 344.75L378.37 345.61L377.99 346.46L377.6 347.31L377.2 348.16L376.79 349L376.36 349.84L375.93 350.67L375.49 351.5L375.03 352.32L374.63 353.03L374.25 353.75L373.87 354.48L373.5 355.2L373.14 355.93L372.8 356.67L372.46 357.41L372.13 358.15L371.81 358.89L371.5 359.64L371.2 360.39L370.91 361.15L370.63 361.91L370.36 362.67L370.1 363.43L369.84 364.2L369.6 364.97L369.37 365.74L369.15 366.51L368.94 367.28L368.74 368.06L368.55 368.84L368.37 369.62L368.2 370.41L368.04 371.19L367.88 371.98L367.74 372.77L367.61 373.56L367.49 374.35L367.38 375.14L367.29 375.93L367.2 376.72L367.12 377.52L367.05 378.31L366.99 379.11L366.94 379.9L366.91 380.7L366.88 381.5L366.87 382.3L366.86 383.09L366.86 386.46L366.86 386.65L366.86 386.85L366.86 387.05L366.85 387.24L366.85 387.44L366.84 387.63L366.83 387.83L366.82 388.02L366.82 388.22L366.8 388.41L366.79 388.6L366.78 388.8L366.77 388.99L366.75 389.19L366.74 389.38L366.72 389.57L366.7 389.76L366.68 389.96L366.66 390.15L366.64 390.34L366.62 390.53L366.6 390.72L366.58 390.91L366.55 391.11L366.53 391.3L366.5 391.49L366.47 391.68L366.44 391.87L366.41 392.06L366.38 392.25L366.35 392.44L366.32 392.62L366.29 392.81L366.25 393L366.22 393.19L366.18 393.38L366.15 393.57L366.11 393.75L366.07 393.94L366.03 394.13L378.18 407.62L378.76 408.28L379.32 408.94L379.88 409.61L380.41 410.29L380.94 410.98L381.45 411.68L381.95 412.38L382.44 413.09L382.91 413.8L383.37 414.52L383.81 415.25L384.24 415.99L384.65 416.73L385.06 417.48L385.44 418.23L385.82 418.99L386.17 419.75L386.52 420.52L386.85 421.29L387.16 422.07L387.46 422.85L387.75 423.64L388.02 424.43L388.28 425.23L388.52 426.03L388.74 426.83L388.95 427.64L389.15 428.45L389.33 429.26L389.5 430.07L389.64 430.89L389.78 431.71L389.9 432.54L390 433.36L390.09 434.19L390.16 435.02L390.22 435.85L390.26 436.68L390.28 437.51L390.29 438.35L390.29 438.65L390.28 438.95L390.28 439.25L390.27 439.55L390.26 439.85L390.25 440.15L390.24 440.45L390.22 440.75L390.2 441.05L390.18 441.35L390.16 441.65L390.14 441.95L390.11 442.25L390.09 442.55L390.05 442.85L390.02 443.15L389.99 443.45L389.95 443.75L389.91 444.05L389.87 444.35L389.83 444.65L389.79 444.95L389.74 445.25L389.69 445.54L389.64 445.84L389.59 446.14L389.54 446.44L389.48 446.73L389.42 447.03L389.36 447.33L389.3 447.62L389.23 447.92L389.17 448.22L389.1 448.51L389.03 448.81L388.95 449.1L388.88 449.4L388.8 449.69L388.72 449.98L388.64 450.28L387.34 454.87L390 453.69L390.82 453.32L391.62 452.92L392.41 452.51L393.18 452.08L393.93 451.63L394.67 451.17L395.39 450.69L396.09 450.19L396.77 449.68L397.44 449.15L398.09 448.61L398.72 448.05L399.33 447.48L399.92 446.89L400.49 446.3L401.05 445.68L401.58 445.06L402.1 444.42L402.59 443.77L403.06 443.11L403.52 442.44L403.95 441.76L404.36 441.06L404.75 440.36L405.11 439.65L405.46 438.92L405.78 438.19L406.09 437.45L406.36 436.7L406.62 435.94L406.85 435.17L407.06 434.4L407.25 433.62L407.41 432.83L407.54 432.04L407.66 431.24L407.75 430.44L407.81 429.63L407.85 428.81L407.86 427.99L407.86 427.57L407.85 427.14L407.83 426.71L407.8 426.29L407.77 425.87L407.73 425.44L407.69 425.02L407.64 424.6L407.58 424.18L407.51 423.76L407.44 423.35L407.36 422.93L407.27 422.52L407.18 422.1L407.08 421.69L406.97 421.28L406.86 420.88L406.74 420.47L406.61 420.06L406.48 419.66L406.34 419.26L406.19 418.86L406.04 418.46L405.88 418.07L405.71 417.67L405.54 417.28L405.36 416.89L405.17 416.51L404.98 416.12L404.78 415.74L404.57 415.36L404.36 414.98L404.14 414.6L403.92 414.23L403.69 413.86L403.45 413.49L403.2 413.13L402.95 412.77L402.7 412.41L402.43 412.05L401.56 410.87L400.71 409.68L399.88 408.47L399.07 407.26L398.28 406.04L397.51 404.82L396.76 403.58L396.04 402.33L395.33 401.08L394.65 399.82L393.99 398.55L393.35 397.27L392.73 395.99L392.13 394.7L391.56 393.4L391.01 392.09L390.48 390.78L389.97 389.46L389.48 388.13L389.01 386.8L388.57 385.47L388.15 384.12L387.75 382.77L387.38 381.42L387.02 380.06L386.69 378.7L386.38 377.33L386.09 375.95L385.83 374.58L385.59 373.19L385.37 371.81L385.17 370.42L385 369.02L384.85 367.62L384.72 366.22L384.62 364.82L384.54 363.41L384.48 362L384.44 360.59L384.43 359.17L384.43 349.99L396.15 349.99L396.15 359.17L396.15 360.31L396.18 361.44L396.22 362.57L396.28 363.7L396.36 364.82L396.45 365.94L396.56 367.07L396.68 368.18L396.83 369.3L396.98 370.41L397.16 371.52L397.35 372.63L397.56 373.74L397.78 374.84L398.02 375.93L398.28 377.03L398.55 378.12L398.84 379.21L399.15 380.29L399.47 381.37L399.81 382.44L400.16 383.51L400.53 384.58L400.92 385.64L401.32 386.7L401.73 387.76L402.17 388.8L402.61 389.85L403.08 390.89L403.56 391.92L404.05 392.95L404.56 393.97L405.09 394.99L405.63 396L406.18 397.01L406.76 398.01L407.34 399.01L407.95 400L408.56 400.98L409.2 401.96L409.76 401.93L410.31 401.89L410.87 401.84L411.42 401.78L411.97 401.71L412.52 401.63L413.06 401.54L413.6 401.44L414.14 401.34L414.68 401.22L415.21 401.1L415.74 400.96L416.26 400.82L416.78 400.66L417.3 400.5L417.81 400.33L418.32 400.15L418.82 399.96L419.32 399.76L419.81 399.55L420.3 399.33L420.79 399.11L421.26 398.88L421.74 398.63L422.2 398.38L422.66 398.12L423.12 397.85L423.57 397.58L424.01 397.29L424.45 397L424.88 396.7L425.3 396.39L425.72 396.07L426.13 395.74L426.53 395.41L426.92 395.06L427.31 394.71L427.69 394.36L428.06 393.99L428.43 393.62L426.98 392.97L426.73 392.86L426.48 392.75L426.23 392.63L425.99 392.52L425.74 392.4L425.5 392.28L425.26 392.15L425.02 392.03L424.78 391.9L424.54 391.78L424.3 391.65L424.06 391.52L423.83 391.38L423.6 391.25L423.36 391.12L423.13 390.98L422.9 390.84L422.68 390.7L422.45 390.56L422.22 390.41L422 390.27L421.77 390.12L421.55 389.97L421.33 389.82L421.11 389.67L420.9 389.52L420.68 389.36L420.46 389.21L420.25 389.05L420.04 388.89L419.83 388.73L419.62 388.57L419.41 388.4L419.2 388.24L419 388.07L418.79 387.9L418.59 387.73L418.39 387.56L418.19 387.39L417.99 387.21L417.51 386.77L417.03 386.33L416.57 385.87L416.12 385.41L415.68 384.95L415.25 384.47L414.83 383.99L414.43 383.51L414.03 383.01L413.65 382.52L413.28 382.01L412.92 381.5L412.57 380.99L412.24 380.47L411.91 379.94L411.6 379.41L411.3 378.87L411.01 378.33L410.74 377.78L410.47 377.23L410.22 376.68L409.98 376.12L409.76 375.55L409.54 374.99L409.34 374.42L409.15 373.84L408.98 373.26L408.81 372.68L408.66 372.09L408.52 371.5L408.4 370.91L408.29 370.31L408.19 369.71L408.1 369.11L408.03 368.51L407.97 367.9L407.92 367.29L407.89 366.68L407.87 366.07L407.86 365.45L407.86 340.09L407.86 339.4L407.86 338.71L407.85 338.02L407.84 337.33L407.83 336.64L407.82 335.95L407.81 335.26L407.79 334.57L407.77 333.88L407.75 333.19L407.73 332.5L407.7 331.81L407.68 331.12L407.65 330.43L407.62 329.74L407.58 329.05L407.55 328.36L407.51 327.67L407.47 326.98L407.43 326.29L407.39 325.6L407.34 324.92L407.29 324.23L407.24 323.54L407.19 322.85L407.14 322.16L407.08 321.47L407.03 320.78L406.97 320.09L406.91 319.4L406.84 318.71L406.78 318.03L406.71 317.34L406.64 316.65L406.57 315.96L406.5 315.27L406.42 314.59L406.34 313.9L406.27 313.21L406.18 312.52L395.06 332.32L389.55 317.62L389.45 317.36L389.35 317.1L389.25 316.84L389.15 316.59L389.05 316.33L388.94 316.08L388.83 315.82L388.72 315.57L388.61 315.31L388.5 315.06L388.38 314.81L388.27 314.56L388.15 314.3L388.03 314.05L387.91 313.8L387.79 313.55L387.66 313.3L387.54 313.06L387.41 312.81L387.28 312.56L387.15 312.31L387.02 312.07L386.89 311.82L386.76 311.58L386.62 311.33L386.48 311.09L386.34 310.84L386.21 310.6L386.06 310.36L385.92 310.12L385.78 309.88L385.63 309.64L385.49 309.4L385.34 309.16L385.19 308.92L385.04 308.68L384.89 308.44L384.74 308.21L384.59 307.97L384.43 307.74L384.43 316.89L384.43 317.81ZM255.26 308.21L255.11 308.45L254.96 308.69L254.81 308.92L254.66 309.16L254.51 309.4L254.37 309.64L254.22 309.88L254.08 310.12L253.94 310.36L253.79 310.61L253.66 310.85L253.52 311.09L253.38 311.34L253.24 311.58L253.11 311.83L252.98 312.07L252.85 312.32L252.72 312.56L252.59 312.81L252.46 313.06L252.34 313.31L252.21 313.56L252.09 313.81L251.97 314.06L251.85 314.31L251.73 314.56L251.62 314.81L251.5 315.07L251.39 315.32L251.28 315.57L251.17 315.83L251.06 316.08L250.95 316.34L250.85 316.59L250.75 316.85L250.65 317.11L250.55 317.36L250.45 317.62L244.94 332.32L233.82 312.53L233.73 313.22L233.66 313.9L233.58 314.59L233.5 315.28L233.43 315.96L233.36 316.65L233.29 317.34L233.22 318.03L233.16 318.72L233.09 319.4L233.03 320.09L232.97 320.78L232.92 321.47L232.86 322.16L232.81 322.85L232.76 323.54L232.71 324.23L232.66 324.92L232.61 325.61L232.57 326.3L232.53 326.98L232.49 327.67L232.45 328.36L232.42 329.05L232.38 329.74L232.35 330.43L232.32 331.12L232.3 331.81L232.27 332.5L232.25 333.19L232.23 333.88L232.21 334.57L232.19 335.26L232.18 335.95L232.17 336.64L232.16 337.33L232.15 338.02L232.14 338.71L232.14 339.4L232.14 340.09L232.14 365.45L232.13 366.07L232.11 366.68L232.08 367.29L232.03 367.9L231.97 368.51L231.9 369.11L231.81 369.71L231.71 370.31L231.6 370.91L231.48 371.5L231.34 372.09L231.19 372.68L231.02 373.26L230.85 373.84L230.66 374.42L230.46 374.99L230.24 375.55L230.01 376.12L229.78 376.68L229.52 377.23L229.26 377.78L228.98 378.33L228.7 378.87L228.4 379.41L228.08 379.94L227.76 380.47L227.43 380.99L227.08 381.5L226.72 382.01L226.35 382.52L225.96 383.01L225.57 383.51L225.16 383.99L224.75 384.47L224.32 384.95L223.88 385.41L223.43 385.87L222.97 386.33L222.49 386.77L222.01 387.21L221.81 387.39L221.61 387.56L221.41 387.73L221.21 387.9L221 388.07L220.8 388.24L220.59 388.4L220.38 388.57L220.17 388.73L219.96 388.89L219.75 389.05L219.54 389.21L219.32 389.36L219.1 389.52L218.89 389.67L218.67 389.82L218.45 389.97L218.23 390.12L218 390.27L217.78 390.41L217.55 390.56L217.33 390.7L217.1 390.84L216.87 390.98L216.64 391.12L216.41 391.25L216.17 391.38L215.94 391.52L215.7 391.65L215.46 391.78L215.23 391.9L214.99 392.03L214.75 392.15L214.5 392.28L214.26 392.4L214.02 392.52L213.77 392.63L213.52 392.75L213.28 392.86L213.03 392.97L211.57 393.62L211.94 393.99L212.31 394.36L212.69 394.71L213.08 395.06L213.47 395.41L213.88 395.74L214.29 396.07L214.7 396.39L215.12 396.7L215.55 397L215.99 397.29L216.43 397.58L216.88 397.85L217.34 398.12L217.8 398.38L218.27 398.63L218.74 398.88L219.22 399.11L219.7 399.33L220.19 399.55L220.68 399.76L221.18 399.96L221.68 400.15L222.19 400.33L222.7 400.5L223.22 400.66L223.74 400.82L224.26 400.96L224.79 401.1L225.32 401.22L225.86 401.34L226.4 401.44L226.94 401.54L227.49 401.63L228.03 401.71L228.58 401.78L229.14 401.84L229.69 401.89L230.25 401.93L230.81 401.96L231.44 400.98L232.06 400L232.66 399.01L233.25 398.01L233.82 397.01L234.38 396L234.92 394.99L235.44 393.97L235.95 392.95L236.45 391.92L236.93 390.89L237.39 389.85L237.84 388.8L238.27 387.76L238.69 386.7L239.09 385.64L239.48 384.58L239.84 383.51L240.2 382.44L240.54 381.37L240.86 380.29L241.16 379.21L241.45 378.12L241.72 377.03L241.98 375.93L242.22 374.84L242.45 373.74L242.65 372.63L242.85 371.52L243.02 370.41L243.18 369.3L243.32 368.18L243.45 367.07L243.56 365.94L243.65 364.82L243.72 363.7L243.78 362.57L243.83 361.44L243.85 360.31L243.86 359.17L243.86 349.99L255.57 349.99L255.57 359.17L255.56 360.59L255.53 362L255.47 363.41L255.39 364.82L255.28 366.22L255.16 367.62L255.01 369.02L254.83 370.41L254.64 371.81L254.42 373.19L254.18 374.57L253.91 375.95L253.63 377.33L253.32 378.7L252.98 380.06L252.63 381.42L252.25 382.77L251.86 384.12L251.43 385.46L250.99 386.8L250.53 388.13L250.04 389.46L249.53 390.78L249 392.09L248.45 393.39L247.87 394.69L247.28 395.99L246.66 397.27L246.02 398.55L245.36 399.82L244.67 401.08L243.97 402.33L243.25 403.58L242.5 404.81L241.73 406.04L240.94 407.26L240.13 408.47L239.3 409.68L238.45 410.87L237.58 412.05L237.31 412.41L237.06 412.77L236.8 413.13L236.56 413.5L236.32 413.86L236.09 414.23L235.86 414.61L235.65 414.98L235.43 415.36L235.23 415.74L235.03 416.12L234.83 416.51L234.65 416.9L234.47 417.29L234.29 417.68L234.13 418.07L233.97 418.47L233.81 418.86L233.67 419.26L233.53 419.66L233.39 420.07L233.27 420.47L233.15 420.88L233.03 421.29L232.93 421.7L232.83 422.11L232.73 422.52L232.65 422.93L232.57 423.35L232.49 423.77L232.43 424.18L232.37 424.6L232.32 425.02L232.27 425.44L232.23 425.87L232.2 426.29L232.18 426.71L232.16 427.14L232.15 427.57L232.15 427.99L232.16 428.81L232.2 429.63L232.26 430.44L232.35 431.24L232.46 432.04L232.6 432.83L232.76 433.62L232.95 434.4L233.15 435.17L233.39 435.94L233.64 436.7L233.92 437.45L234.22 438.19L234.55 438.92L234.89 439.64L235.26 440.36L235.65 441.06L236.06 441.75L236.49 442.44L236.94 443.11L237.42 443.77L237.91 444.42L238.42 445.06L238.96 445.68L239.51 446.29L240.08 446.89L240.68 447.48L241.29 448.05L241.92 448.6L242.57 449.15L243.23 449.67L243.92 450.19L244.62 450.68L245.34 451.16L246.07 451.63L246.83 452.07L247.6 452.5L248.38 452.92L249.18 453.31L250 453.69L252.66 454.87L251.37 450.27L251.29 449.98L251.21 449.69L251.13 449.39L251.06 449.1L250.98 448.8L250.91 448.51L250.84 448.21L250.78 447.92L250.71 447.62L250.65 447.33L250.59 447.03L250.53 446.73L250.47 446.44L250.42 446.14L250.37 445.84L250.31 445.54L250.27 445.25L250.22 444.95L250.18 444.65L250.13 444.35L250.09 444.05L250.05 443.75L250.02 443.45L249.98 443.16L249.95 442.86L249.92 442.56L249.89 442.26L249.87 441.96L249.84 441.66L249.82 441.36L249.8 441.06L249.78 440.75L249.77 440.45L249.75 440.15L249.74 439.85L249.73 439.55L249.73 439.25L249.72 438.95L249.72 438.65L249.72 438.35L249.73 437.51L249.75 436.68L249.79 435.85L249.85 435.02L249.92 434.19L250 433.36L250.11 432.54L250.23 431.71L250.36 430.89L250.51 430.07L250.68 429.26L250.86 428.45L251.05 427.64L251.26 426.83L251.49 426.03L251.73 425.23L251.99 424.43L252.26 423.64L252.54 422.85L252.84 422.07L253.16 421.29L253.49 420.52L253.83 419.75L254.19 418.98L254.56 418.23L254.95 417.47L255.35 416.73L255.77 415.98L256.2 415.25L256.64 414.52L257.1 413.8L257.57 413.08L258.05 412.37L258.55 411.67L259.07 410.98L259.59 410.29L260.13 409.61L260.68 408.94L261.25 408.27L261.83 407.62L273.98 394.12L273.94 393.93L273.9 393.75L273.86 393.56L273.83 393.37L273.79 393.19L273.76 393L273.72 392.81L273.69 392.62L273.66 392.43L273.63 392.24L273.6 392.05L273.57 391.87L273.54 391.68L273.51 391.49L273.48 391.3L273.46 391.1L273.43 390.91L273.41 390.72L273.39 390.53L273.36 390.34L273.34 390.15L273.32 389.96L273.3 389.76L273.29 389.57L273.27 389.38L273.25 389.19L273.24 388.99L273.23 388.8L273.21 388.6L273.2 388.41L273.19 388.22L273.18 388.02L273.17 387.83L273.17 387.63L273.16 387.44L273.15 387.24L273.15 387.05L273.15 386.85L273.15 386.65L273.15 386.46L273.15 383.09L273.14 382.3L273.12 381.5L273.1 380.7L273.06 379.91L273.01 379.11L272.96 378.31L272.89 377.52L272.81 376.72L272.72 375.93L272.62 375.14L272.51 374.35L272.39 373.56L272.26 372.77L272.12 371.98L271.97 371.19L271.81 370.41L271.64 369.62L271.46 368.84L271.27 368.06L271.06 367.29L270.85 366.51L270.63 365.74L270.4 364.97L270.16 364.2L269.91 363.43L269.65 362.67L269.38 361.91L269.1 361.15L268.81 360.4L268.51 359.65L268.2 358.9L267.88 358.15L267.55 357.41L267.21 356.67L266.86 355.94L266.5 355.21L266.13 354.48L265.75 353.76L265.37 353.04L264.97 352.33L264.51 351.5L264.07 350.68L263.64 349.84L263.21 349.01L262.8 348.17L262.4 347.32L262.01 346.47L261.63 345.62L261.26 344.76L260.91 343.9L260.56 343.03L260.23 342.16L259.91 341.29L259.6 340.42L259.29 339.54L259.01 338.65L258.73 337.77L258.46 336.88L258.21 335.99L257.97 335.1L257.73 334.2L257.51 333.31L257.3 332.41L257.11 331.51L256.92 330.6L256.75 329.7L256.59 328.79L256.44 327.88L256.3 326.97L256.17 326.06L256.06 325.15L255.96 324.23L255.87 323.32L255.79 322.4L255.72 321.49L255.67 320.57L255.62 319.65L255.59 318.73L255.57 317.82L255.57 316.9L255.57 307.74L255.41 307.98L255.26 308.21ZM317.2 386.48L315.82 386.51L314.46 386.56L313.11 386.61L311.78 386.68L310.48 386.75L309.19 386.83L307.92 386.93L306.67 387.03L305.45 387.14L304.24 387.25L303.06 387.37L301.9 387.5L300.77 387.63L299.66 387.77L298.58 387.91L297.52 388.06L296.48 388.21L295.48 388.36L294.5 388.52L293.55 388.67L292.63 388.83L291.74 388.98L290.88 389.14L290.05 389.3L289.25 389.45L288.49 389.6L287.75 389.75L287.05 389.9L286.39 390.04L285.75 390.18L285.16 390.32L285.39 391.71L285.69 393.08L286.05 394.43L286.48 395.76L286.97 397.06L287.53 398.34L288.14 399.58L288.81 400.8L289.54 401.99L290.33 403.15L291.17 404.27L292.06 405.36L293 406.42L293.99 407.43L295.03 408.41L296.11 409.35L297.24 410.24L298.41 411.09L299.62 411.9L300.87 412.66L302.16 413.37L303.49 414.04L304.85 414.65L306.24 415.21L307.67 415.72L309.12 416.18L310.6 416.58L312.11 416.92L313.65 417.2L315.2 417.42L316.78 417.58L318.38 417.68L320 417.71L321.62 417.68L323.22 417.58L324.8 417.42L326.36 417.2L327.89 416.92L329.4 416.58L330.89 416.18L332.34 415.72L333.76 415.21L335.16 414.65L336.52 414.04L337.84 413.37L339.13 412.66L340.38 411.9L341.59 411.09L342.76 410.24L343.89 409.35L344.98 408.41L346.01 407.43L347 406.42L347.95 405.36L348.84 404.28L349.68 403.15L350.46 401.99L351.19 400.81L351.86 399.59L352.48 398.34L353.03 397.06L353.53 395.76L353.96 394.44L354.32 393.09L354.62 391.72L354.85 390.32L354.25 390.19L353.62 390.05L352.95 389.91L352.24 389.76L351.51 389.61L350.74 389.46L349.94 389.3L349.11 389.15L348.24 388.99L347.35 388.83L346.43 388.67L345.48 388.52L344.5 388.37L343.49 388.21L342.46 388.06L341.4 387.92L340.31 387.77L339.2 387.64L338.06 387.5L336.91 387.37L335.72 387.25L334.52 387.14L333.3 387.03L332.05 386.93L330.78 386.83L329.5 386.75L328.19 386.68L326.87 386.61L325.53 386.56L324.17 386.51L322.8 386.48L321.41 386.46L320 386.46L318.59 386.46L317.2 386.48ZM341.52 282.47L341.25 282.7L340.98 282.93L340.71 283.15L340.44 283.38L340.17 283.6L339.89 283.82L339.62 284.04L339.34 284.26L339.06 284.48L338.78 284.69L338.5 284.91L338.22 285.12L337.93 285.33L337.65 285.54L337.36 285.75L337.07 285.96L336.78 286.16L336.49 286.37L336.2 286.57L335.9 286.77L335.6 286.97L335.31 287.17L335.01 287.36L334.71 287.56L334.41 287.75L334.11 287.94L333.8 288.13L333.5 288.32L333.19 288.5L332.88 288.69L332.57 288.87L332.26 289.05L331.95 289.23L331.64 289.41L331.32 289.59L331.01 289.76L330.69 289.94L330.37 290.11L329.65 290.48L328.93 290.85L328.2 291.21L327.47 291.56L326.73 291.9L325.98 292.24L325.24 292.56L324.48 292.87L323.73 293.18L322.97 293.47L322.2 293.76L321.43 294.04L320.66 294.3L319.88 294.56L319.1 294.81L318.32 295.05L317.53 295.28L316.74 295.5L315.95 295.71L315.15 295.91L314.35 296.11L313.55 296.29L312.74 296.46L311.94 296.62L311.13 296.78L310.31 296.92L309.5 297.06L308.68 297.18L307.86 297.29L307.04 297.4L306.21 297.49L305.39 297.58L304.56 297.65L303.73 297.72L302.9 297.77L302.07 297.82L301.24 297.85L300.41 297.88L299.57 297.9L298.74 297.9L277.71 297.9L279.11 291.67L279.14 291.56L279.16 291.45L279.19 291.34L279.22 291.23L279.24 291.12L279.27 291.01L279.3 290.9L279.33 290.79L279.36 290.69L279.39 290.58L279.41 290.47L279.44 290.36L279.47 290.25L279.5 290.14L279.54 290.04L279.57 289.93L279.6 289.82L279.63 289.71L279.66 289.61L279.69 289.5L279.73 289.39L279.76 289.28L279.79 289.18L279.82 289.07L279.86 288.96L279.89 288.85L279.92 288.75L279.96 288.64L279.99 288.53L280.02 288.42L280.06 288.32L280.09 288.21L280.12 288.1L280.16 288L280.19 287.89L280.22 287.78L280.26 287.67L280.29 287.57L280.32 287.46L280.36 287.35L280 287.51L279.65 287.67L279.3 287.83L278.95 287.99L278.6 288.15L278.25 288.32L277.91 288.49L277.56 288.66L277.22 288.83L276.88 289L276.54 289.18L276.2 289.36L275.86 289.54L275.52 289.72L275.19 289.9L274.85 290.09L274.52 290.28L274.19 290.47L273.86 290.66L273.53 290.85L273.21 291.05L272.88 291.25L272.56 291.45L272.24 291.65L271.92 291.86L271.6 292.06L271.28 292.27L270.96 292.48L270.65 292.69L270.34 292.91L270.02 293.12L269.71 293.34L269.4 293.56L269.1 293.78L268.79 294L268.49 294.23L268.19 294.46L267.89 294.69L267.59 294.92L267.29 295.15L267.29 316.89L267.29 317.69L267.31 318.49L267.34 319.28L267.37 320.08L267.42 320.88L267.48 321.67L267.55 322.47L267.62 323.26L267.71 324.06L267.81 324.85L267.92 325.64L268.04 326.43L268.17 327.22L268.31 328.01L268.46 328.79L268.62 329.58L268.8 330.36L268.98 331.14L269.17 331.92L269.37 332.7L269.58 333.48L269.8 334.25L270.03 335.02L270.27 335.79L270.52 336.55L270.78 337.32L271.06 338.08L271.34 338.84L271.63 339.59L271.93 340.34L272.24 341.09L272.56 341.84L272.89 342.58L273.22 343.32L273.57 344.05L273.93 344.78L274.3 345.51L274.68 346.23L275.06 346.95L275.46 347.67L275.87 348.41L276.28 349.16L276.67 349.92L277.06 350.67L277.43 351.44L277.8 352.2L278.16 352.97L278.5 353.74L278.84 354.52L279.17 355.3L279.49 356.08L279.8 356.86L280.1 357.65L280.39 358.44L280.67 359.24L280.94 360.03L281.2 360.83L281.46 361.63L281.7 362.44L281.94 363.24L282.16 364.05L282.38 364.86L282.58 365.67L282.78 366.49L282.96 367.3L283.14 368.12L283.31 368.94L283.47 369.76L283.62 370.58L283.76 371.41L283.89 372.23L284.01 373.06L284.12 373.89L284.22 374.71L284.32 375.54L284.4 376.37L284.47 377.2L284.54 378.03L284.59 378.87L284.64 379.7L285.21 379.58L285.81 379.45L286.42 379.33L287.06 379.21L287.71 379.08L288.38 378.96L289.07 378.83L289.77 378.7L290.49 378.58L291.23 378.45L291.99 378.33L292.76 378.2L293.55 378.08L294.35 377.96L295.17 377.84L296.01 377.72L296.86 377.6L297.72 377.49L298.6 377.38L299.49 377.27L300.4 377.16L301.33 377.06L302.26 376.96L303.21 376.87L304.17 376.78L305.15 376.69L306.13 376.61L307.13 376.53L308.15 376.45L309.17 376.39L310.21 376.32L311.25 376.27L312.31 376.22L313.38 376.17L314.46 376.13L315.55 376.1L316.65 376.07L317.76 376.05L318.87 376.04L320 376.04L321.13 376.04L322.25 376.05L323.36 376.07L324.46 376.1L325.55 376.13L326.63 376.17L327.7 376.22L328.75 376.27L329.8 376.32L330.84 376.39L331.86 376.45L332.87 376.53L333.87 376.61L334.86 376.69L335.83 376.78L336.8 376.87L337.74 376.96L338.68 377.06L339.6 377.16L340.51 377.27L341.4 377.38L342.28 377.49L343.15 377.6L344 377.72L344.83 377.84L345.65 377.96L346.46 378.08L347.25 378.2L348.02 378.33L348.77 378.45L349.51 378.58L350.23 378.7L350.94 378.83L351.63 378.96L352.3 379.08L352.95 379.21L353.58 379.33L354.2 379.45L354.79 379.58L355.37 379.7L355.41 378.87L355.47 378.03L355.53 377.2L355.61 376.37L355.69 375.54L355.78 374.71L355.89 373.89L356 373.06L356.12 372.23L356.25 371.41L356.39 370.59L356.54 369.76L356.7 368.94L356.86 368.12L357.04 367.31L357.23 366.49L357.42 365.68L357.63 364.86L357.85 364.05L358.07 363.25L358.3 362.44L358.55 361.64L358.8 360.83L359.06 360.04L359.34 359.24L359.62 358.45L359.91 357.65L360.21 356.87L360.52 356.08L360.84 355.3L361.16 354.52L361.5 353.74L361.85 352.97L362.21 352.2L362.57 351.44L362.95 350.68L363.33 349.92L363.73 349.16L364.13 348.41L364.55 347.67L364.94 346.95L365.33 346.23L365.71 345.51L366.07 344.78L366.43 344.05L366.78 343.32L367.12 342.58L367.45 341.84L367.77 341.09L368.08 340.34L368.38 339.59L368.67 338.84L368.95 338.08L369.22 337.32L369.48 336.55L369.73 335.79L369.97 335.02L370.21 334.25L370.43 333.48L370.64 332.7L370.84 331.92L371.03 331.14L371.21 330.36L371.38 329.58L371.54 328.79L371.69 328.01L371.83 327.22L371.96 326.43L372.08 325.64L372.19 324.85L372.29 324.06L372.38 323.26L372.46 322.47L372.53 321.67L372.59 320.88L372.63 320.08L372.67 319.28L372.7 318.49L372.71 317.69L372.72 316.89L372.72 295.15L372.19 294.74L371.65 294.33L371.11 293.92L370.56 293.52L370.01 293.13L369.45 292.75L368.89 292.37L368.33 291.99L367.76 291.62L367.18 291.26L366.6 290.91L366.02 290.56L365.43 290.21L364.84 289.87L364.24 289.54L363.64 289.22L363.04 288.9L362.43 288.59L361.81 288.28L361.2 287.98L360.58 287.69L359.95 287.41L359.32 287.13L358.69 286.86L358.05 286.59L357.41 286.33L356.77 286.08L356.12 285.84L355.47 285.6L354.82 285.37L354.16 285.15L353.5 284.93L352.83 284.72L352.16 284.52L351.49 284.33L350.82 284.14L350.14 283.96L349.46 283.79L348.77 283.62L348.09 283.47L342.01 282.12L342.04 282.01L341.78 282.24L341.52 282.47ZM292.71 229.45L291.68 229.81L290.65 230.18L289.64 230.57L288.63 230.97L287.63 231.38L286.63 231.8L285.65 232.24L284.67 232.68L283.7 233.14L282.74 233.62L281.79 234.1L280.85 234.6L279.92 235.11L278.99 235.63L278.08 236.16L277.17 236.7L276.28 237.26L275.39 237.82L274.51 238.4L273.64 238.99L272.78 239.59L271.93 240.2L271.1 240.82L270.27 241.46L269.45 242.1L268.64 242.75L267.84 243.41L267.05 244.09L266.28 244.77L265.51 245.47L264.75 246.17L264.01 246.88L263.28 247.61L262.55 248.34L261.84 249.08L261.14 249.83L260.45 250.6L259.78 251.37L260.08 251.25L260.38 251.14L260.68 251.04L260.99 250.93L261.29 250.82L261.59 250.72L261.9 250.61L262.2 250.51L262.51 250.41L262.81 250.31L263.12 250.21L263.43 250.11L263.74 250.02L264.05 249.92L264.36 249.83L264.67 249.74L264.98 249.65L265.29 249.56L265.6 249.47L265.91 249.38L266.23 249.3L266.54 249.21L266.85 249.13L267.17 249.05L267.48 248.97L267.8 248.89L268.12 248.81L268.43 248.74L268.75 248.66L269.07 248.59L269.39 248.52L269.71 248.45L270.03 248.38L270.35 248.31L270.67 248.25L270.99 248.18L271.31 248.12L271.63 248.06L271.96 248L272.28 247.94L277.85 246.95L280.15 257.16L274.58 258.15L273.79 258.3L273.01 258.46L272.23 258.62L271.45 258.8L270.68 258.98L269.91 259.18L269.14 259.38L268.38 259.6L267.62 259.82L266.87 260.06L266.12 260.3L265.38 260.56L264.64 260.82L263.91 261.09L263.18 261.38L262.46 261.67L261.74 261.97L261.02 262.28L260.32 262.6L259.61 262.93L258.92 263.26L258.22 263.61L257.54 263.97L256.86 264.33L256.18 264.7L255.51 265.09L254.85 265.48L254.2 265.88L253.55 266.29L252.9 266.71L252.27 267.13L251.64 267.57L251.01 268.01L250.39 268.47L249.78 268.93L249.18 269.4L248.59 269.87L248 270.36L247.41 270.85L246.84 271.36L246.42 271.74L246 272.13L245.6 272.53L245.21 272.93L244.82 273.34L244.45 273.75L244.09 274.17L243.73 274.59L243.39 275.02L243.06 275.46L242.73 275.9L242.42 276.34L242.12 276.79L241.82 277.24L241.54 277.7L241.27 278.17L241.01 278.64L240.76 279.11L240.51 279.58L240.28 280.06L240.07 280.55L239.86 281.04L239.66 281.53L239.47 282.02L239.3 282.52L239.13 283.02L238.98 283.53L238.83 284.04L238.7 284.55L238.58 285.06L238.47 285.58L238.37 286.1L238.29 286.62L238.21 287.14L238.15 287.67L238.1 288.2L238.06 288.73L238.03 289.26L238.01 289.8L238 290.34L238 290.65L238.01 290.96L238.02 291.27L238.04 291.58L238.05 291.89L238.08 292.2L238.1 292.51L238.13 292.82L238.17 293.13L238.21 293.44L238.25 293.75L238.3 294.05L238.35 294.36L238.4 294.67L238.46 294.98L238.52 295.28L238.59 295.59L238.66 295.89L238.74 296.2L238.81 296.5L238.9 296.8L238.98 297.1L239.07 297.4L239.17 297.7L239.26 298L239.37 298.3L239.47 298.6L239.58 298.89L239.69 299.19L239.81 299.48L239.93 299.77L240.06 300.06L240.19 300.35L240.32 300.64L240.45 300.93L240.59 301.21L240.74 301.5L240.88 301.78L241.03 302.06L241.19 302.34L243.24 305.99L243.5 305.55L243.76 305.1L244.02 304.66L244.29 304.22L244.56 303.78L244.83 303.34L245.11 302.91L245.4 302.47L245.68 302.04L245.97 301.62L246.27 301.19L246.56 300.76L246.87 300.34L247.17 299.92L247.48 299.5L247.79 299.09L248.11 298.67L248.43 298.26L248.75 297.85L249.08 297.44L249.41 297.04L249.74 296.64L250.08 296.24L250.42 295.84L250.77 295.45L251.12 295.05L251.47 294.66L251.83 294.28L252.19 293.89L252.55 293.51L252.91 293.13L253.28 292.75L253.66 292.38L254.03 292.01L254.41 291.64L254.79 291.27L255.18 290.91L255.57 290.55L255.96 290.19L256.36 289.84L256.98 289.29L257.62 288.75L258.26 288.21L258.91 287.69L259.56 287.17L260.22 286.66L260.89 286.15L261.57 285.66L262.25 285.17L262.94 284.7L263.63 284.23L264.33 283.76L265.04 283.31L265.76 282.86L266.48 282.43L267.2 282L267.93 281.58L268.67 281.16L269.41 280.76L270.16 280.36L270.92 279.97L271.68 279.59L272.44 279.22L273.21 278.86L273.99 278.5L274.77 278.16L275.55 277.82L276.34 277.49L277.14 277.17L277.94 276.85L278.74 276.55L279.55 276.25L280.36 275.97L281.18 275.69L282 275.42L282.82 275.16L283.65 274.9L284.49 274.66L285.32 274.43L286.16 274.2L286.46 273.7L286.77 273.19L287.08 272.69L287.39 272.2L287.71 271.7L288.04 271.21L288.36 270.72L288.7 270.24L289.04 269.75L289.38 269.27L289.72 268.79L290.08 268.32L290.43 267.85L290.79 267.38L291.16 266.91L291.53 266.44L291.9 265.98L292.28 265.52L292.67 265.07L293.05 264.61L293.45 264.16L293.84 263.72L294.24 263.27L294.65 262.83L295.06 262.4L295.47 261.96L295.89 261.53L296.31 261.1L296.74 260.68L297.17 260.26L297.61 259.84L298.05 259.42L298.49 259.01L298.94 258.6L299.4 258.2L299.85 257.8L300.31 257.4L300.78 257L301.25 256.61L301.72 256.23L289.66 256.23L294.8 228.77L293.75 229.11L292.71 229.45ZM355.68 263.86L355.52 264.2L355.36 264.54L355.2 264.87L355.03 265.2L354.86 265.54L354.69 265.87L354.52 266.2L354.34 266.53L354.17 266.86L353.98 267.18L353.8 267.51L353.61 267.83L353.43 268.16L353.23 268.48L353.04 268.8L352.85 269.12L352.65 269.44L352.45 269.76L352.24 270.08L352.04 270.39L351.83 270.7L351.62 271.02L351.41 271.33L351.2 271.64L350.98 271.95L350.76 272.26L350.54 272.57L350.32 272.87L350.1 273.18L350.92 273.36L352.16 273.64L353.38 273.95L354.6 274.27L355.82 274.62L357.02 274.98L358.21 275.36L359.4 275.76L360.58 276.18L361.75 276.62L362.9 277.07L364.05 277.55L365.19 278.04L366.32 278.55L367.44 279.08L368.54 279.62L369.64 280.19L370.72 280.77L371.8 281.37L372.86 281.98L373.9 282.61L374.94 283.26L375.96 283.93L376.97 284.61L377.97 285.31L378.95 286.03L379.92 286.76L380.87 287.5L381.81 288.27L382.74 289.05L383.65 289.84L384.18 290.31L384.7 290.79L385.21 291.28L385.72 291.76L386.23 292.26L386.72 292.76L387.21 293.26L387.7 293.77L388.18 294.28L388.65 294.79L389.12 295.32L389.58 295.84L390.04 296.37L390.48 296.91L390.93 297.45L391.36 297.99L391.79 298.54L392.21 299.09L392.63 299.64L393.04 300.2L393.44 300.76L393.84 301.33L394.23 301.9L394.61 302.47L394.99 303.05L395.35 303.63L395.72 304.22L396.07 304.81L396.42 305.4L396.76 305.99L398.82 302.34L399.02 301.97L399.22 301.59L399.41 301.21L399.6 300.83L399.78 300.45L399.95 300.06L400.11 299.68L400.27 299.29L400.42 298.89L400.57 298.5L400.71 298.1L400.84 297.7L400.96 297.3L401.08 296.9L401.19 296.5L401.3 296.09L401.39 295.69L401.48 295.28L401.56 294.87L401.64 294.46L401.71 294.05L401.77 293.64L401.82 293.23L401.87 292.82L401.91 292.4L401.94 291.99L401.97 291.58L401.99 291.16L402 290.75L402 290.34L401.99 289.62L401.96 288.91L401.91 288.2L401.84 287.49L401.74 286.79L401.63 286.1L401.5 285.4L401.34 284.72L401.17 284.03L400.98 283.36L400.77 282.69L400.53 282.02L400.28 281.36L400.01 280.71L399.72 280.06L399.41 279.42L399.08 278.79L398.74 278.17L398.37 277.55L397.99 276.94L397.59 276.34L397.17 275.75L396.73 275.17L396.27 274.59L395.8 274.03L395.31 273.48L394.8 272.93L394.27 272.4L393.73 271.88L393.17 271.36L392.4 270.69L391.62 270.04L390.83 269.4L390.02 268.78L389.2 268.17L388.37 267.57L387.53 266.99L386.68 266.43L385.81 265.88L384.94 265.35L384.05 264.84L383.15 264.33L382.24 263.85L381.33 263.38L380.4 262.93L379.46 262.49L378.51 262.07L377.55 261.67L376.59 261.28L375.61 260.91L374.63 260.56L373.64 260.22L372.64 259.91L371.63 259.6L370.61 259.32L369.59 259.05L368.56 258.8L367.52 258.57L366.48 258.36L365.42 258.16L365.2 258.12L364.98 258.08L364.75 258.05L364.53 258.01L364.3 257.97L364.08 257.94L363.85 257.91L363.63 257.87L363.4 257.84L363.18 257.81L362.95 257.78L362.73 257.75L362.5 257.72L362.27 257.69L362.05 257.67L361.82 257.64L361.59 257.61L361.37 257.58L361.14 257.56L360.92 257.53L360.69 257.5L360.46 257.48L360.24 257.45L360.01 257.42L359.78 257.4L359.56 257.37L359.33 257.34L359.1 257.32L358.88 257.29L358.65 257.26L355.83 263.52L355.68 263.86ZM319.34 257.44L317.93 258.22L316.55 259.02L315.2 259.86L313.88 260.73L312.58 261.62L311.32 262.55L310.08 263.5L308.88 264.48L307.7 265.49L306.56 266.52L305.45 267.58L304.37 268.67L303.32 269.78L302.31 270.91L301.33 272.06L300.39 273.24L299.48 274.44L298.61 275.66L297.77 276.9L296.97 278.16L296.21 279.44L295.48 280.74L294.8 282.06L294.15 283.39L293.54 284.74L292.97 286.1L292.44 287.48L298.74 287.48L299.74 287.47L300.74 287.45L301.74 287.4L302.73 287.34L303.72 287.26L304.72 287.16L305.7 287.05L306.69 286.91L307.67 286.76L308.64 286.6L309.62 286.41L310.58 286.21L311.55 285.99L312.5 285.75L313.45 285.5L314.4 285.23L315.34 284.95L316.27 284.64L317.2 284.32L318.12 283.99L319.03 283.63L319.94 283.26L320.83 282.88L321.72 282.48L322.6 282.06L323.48 281.62L324.34 281.17L325.36 280.61L326.37 280.03L327.36 279.43L328.33 278.8L329.28 278.16L330.22 277.49L331.13 276.8L332.03 276.1L332.91 275.38L333.77 274.64L334.61 273.88L335.43 273.1L336.22 272.31L337 271.5L337.75 270.67L338.49 269.83L339.19 268.97L339.88 268.1L340.54 267.21L341.18 266.31L341.8 265.4L342.38 264.47L342.95 263.53L343.49 262.58L344 261.61L344.49 260.64L344.95 259.65L346.43 256.36L346.32 256.35L346.21 256.35L346.1 256.34L345.99 256.34L345.89 256.33L345.78 256.33L345.67 256.32L345.56 256.32L345.45 256.31L345.34 256.3L345.23 256.3L345.12 256.29L345.01 256.28L344.9 256.28L344.79 256.27L344.69 256.27L344.58 256.26L344.47 256.25L344.36 256.25L344.25 256.24L344.14 256.24L344.03 256.24L343.92 256.23L343.81 256.23L343.7 256.23L343.59 256.23L343.48 256.23L321.62 256.23L319.34 257.44ZM223.25 240.82L223.95 242.83L224.74 244.82L225.59 246.77L226.52 248.69L227.53 250.58L228.61 252.44L229.76 254.27L230.97 256.05L232.26 257.81L233.62 259.52L235.05 261.19L236.54 262.82L238.1 264.41L238.62 263.26L239.16 262.11L239.71 260.97L240.29 259.85L240.88 258.73L241.49 257.63L242.12 256.53L242.77 255.45L243.44 254.38L244.12 253.32L244.82 252.26L245.54 251.22L246.27 250.2L247.03 249.18L247.8 248.17L222.06 236.73L222.62 238.79L223.25 240.82ZM392.97 249.18L393.73 250.2L394.46 251.22L395.18 252.26L395.88 253.32L396.57 254.38L397.23 255.45L397.88 256.53L398.51 257.63L399.12 258.73L399.71 259.85L400.29 260.97L400.84 262.11L401.38 263.25L401.9 264.41L403.46 262.82L404.95 261.19L406.38 259.51L407.74 257.8L409.03 256.05L410.24 254.26L411.39 252.44L412.47 250.58L413.48 248.69L414.41 246.76L415.26 244.81L416.05 242.83L416.75 240.82L417.38 238.79L417.94 236.73L392.2 248.17L392.97 249.18ZM349.49 245.94L350.57 245.99L351.65 246.05L352.72 246.12L353.8 246.19L354.88 246.28L355.96 246.37L357.03 246.47L358.11 246.58L359.18 246.7L360.26 246.83L361.33 246.96L362.4 247.1L363.47 247.26L364.53 247.42L365.6 247.58L366.66 247.76L367.72 247.94L368.44 248.08L369.15 248.22L369.87 248.36L370.58 248.52L371.28 248.68L371.99 248.84L372.69 249.02L373.39 249.2L374.09 249.39L374.78 249.58L375.47 249.78L376.16 249.99L376.84 250.21L377.52 250.43L378.2 250.65L378.88 250.89L379.55 251.13L380.22 251.37L378.7 249.67L377.13 248.02L375.49 246.41L373.81 244.85L372.07 243.34L370.28 241.89L368.44 240.48L366.55 239.13L364.61 237.83L362.63 236.58L360.6 235.4L358.52 234.27L356.4 233.2L354.24 232.19L352.04 231.24L349.79 230.36L347.51 229.54L345.19 228.78L348.4 245.9L349.49 245.94ZM303.49 245.81L336.51 245.81L334.56 235.39L305.44 235.39L303.49 245.81ZM223.64 214.62L223.3 214.68L222.97 214.76L222.66 214.88L222.35 215.02L222.06 215.18L221.78 215.36L221.52 215.56L221.29 215.79L221.07 216.03L220.89 216.28L220.73 216.56L220.6 216.84L220.51 217.14L220.45 217.45L220.43 217.77L220.43 223.63L220.43 223.67L220.43 223.7L220.43 223.74L220.43 223.77L220.44 223.81L220.44 223.84L220.44 223.88L220.44 223.91L220.45 223.95L220.45 223.98L220.45 224.02L220.45 224.05L220.46 224.12L220.46 224.16L220.47 224.2L220.47 224.23L220.47 224.27L220.47 224.3L220.48 224.34L220.48 224.37L255.25 239.84L255.66 239.44L256.08 239.05L256.49 238.66L256.91 238.28L257.34 237.9L257.77 237.52L258.2 237.14L258.63 236.77L259.07 236.4L259.51 236.03L259.95 235.67L260.4 235.31L260.84 234.95L261.29 234.59L261.75 234.24L262.2 233.89L262.66 233.54L263.12 233.19L263.59 232.85L264.05 232.5L264.52 232.16L225.67 214.89L225.34 214.76L225.01 214.67L224.67 214.61L224.32 214.58L223.98 214.58L223.64 214.62ZM415 214.67L414.66 214.76L414.33 214.89L375.49 232.16L375.96 232.5L376.43 232.85L376.89 233.19L377.35 233.54L377.81 233.89L378.26 234.24L378.72 234.59L379.17 234.95L379.62 235.31L380.06 235.67L380.5 236.03L380.94 236.4L381.38 236.77L381.81 237.14L382.25 237.52L382.67 237.9L383.1 238.28L383.52 238.66L383.94 239.05L384.35 239.44L384.76 239.84L419.53 224.37L419.54 224.34L419.54 224.3L419.54 224.27L419.54 224.23L419.54 224.2L419.54 224.16L419.55 224.12L419.55 224.09L419.55 224.05L419.56 224.02L419.56 223.98L419.56 223.95L419.56 223.91L419.57 223.88L419.57 223.84L419.57 223.81L419.57 223.77L419.57 223.74L419.57 223.7L419.57 223.67L419.57 223.63L419.57 217.77L419.55 217.45L419.5 217.14L419.4 216.84L419.28 216.56L419.12 216.29L418.93 216.03L418.72 215.79L418.49 215.57L418.23 215.36L417.95 215.18L417.66 215.02L417.35 214.88L417.04 214.77L416.71 214.68L416.37 214.62L416.03 214.59L415.69 214.58L415.34 214.61L415 214.67ZM307.39 224.97L332.61 224.97L330.66 214.55L309.34 214.55L307.39 224.97ZM311.3 204.13L328.71 204.13L326.75 193.71L313.25 193.71L311.3 204.13ZM319.45 162.67L319.23 162.81L319.06 163L318.96 163.24L315.2 183.3L324.8 183.3L321.05 163.25L320.95 163L320.78 162.81L320.55 162.67L320.29 162.59L320 162.56L319.72 162.59L319.45 162.67Z" id="b2tIobDjcC"></path></defs><g><g><g><use xlink:href="#ah7t6Nboc" opacity="1" fill="#000000" fill-opacity="1"></use><g><use xlink:href="#ah7t6Nboc" opacity="1" fill-opacity="0" stroke="#000000" stroke-width="1" stroke-opacity="0"></use></g></g><g><use xlink:href="#bM4FHxqrg" opacity="1" fill="#000000" fill-opacity="1"></use><g><use xlink:href="#bM4FHxqrg" opacity="1" fill-opacity="0" stroke="#000000" stroke-width="1" stroke-opacity="0"></use></g></g><g><use xlink:href="#f19wy88yQx" opacity="1" fill="#000000" fill-opacity="1"></use><g><use xlink:href="#f19wy88yQx" opacity="1" fill-opacity="0" stroke="#000000" stroke-width="1" stroke-opacity="0"></use></g></g><g><use xlink:href="#bOX8uRyeA" opacity="1" fill="#000000" fill-opacity="1"></use><g><use xlink:href="#bOX8uRyeA" opacity="1" fill-opacity="0" stroke="#000000" stroke-width="1" stroke-opacity="0"></use></g></g><g><use xlink:href="#cAupUQnR" opacity="1" fill="#000000" fill-opacity="1"></use><g><use xlink:href="#cAupUQnR" opacity="1" fill-opacity="0" stroke="#000000" stroke-width="1" stroke-opacity="0"></use></g></g><g><use xlink:href="#b1ll21Cfnr" opacity="1" fill="#000000" fill-opacity="1"></use><g><use xlink:href="#b1ll21Cfnr" opacity="1" fill-opacity="0" stroke="#000000" stroke-width="1" stroke-opacity="0"></use></g></g><g><use xlink:href="#a6ZMkCapf" opacity="1" fill="#000000" fill-opacity="1"></use><g><use xlink:href="#a6ZMkCapf" opacity="1" fill-opacity="0" stroke="#000000" stroke-width="1" stroke-opacity="0"></use></g></g><g><use xlink:href="#b2tIobDjcC" opacity="1" fill="#000000" fill-opacity="1"></use><g><use xlink:href="#b2tIobDjcC" opacity="1" fill-opacity="0" stroke="#000000" stroke-width="1" stroke-opacity="0"></use></g></g></g></g></svg>