<?xml version="1.0" encoding="UTF-8" standalone="no"?>
<!DOCTYPE svg PUBLIC "-//W3C//DTD SVG 1.1//EN" "http://www.w3.org/Graphics/SVG/1.1/DTD/svg11.dtd">
<svg version="1.1" xmlns="http://www.w3.org/2000/svg" xmlns:xlink="http://www.w3.org/1999/xlink" preserveAspectRatio="xMidYMid meet" viewBox="0 0 640 640" width="640" height="640"><defs><path d="M542.31 119.39L542.55 119.41L542.8 119.43L543.04 119.45L543.29 119.48L543.53 119.52L546.82 120.11L550.01 120.84L553.11 121.69L556.12 122.66L559.02 123.75L561.83 124.95L564.53 126.25L567.12 127.66L569.61 129.17L571.99 130.77L574.25 132.46L576.4 134.24L578.44 136.09L580.35 138.02L582.15 140.02L583.82 142.09L585.36 144.22L586.78 146.4L588.07 148.64L589.23 150.92L590.25 153.25L591.14 155.62L591.88 158.02L592.49 160.45L592.95 162.9L593.27 165.37L593.44 167.86L593.46 170.37L593.33 172.87L593.04 175.38L592.6 177.89L592 180.39L591.23 182.88L590.31 185.35L589.22 187.8L587.96 190.22L586.53 192.61L584.93 194.97L583.16 197.29L581.21 199.57L581.25 199.82L581.29 200.06L581.33 200.31L581.37 200.56L581.41 200.8L581.45 201.05L581.49 201.3L581.53 201.55L581.57 201.79L581.61 202.04L581.65 202.29L581.69 202.53L581.72 202.78L581.76 203.03L581.8 203.27L581.84 203.52L581.87 203.77L581.91 204.01L581.95 204.26L581.98 204.51L582.02 204.76L582.05 205L582.09 205.25L582.12 205.5L582.16 205.74L582.19 205.99L582.23 206.24L582.26 206.48L582.29 206.73L582.33 206.98L582.36 207.22L582.39 207.47L582.42 207.72L582.46 207.96L582.49 208.21L582.52 208.46L582.55 208.71L582.58 208.95L582.61 209.2L582.64 209.45L583.61 208.79L584.59 208.16L585.59 207.55L586.6 206.95L587.63 206.38L588.67 205.83L589.73 205.3L590.79 204.79L591.87 204.31L592.96 203.84L594.07 203.4L595.18 202.97L596.3 202.57L597.44 202.19L598.58 201.84L599.73 201.5L600.89 201.19L602.06 200.89L603.23 200.62L604.41 200.38L605.6 200.15L606.8 199.95L608 199.77L609.2 199.61L610.41 199.48L611.63 199.37L612.85 199.28L614.07 199.21L615.29 199.17L616.52 199.15L617.75 199.15L618.98 199.18L620.21 199.23L621.44 199.31L622.67 199.41L623.9 199.53L625.13 199.67L626.35 199.84L627.58 200.04L628.8 200.26L629.04 200.31L629.28 200.36L629.52 200.42L629.75 200.48L629.98 200.55L630.21 200.62L630.44 200.7L630.66 200.79L630.88 200.87L631.09 200.96L631.31 201.06L631.52 201.16L631.72 201.27L631.92 201.38L632.12 201.49L632.32 201.61L632.51 201.73L632.69 201.85L632.88 201.98L633.05 202.12L633.23 202.25L633.4 202.4L633.56 202.54L633.72 202.69L633.88 202.84L634.03 202.99L634.18 203.15L634.32 203.31L634.46 203.48L634.59 203.65L634.72 203.82L634.84 203.99L634.95 204.17L635.06 204.35L635.17 204.53L635.27 204.71L635.36 204.9L635.45 205.09L635.53 205.29L635.61 205.48L636.34 207.65L636.93 209.81L637.39 211.97L637.71 214.12L637.9 216.26L637.96 218.39L637.89 220.5L637.7 222.59L637.39 224.66L636.96 226.7L636.41 228.71L635.76 230.7L634.99 232.65L634.11 234.56L633.13 236.44L632.05 238.27L630.86 240.05L629.58 241.79L628.21 243.48L626.74 245.11L625.18 246.68L623.54 248.2L621.82 249.65L620.01 251.04L618.13 252.36L616.16 253.61L614.13 254.78L612.03 255.88L609.85 256.9L607.62 257.83L605.32 258.68L602.96 259.44L600.54 260.11L598.07 260.69L595.55 261.16L592.98 261.54L590.37 261.82L587.71 261.99L585 262.05L582.26 262L582.22 262.32L582.17 262.64L582.13 262.96L582.08 263.29L582.03 263.61L581.99 263.93L581.94 264.26L581.89 264.58L581.84 264.9L581.79 265.22L581.74 265.55L581.69 265.87L581.64 266.19L581.59 266.51L581.54 266.84L581.48 267.16L581.43 267.48L581.38 267.8L581.32 268.13L581.27 268.45L581.21 268.77L581.15 269.09L581.1 269.41L581.04 269.74L580.98 270.06L580.93 270.38L580.87 270.7L580.81 271.02L580.75 271.34L580.69 271.66L580.63 271.99L580.57 272.31L580.5 272.63L580.44 272.95L580.38 273.27L580.32 273.59L580.25 273.91L580.19 274.23L580.12 274.55L580.06 274.87L581.29 274.38L582.53 273.91L583.78 273.48L585.04 273.07L586.3 272.68L587.57 272.33L588.84 272L590.12 271.7L591.4 271.43L592.69 271.19L593.98 270.97L595.27 270.78L596.57 270.62L597.86 270.48L599.16 270.38L600.46 270.29L601.76 270.24L603.05 270.21L604.35 270.2L605.64 270.22L606.93 270.27L608.21 270.34L609.5 270.44L610.78 270.57L612.05 270.72L613.32 270.89L614.58 271.09L615.84 271.32L617.08 271.56L618.32 271.84L619.56 272.14L620.78 272.46L621.99 272.81L623.19 273.18L624.39 273.57L625.57 273.99L626.74 274.43L627.89 274.9L629.04 275.38L630.17 275.9L630.38 276L630.59 276.11L630.8 276.22L631 276.34L631.2 276.46L631.39 276.58L631.58 276.71L631.77 276.84L631.95 276.97L632.12 277.11L632.29 277.26L632.46 277.4L632.62 277.55L632.77 277.7L632.92 277.86L633.07 278.02L633.21 278.18L633.35 278.34L633.47 278.51L633.6 278.68L633.72 278.85L633.83 279.03L633.94 279.2L634.04 279.38L634.14 279.56L634.23 279.75L634.32 279.94L634.4 280.12L634.47 280.31L634.54 280.5L634.6 280.7L634.66 280.89L634.71 281.09L634.75 281.29L634.79 281.49L634.82 281.69L634.84 281.89L634.86 282.09L634.87 282.3L634.88 282.5L634.87 283.67L634.82 284.83L634.73 285.99L634.61 287.14L634.45 288.29L634.26 289.43L634.03 290.57L633.76 291.69L633.46 292.81L633.12 293.92L632.75 295.02L632.35 296.11L631.91 297.19L631.44 298.26L630.93 299.32L630.39 300.37L629.82 301.4L629.22 302.42L628.59 303.43L627.92 304.43L627.23 305.41L626.5 306.37L625.75 307.32L624.96 308.26L624.14 309.17L623.3 310.07L622.43 310.95L621.53 311.82L620.6 312.66L619.64 313.49L618.66 314.3L617.65 315.08L616.61 315.85L615.55 316.59L614.46 317.31L613.35 318.01L612.21 318.69L611.05 319.34L609.86 319.97L608.65 320.57L607.64 321.05L606.61 321.51L605.57 321.95L604.53 322.37L603.48 322.78L602.41 323.16L601.34 323.52L600.26 323.86L599.17 324.19L598.08 324.49L596.97 324.77L595.86 325.04L594.75 325.28L593.63 325.5L592.5 325.71L591.37 325.89L590.23 326.05L589.08 326.19L587.94 326.31L586.79 326.41L585.63 326.49L584.48 326.55L583.32 326.59L582.15 326.61L580.99 326.6L579.82 326.58L578.66 326.53L577.49 326.46L576.32 326.37L575.15 326.26L573.98 326.12L572.82 325.97L571.65 325.79L570.48 325.59L569.32 325.37L568.16 325.13L567 324.86L565.84 324.57L564.69 324.26L563.54 323.93L563.36 324.31L563.17 324.7L562.99 325.08L562.8 325.46L562.62 325.85L562.43 326.23L562.24 326.61L562.05 327L561.86 327.38L561.67 327.76L561.48 328.14L561.29 328.52L561.09 328.9L560.9 329.29L560.71 329.67L560.51 330.05L560.32 330.43L560.12 330.81L559.92 331.19L559.72 331.57L559.52 331.95L559.32 332.33L559.12 332.71L558.92 333.09L558.72 333.47L558.51 333.85L558.31 334.22L558.11 334.6L557.9 334.98L557.69 335.36L557.49 335.74L557.28 336.12L557.07 336.49L556.86 336.87L556.65 337.25L556.44 337.62L556.23 338L556.01 338.38L555.8 338.75L555.58 339.13L557.07 338.88L558.56 338.66L560.04 338.47L561.53 338.32L563.01 338.2L564.48 338.12L565.96 338.07L567.43 338.05L568.89 338.07L570.35 338.12L571.8 338.2L573.25 338.31L574.68 338.46L576.11 338.63L577.53 338.84L578.94 339.08L580.34 339.34L581.72 339.64L583.1 339.97L584.46 340.32L585.81 340.71L587.15 341.12L588.47 341.57L589.77 342.04L591.06 342.54L592.34 343.07L593.59 343.62L594.83 344.2L596.05 344.81L597.25 345.45L598.44 346.11L599.6 346.79L600.74 347.51L601.85 348.24L602.95 349.01L604.02 349.79L605.07 350.6L606.1 351.44L607.09 352.3L608.07 353.18L608.23 353.34L608.39 353.49L608.54 353.66L608.68 353.82L608.82 353.99L608.96 354.16L609.08 354.33L609.21 354.5L609.32 354.68L609.43 354.86L609.54 355.04L609.64 355.22L609.73 355.4L609.82 355.59L609.9 355.77L609.97 355.96L610.04 356.15L610.11 356.35L610.16 356.54L610.21 356.73L610.26 356.93L610.3 357.12L610.33 357.32L610.35 357.52L610.37 357.72L610.39 357.91L610.4 358.11L610.4 358.31L610.39 358.51L610.38 358.71L610.36 358.91L610.34 359.11L610.31 359.31L610.27 359.51L610.23 359.71L610.18 359.91L610.12 360.1L610.06 360.3L609.99 360.5L609.91 360.69L608.96 362.85L607.89 364.93L606.71 366.95L605.42 368.89L604.04 370.76L602.55 372.55L600.98 374.27L599.32 375.92L597.57 377.48L595.74 378.97L593.84 380.38L591.86 381.7L589.82 382.95L587.71 384.11L585.55 385.19L583.33 386.18L581.06 387.09L578.75 387.91L576.39 388.64L574 389.28L571.57 389.83L569.12 390.29L566.64 390.65L564.14 390.92L561.62 391.1L559.09 391.18L556.56 391.16L554.02 391.05L551.48 390.83L548.95 390.52L546.42 390.1L543.91 389.58L541.42 388.95L538.95 388.22L536.51 387.39L534.1 386.44L531.72 385.39L529.38 384.23L527.09 382.96L524.84 381.57L524.55 381.89L524.26 382.21L523.97 382.53L523.68 382.85L523.39 383.17L523.1 383.49L522.81 383.81L522.52 384.12L522.22 384.44L521.93 384.76L521.63 385.07L521.34 385.39L521.04 385.71L520.75 386.02L520.45 386.34L520.15 386.65L519.85 386.96L519.56 387.28L519.26 387.59L518.96 387.9L518.66 388.22L518.36 388.53L518.05 388.84L517.75 389.15L517.45 389.46L517.15 389.77L516.84 390.08L516.54 390.39L516.23 390.7L515.93 391.01L515.62 391.32L515.31 391.62L515 391.93L514.7 392.24L514.39 392.54L514.08 392.85L513.77 393.16L513.46 393.46L513.15 393.77L512.84 394.07L514.38 394.14L515.92 394.24L517.45 394.38L518.97 394.55L520.47 394.76L521.96 395L523.45 395.27L524.91 395.57L526.37 395.91L527.8 396.28L529.23 396.68L530.63 397.11L532.02 397.58L533.4 398.07L534.75 398.59L536.09 399.14L537.4 399.72L538.7 400.33L539.97 400.97L541.22 401.63L542.45 402.32L543.66 403.04L544.84 403.79L546 404.56L547.14 405.35L548.24 406.17L549.32 407.02L550.38 407.89L551.4 408.78L552.4 409.7L553.37 410.64L554.31 411.6L555.22 412.58L556.09 413.59L556.94 414.61L557.75 415.66L558.53 416.73L559.27 417.81L559.98 418.92L560.65 420.05L560.76 420.23L560.85 420.42L560.94 420.61L561.03 420.8L561.11 420.99L561.18 421.18L561.24 421.38L561.3 421.57L561.36 421.77L561.4 421.97L561.44 422.16L561.48 422.36L561.5 422.56L561.53 422.76L561.54 422.95L561.55 423.15L561.55 423.35L561.55 423.55L561.54 423.75L561.52 423.95L561.5 424.14L561.47 424.34L561.43 424.54L561.39 424.73L561.35 424.93L561.29 425.12L561.23 425.32L561.17 425.51L561.1 425.7L561.02 425.89L560.93 426.07L560.84 426.26L560.75 426.45L560.64 426.63L560.54 426.81L560.42 426.99L560.3 427.17L560.17 427.34L560.04 427.51L559.9 427.68L558.23 429.57L556.47 431.36L554.64 433.06L552.72 434.66L550.73 436.17L548.67 437.58L546.55 438.9L544.36 440.12L542.12 441.25L539.83 442.28L537.5 443.22L535.12 444.06L532.7 444.8L530.25 445.45L527.78 446.01L525.28 446.47L522.76 446.83L520.22 447.09L517.68 447.26L515.12 447.34L512.57 447.31L510.02 447.2L507.48 446.98L504.94 446.67L502.43 446.26L499.93 445.76L497.46 445.16L495.03 444.46L492.62 443.67L490.25 442.78L487.93 441.79L485.66 440.71L483.43 439.53L481.27 438.25L479.16 436.87L477.12 435.4L475.15 433.83L473.26 432.17L471.44 430.4L469.71 428.54L469.14 428.91L468.56 429.29L467.99 429.66L467.41 430.03L466.83 430.4L466.26 430.76L465.68 431.13L465.1 431.5L464.52 431.86L463.93 432.22L463.35 432.59L462.76 432.95L462.18 433.31L461.59 433.66L461 434.02L460.41 434.38L459.82 434.73L459.23 435.09L458.64 435.44L458.05 435.79L457.45 436.14L456.86 436.49L456.26 436.84L455.67 437.18L455.07 437.53L454.47 437.87L453.87 438.21L453.27 438.56L452.66 438.9L452.06 439.24L451.45 439.57L450.85 439.91L450.24 440.25L449.63 440.58L449.02 440.91L448.42 441.25L447.8 441.58L447.19 441.91L446.58 442.23L445.97 442.56L445.97 476.4L445.94 477.3L445.86 478.2L445.74 479.12L445.56 480.04L445.33 480.96L445.05 481.88L444.72 482.79L444.34 483.7L443.91 484.6L443.43 485.49L442.89 486.36L442.31 487.21L441.68 488.05L441 488.86L440.26 489.64L439.48 490.4L438.65 491.12L437.77 491.8L436.83 492.45L435.85 493.06L434.82 493.63L433.74 494.14L432.61 494.61L431.43 495.03L430.2 495.39L428.92 495.7L427.6 495.94L426.22 496.12L424.79 496.23L423.32 496.28L421.8 496.25L420.22 496.15L418.6 495.97L416.93 495.71L415.21 495.36L413.45 494.93L411.63 494.41L409.77 493.8L407.86 493.09L405.9 492.29L398.37 489.05L411.99 520.65L412.18 521.14L412.34 521.63L412.44 522.12L412.52 522.6L412.55 523.07L412.55 523.54L412.51 524L412.43 524.45L412.33 524.9L412.19 525.33L412.02 525.76L411.82 526.18L411.59 526.58L411.34 526.97L411.06 527.34L410.75 527.71L410.42 528.05L410.07 528.38L409.69 528.7L409.3 528.99L408.88 529.27L408.45 529.53L408 529.77L407.53 529.99L407.05 530.18L406.56 530.36L406.05 530.51L405.54 530.63L405.01 530.74L404.47 530.81L403.93 530.86L403.38 530.88L402.83 530.87L402.27 530.84L401.7 530.77L401.14 530.67L400.57 530.55L400.01 530.39L399.44 530.19L398.88 529.96L375.7 519.81L365.48 539.73L365.37 539.95L365.24 540.16L365.11 540.37L364.97 540.58L364.82 540.78L364.67 540.98L364.51 541.17L364.35 541.36L364.17 541.54L364 541.72L363.81 541.89L363.62 542.06L363.42 542.22L363.22 542.38L363.02 542.53L362.81 542.68L362.59 542.82L362.37 542.95L362.14 543.09L361.91 543.21L361.68 543.33L361.44 543.44L361.2 543.55L360.95 543.65L360.7 543.75L360.45 543.83L360.19 543.92L359.94 543.99L359.67 544.06L359.41 544.13L359.14 544.19L358.87 544.24L358.6 544.28L358.33 544.32L358.05 544.35L357.78 544.37L357.5 544.39L357.22 544.4L356.94 544.4L356.66 544.4L356.37 544.39L356.09 544.37L355.81 544.35L355.53 544.32L355.25 544.28L354.97 544.23L354.7 544.18L354.43 544.12L354.16 544.06L353.9 543.98L353.64 543.91L353.38 543.82L353.13 543.73L352.88 543.64L352.63 543.53L352.39 543.43L352.15 543.31L351.92 543.19L351.69 543.07L351.46 542.94L351.24 542.8L351.03 542.66L350.82 542.51L350.61 542.36L350.41 542.21L350.22 542.04L350.03 541.88L349.85 541.71L349.68 541.53L349.51 541.35L349.34 541.17L349.18 540.98L349.03 540.78L348.89 540.58L348.75 540.38L348.62 540.18L348.5 539.97L348.39 539.75L348.28 539.54L348.18 539.31L322.72 480.27L319.98 480.27L294.52 539.31L294.3 539.79L294.04 540.25L293.75 540.68L293.44 541.09L293.1 541.48L292.74 541.84L292.36 542.18L291.96 542.49L291.53 542.78L291.09 543.05L290.63 543.29L290.16 543.51L289.68 543.7L289.18 543.87L288.68 544.02L288.16 544.14L287.64 544.24L287.11 544.31L286.58 544.36L286.05 544.39L285.51 544.39L284.98 544.37L284.45 544.32L283.92 544.25L283.4 544.15L282.88 544.03L282.37 543.88L281.88 543.71L281.39 543.52L280.91 543.3L280.46 543.05L280.01 542.78L279.59 542.49L279.18 542.17L278.79 541.83L278.43 541.46L278.09 541.06L277.77 540.64L277.48 540.2L277.22 539.73L267 519.81L243.82 529.96L243.57 530.07L243.31 530.17L243.05 530.27L242.79 530.35L242.52 530.43L242.25 530.51L241.99 530.57L241.72 530.63L241.45 530.68L241.17 530.73L240.9 530.77L240.63 530.8L240.35 530.82L240.08 530.84L239.8 530.85L239.53 530.86L239.25 530.86L238.98 530.85L238.7 530.83L238.43 530.81L238.16 530.78L237.88 530.75L237.61 530.71L237.34 530.66L237.08 530.6L236.81 530.54L236.55 530.47L236.29 530.4L236.03 530.32L235.77 530.23L235.52 530.14L235.27 530.04L235.02 529.93L234.78 529.82L234.54 529.7L234.3 529.57L234.07 529.44L233.84 529.3L233.62 529.15L233.4 529L233.18 528.85L232.97 528.68L232.77 528.52L232.58 528.35L232.39 528.17L232.22 528L232.04 527.81L231.88 527.63L231.72 527.44L231.57 527.25L231.43 527.05L231.29 526.85L231.17 526.65L231.05 526.45L230.93 526.24L230.83 526.03L230.73 525.82L230.64 525.6L230.56 525.39L230.48 525.17L230.42 524.95L230.36 524.73L230.31 524.51L230.27 524.28L230.23 524.06L230.2 523.83L230.19 523.61L230.18 523.38L230.17 523.15L230.18 522.92L230.2 522.69L230.22 522.46L230.25 522.24L230.29 522.01L230.34 521.78L230.4 521.55L230.46 521.33L230.54 521.1L230.62 520.88L230.71 520.65L244.34 489.05L244.32 489.05L244.28 489.07L244.21 489.1L244.12 489.14L244.01 489.19L243.87 489.25L243.72 489.31L243.55 489.39L243.15 489.56L242.7 489.75L242.2 489.97L241.94 490.08L241.4 490.31L239.71 491.04L239.17 491.27L238.91 491.39L238.41 491.6L237.96 491.79L237.57 491.96L237.39 492.04L237.24 492.1L237.1 492.16L236.99 492.21L236.9 492.25L236.83 492.28L236.79 492.3L236.77 492.3L234.81 493.11L232.9 493.82L231.05 494.43L229.24 494.95L227.48 495.39L225.78 495.74L224.13 496.01L222.53 496.19L220.97 496.3L219.47 496.34L218.02 496.3L216.62 496.2L215.27 496.03L213.96 495.79L212.71 495.5L211.51 495.15L210.35 494.74L209.24 494.29L208.18 493.78L207.17 493.23L206.21 492.64L205.3 492L204.43 491.33L203.61 490.62L202.84 489.88L202.11 489.12L201.43 488.32L200.8 487.5L200.21 486.67L199.67 485.81L199.18 484.94L198.73 484.06L198.33 483.17L197.97 482.27L197.65 481.36L197.39 480.46L197.16 479.56L196.98 478.67L196.85 477.78L196.76 476.9L196.76 476.81L196.75 476.61L196.75 476.29L196.75 475.87L196.75 475.35L196.75 474.73L196.75 474.04L196.74 473.26L196.74 472.4L196.74 471.48L196.74 470.5L196.74 469.46L196.74 468.38L196.74 467.25L196.74 466.08L196.74 464.88L196.74 463.66L196.74 462.42L196.74 461.16L196.74 459.91L196.74 458.65L196.74 457.39L196.74 456.15L196.74 454.93L196.74 453.73L196.74 452.56L196.74 451.43L196.74 450.35L196.74 449.31L196.74 448.33L196.74 447.41L196.74 446.55L196.74 445.78L196.74 445.08L196.74 444.46L196.74 443.94L196.74 443.52L196.74 443L196.74 442.91L196.11 442.58L195.48 442.24L194.85 441.9L194.22 441.57L193.59 441.23L192.96 440.88L192.34 440.54L191.71 440.2L191.09 439.85L190.47 439.51L189.85 439.16L189.23 438.81L188.61 438.46L187.99 438.11L187.37 437.76L186.76 437.4L186.14 437.05L185.53 436.69L184.92 436.33L184.31 435.98L183.7 435.62L183.09 435.25L182.48 434.89L181.88 434.53L181.27 434.16L180.67 433.8L180.06 433.43L179.46 433.06L178.86 432.69L178.26 432.32L177.66 431.95L177.06 431.57L176.47 431.2L175.87 430.82L175.28 430.44L174.68 430.07L174.09 429.69L173.5 429.3L172.91 428.92L172.32 428.54L170.59 430.4L168.78 432.16L166.88 433.83L164.91 435.4L162.87 436.87L160.77 438.25L158.6 439.52L156.38 440.71L154.1 441.79L151.78 442.78L149.41 443.67L147.01 444.46L144.57 445.16L142.1 445.76L139.6 446.26L137.09 446.67L134.56 446.98L132.01 447.19L129.46 447.31L126.91 447.33L124.35 447.26L121.81 447.09L119.27 446.82L116.75 446.46L114.25 446L111.77 445.45L109.32 444.8L106.91 444.06L104.53 443.21L102.19 442.28L99.9 441.25L97.66 440.12L95.48 438.9L93.36 437.58L91.3 436.17L89.31 434.66L87.39 433.06L85.55 431.36L83.8 429.57L82.13 427.68L81.99 427.51L81.86 427.34L81.73 427.17L81.61 426.99L81.49 426.81L81.38 426.63L81.28 426.45L81.19 426.26L81.1 426.08L81.01 425.89L80.93 425.7L80.86 425.51L80.8 425.32L80.74 425.12L80.68 424.93L80.64 424.73L80.59 424.54L80.56 424.34L80.53 424.15L80.51 423.95L80.49 423.75L80.48 423.55L80.48 423.35L80.48 423.15L80.49 422.96L80.5 422.76L80.53 422.56L80.55 422.36L80.59 422.16L80.63 421.97L80.67 421.77L80.73 421.57L80.79 421.38L80.85 421.18L80.92 420.99L81 420.8L81.09 420.61L81.18 420.42L81.28 420.23L81.38 420.05L82.03 418.96L82.71 417.88L83.43 416.83L84.18 415.8L84.96 414.78L85.77 413.79L86.61 412.81L87.48 411.86L88.37 410.92L89.3 410.01L90.25 409.12L91.23 408.25L92.24 407.4L93.27 406.58L94.32 405.77L95.4 404.99L96.5 404.24L97.63 403.5L98.78 402.8L99.95 402.11L101.14 401.46L102.35 400.82L103.58 400.22L104.83 399.64L106.09 399.08L107.38 398.55L108.68 398.05L110 397.58L111.33 397.13L112.68 396.72L114.04 396.33L115.42 395.97L116.81 395.64L118.22 395.34L119.63 395.07L121.06 394.83L122.5 394.62L123.94 394.45L125.4 394.3L126.87 394.19L126.92 394.18L126.98 394.18L127.04 394.17L127.1 394.17L127.15 394.17L127.21 394.16L127.27 394.16L127.33 394.16L127.39 394.15L127.44 394.15L127.5 394.15L127.56 394.14L127.62 394.14L127.68 394.14L127.73 394.13L127.79 394.13L127.85 394.13L127.91 394.13L127.97 394.12L128.02 394.12L128.08 394.12L128.14 394.11L128.2 394.11L128.26 394.11L128.31 394.11L128.37 394.1L128.43 394.1L128.49 394.1L128.55 394.1L128.61 394.09L128.66 394.09L128.72 394.09L128.78 394.09L128.84 394.08L128.9 394.08L128.95 394.08L129.01 394.08L129.07 394.08L129.13 394.07L129.19 394.07L128.88 393.77L128.56 393.46L128.25 393.16L127.94 392.85L127.64 392.55L127.33 392.24L127.02 391.93L126.71 391.63L126.41 391.32L126.1 391.01L125.79 390.7L125.49 390.39L125.18 390.08L124.88 389.77L124.58 389.46L124.27 389.15L123.97 388.84L123.67 388.53L123.37 388.22L123.07 387.91L122.77 387.59L122.47 387.28L122.17 386.97L121.87 386.65L121.58 386.34L121.28 386.02L120.98 385.71L120.69 385.39L120.39 385.08L120.1 384.76L119.81 384.45L119.51 384.13L119.22 383.81L118.93 383.49L118.64 383.17L118.35 382.86L118.06 382.54L117.77 382.22L117.48 381.9L117.19 381.58L114.95 382.96L112.66 384.22L110.33 385.38L107.96 386.43L105.55 387.37L103.11 388.21L100.65 388.94L98.16 389.56L95.65 390.09L93.13 390.5L90.6 390.82L88.07 391.04L85.53 391.16L82.99 391.18L80.47 391.1L77.95 390.93L75.45 390.66L72.97 390.3L70.52 389.84L68.09 389.3L65.69 388.66L63.34 387.93L61.02 387.11L58.75 386.21L56.53 385.22L54.36 384.14L52.26 382.98L50.21 381.74L48.23 380.41L46.33 379.01L44.5 377.52L42.74 375.95L41.08 374.31L39.5 372.58L38.01 370.79L36.62 368.91L35.34 366.97L34.16 364.95L33.08 362.85L32.13 360.69L32.05 360.5L31.98 360.3L31.92 360.1L31.86 359.91L31.81 359.71L31.76 359.51L31.73 359.31L31.7 359.11L31.67 358.91L31.65 358.71L31.64 358.51L31.64 358.31L31.64 358.11L31.65 357.92L31.66 357.72L31.68 357.52L31.71 357.32L31.74 357.12L31.78 356.93L31.82 356.73L31.87 356.54L31.93 356.35L31.99 356.15L32.06 355.96L32.14 355.78L32.22 355.59L32.3 355.4L32.4 355.22L32.5 355.04L32.6 354.86L32.71 354.68L32.83 354.5L32.95 354.33L33.08 354.16L33.21 353.99L33.35 353.82L33.5 353.66L33.65 353.5L33.8 353.34L33.97 353.18L34.93 352.31L35.92 351.46L36.93 350.63L37.97 349.82L39.04 349.04L40.12 348.28L41.23 347.55L42.37 346.84L43.52 346.16L44.69 345.5L45.89 344.86L47.1 344.25L48.34 343.67L49.59 343.12L50.86 342.59L52.14 342.09L53.45 341.61L54.76 341.17L56.1 340.75L57.45 340.36L58.81 340L60.18 339.67L61.57 339.37L62.97 339.1L64.38 338.86L65.8 338.65L67.23 338.47L68.67 338.32L70.12 338.21L71.58 338.12L73.04 338.07L74.51 338.05L75.99 338.07L77.47 338.12L78.96 338.2L80.45 338.32L81.95 338.47L83.45 338.65L84.94 338.87L86.45 339.13L86.23 338.76L86.02 338.38L85.81 338L85.59 337.63L85.38 337.25L85.17 336.87L84.96 336.49L84.75 336.12L84.54 335.74L84.34 335.36L84.13 334.98L83.93 334.61L83.72 334.23L83.52 333.85L83.31 333.47L83.11 333.09L82.91 332.71L82.71 332.33L82.51 331.95L82.31 331.57L82.11 331.19L81.91 330.81L81.72 330.43L81.52 330.05L81.33 329.67L81.13 329.29L80.94 328.91L80.74 328.52L80.55 328.14L80.36 327.76L80.17 327.38L79.98 327L79.79 326.61L79.6 326.23L79.42 325.85L79.23 325.47L79.04 325.08L78.86 324.7L78.68 324.32L78.49 323.93L75.84 324.66L73.2 325.28L70.55 325.77L67.91 326.16L65.29 326.42L62.67 326.58L60.08 326.63L57.5 326.58L54.95 326.42L52.43 326.16L49.94 325.8L47.48 325.34L45.06 324.79L42.68 324.14L40.35 323.41L38.07 322.59L35.84 321.68L33.67 320.69L31.55 319.62L29.5 318.48L27.52 317.25L25.6 315.95L23.76 314.58L22 313.14L20.32 311.63L18.72 310.06L17.21 308.43L15.79 306.73L14.47 304.98L13.24 303.17L12.11 301.3L11.1 299.39L10.18 297.43L9.39 295.42L8.71 293.36L8.14 291.27L7.7 289.13L7.39 286.95L7.21 284.75L7.16 282.5L7.16 282.3L7.17 282.09L7.19 281.89L7.22 281.69L7.25 281.49L7.28 281.29L7.33 281.09L7.38 280.89L7.43 280.7L7.5 280.51L7.56 280.31L7.64 280.12L7.72 279.94L7.8 279.75L7.9 279.57L7.99 279.38L8.1 279.2L8.2 279.03L8.32 278.85L8.44 278.68L8.56 278.51L8.69 278.34L8.83 278.18L8.97 278.02L9.11 277.86L9.26 277.7L9.42 277.55L9.58 277.4L9.75 277.26L9.92 277.11L10.09 276.97L10.27 276.84L10.46 276.71L10.65 276.58L10.84 276.46L11.04 276.34L11.24 276.22L11.45 276.11L11.66 276L11.87 275.9L13 275.38L14.15 274.9L15.31 274.43L16.48 273.99L17.66 273.57L18.86 273.17L20.06 272.8L21.28 272.46L22.5 272.13L23.73 271.84L24.97 271.56L26.22 271.31L27.48 271.09L28.74 270.89L30.01 270.72L31.29 270.57L32.56 270.44L33.85 270.34L35.13 270.27L36.42 270.22L37.72 270.2L39.01 270.21L40.31 270.24L41.6 270.3L42.9 270.38L44.2 270.49L45.49 270.62L46.78 270.79L48.08 270.98L49.36 271.19L50.65 271.44L51.93 271.71L53.21 272.01L54.48 272.33L55.75 272.69L57.01 273.07L58.26 273.48L59.51 273.92L60.75 274.38L61.98 274.88L61.91 274.56L61.85 274.23L61.79 273.91L61.72 273.59L61.66 273.27L61.6 272.95L61.53 272.63L61.47 272.31L61.41 271.99L61.35 271.67L61.29 271.35L61.23 271.02L61.17 270.7L61.11 270.38L61.06 270.06L61 269.74L60.94 269.42L60.88 269.09L60.83 268.77L60.77 268.45L60.72 268.13L60.66 267.81L60.61 267.48L60.56 267.16L60.5 266.84L60.45 266.52L60.4 266.19L60.35 265.87L60.3 265.55L60.25 265.23L60.2 264.9L60.15 264.58L60.1 264.26L60.05 263.94L60 263.61L59.96 263.29L59.91 262.97L59.87 262.64L59.82 262.32L59.78 262L57.03 262.05L54.32 261.99L51.66 261.82L49.03 261.54L46.46 261.16L43.94 260.69L41.46 260.11L39.05 259.44L36.69 258.68L34.39 257.83L32.15 256.89L29.98 255.87L27.87 254.77L25.84 253.6L23.88 252.35L22 251.03L20.19 249.64L18.47 248.18L16.83 246.67L15.28 245.09L13.81 243.46L12.44 241.77L11.16 240.03L9.98 238.24L8.9 236.41L7.92 234.54L7.05 232.62L6.28 230.67L5.62 228.69L5.08 226.68L4.65 224.64L4.34 222.57L4.15 220.48L4.09 218.37L4.15 216.25L4.34 214.11L4.66 211.96L5.11 209.81L5.7 207.65L6.43 205.48L6.51 205.29L6.59 205.1L6.67 204.91L6.77 204.72L6.87 204.53L6.97 204.35L7.08 204.17L7.2 203.99L7.32 203.82L7.45 203.65L7.58 203.48L7.71 203.32L7.86 203.16L8 203L8.15 202.84L8.31 202.69L8.47 202.54L8.64 202.4L8.81 202.26L8.98 202.12L9.16 201.99L9.34 201.86L9.53 201.73L9.72 201.61L9.91 201.49L10.11 201.38L10.31 201.27L10.52 201.16L10.73 201.06L10.94 200.97L11.16 200.87L11.38 200.79L11.6 200.7L11.82 200.63L12.05 200.55L12.28 200.48L12.52 200.42L12.75 200.36L12.99 200.31L13.24 200.26L14.46 200.04L15.69 199.85L16.92 199.67L18.15 199.53L19.39 199.41L20.62 199.31L21.85 199.23L23.09 199.18L24.32 199.15L25.55 199.15L26.78 199.17L28 199.21L29.23 199.28L30.44 199.37L31.66 199.48L32.87 199.62L34.08 199.78L35.28 199.96L36.47 200.16L37.66 200.39L38.84 200.63L40.02 200.91L41.19 201.2L42.35 201.51L43.5 201.85L44.64 202.21L45.77 202.59L46.89 202.99L48 203.41L49.1 203.86L50.19 204.32L51.27 204.81L52.33 205.32L53.39 205.84L54.42 206.39L55.45 206.96L56.46 207.56L57.45 208.17L58.43 208.8L59.4 209.45L59.43 209.2L59.46 208.96L59.49 208.71L59.52 208.46L59.55 208.22L59.58 207.97L59.62 207.72L59.65 207.48L59.68 207.23L59.71 206.98L59.75 206.73L59.78 206.49L59.81 206.24L59.85 205.99L59.88 205.75L59.92 205.5L59.95 205.25L59.99 205.01L60.02 204.76L60.06 204.51L60.09 204.27L60.13 204.02L60.17 203.77L60.2 203.52L60.24 203.28L60.28 203.03L60.32 202.78L60.35 202.54L60.39 202.29L60.43 202.04L60.47 201.8L60.51 201.55L60.55 201.3L60.59 201.05L60.63 200.81L60.67 200.56L60.71 200.31L60.75 200.07L60.79 199.82L60.84 199.57L58.89 197.3L57.11 194.98L55.52 192.63L54.09 190.23L52.83 187.81L51.74 185.36L50.81 182.9L50.05 180.41L49.45 177.91L49 175.41L48.72 172.9L48.58 170.39L48.6 167.89L48.77 165.4L49.08 162.93L49.54 160.47L50.15 158.04L50.89 155.64L51.78 153.27L52.8 150.95L53.95 148.66L55.24 146.42L56.65 144.24L58.2 142.11L59.87 140.04L61.66 138.04L63.58 136.11L65.61 134.25L67.76 132.48L70.03 130.79L72.4 129.18L74.89 127.68L77.49 126.26L80.19 124.96L83 123.75L85.9 122.67L88.91 121.69L92.01 120.84L95.21 120.12L98.51 119.52L98.75 119.48L99 119.45L99.24 119.43L99.49 119.41L99.73 119.39L99.98 119.38L100.22 119.38L100.47 119.38L100.71 119.39L100.95 119.4L101.2 119.42L101.44 119.44L101.68 119.47L101.91 119.5L102.15 119.54L102.39 119.58L102.62 119.63L102.85 119.68L103.08 119.74L103.31 119.8L103.54 119.87L103.76 119.94L103.99 120.02L104.21 120.1L104.42 120.19L104.64 120.28L104.85 120.38L105.06 120.48L105.26 120.58L105.47 120.69L105.67 120.81L105.86 120.93L106.05 121.05L106.24 121.18L106.43 121.31L106.61 121.45L106.79 121.59L106.96 121.73L107.13 121.88L107.29 122.03L109.37 124.12L111.28 126.26L113.04 128.46L114.64 130.69L116.08 132.97L117.36 135.28L118.49 137.63L119.47 140L120.3 142.4L120.98 144.81L121.51 147.24L121.89 149.67L122.13 152.11L122.23 154.56L122.18 156.99L122 159.42L121.67 161.84L121.2 164.24L120.6 166.62L119.86 168.97L118.99 171.28L117.99 173.57L116.86 175.81L115.59 178.01L114.2 180.16L112.68 182.26L111.04 184.3L109.27 186.27L107.38 188.18L105.37 190.02L103.24 191.78L100.99 193.46L98.63 195.06L96.15 196.57L93.55 197.98L90.84 199.3L88.03 200.51L85.1 201.61L82.06 202.61L78.92 203.48L78.88 203.71L78.85 203.93L78.81 204.15L78.78 204.38L78.74 204.6L78.71 204.82L78.68 205.05L78.64 205.27L78.61 205.49L78.58 205.72L78.54 205.94L78.51 206.16L78.48 206.38L78.45 206.61L78.41 206.83L78.38 207.05L78.35 207.28L78.32 207.5L78.29 207.72L78.26 207.95L78.23 208.17L78.2 208.39L78.17 208.61L78.14 208.84L78.11 209.06L78.08 209.28L78.05 209.51L78.03 209.73L78 209.95L77.97 210.18L77.94 210.4L77.91 210.62L77.89 210.84L77.86 211.07L77.83 211.29L77.81 211.51L77.78 211.74L77.76 211.96L77.73 212.18L77.7 212.4L78.78 211.64L79.87 210.91L80.98 210.21L82.1 209.53L83.24 208.88L84.4 208.26L85.57 207.66L86.75 207.1L87.95 206.56L89.16 206.04L90.38 205.56L91.61 205.1L92.85 204.67L94.11 204.26L95.37 203.89L96.64 203.54L97.92 203.22L99.21 202.92L100.5 202.65L101.8 202.41L103.11 202.2L104.42 202.01L105.73 201.86L107.05 201.72L108.37 201.62L109.69 201.54L111.02 201.49L112.34 201.47L113.67 201.47L114.99 201.5L116.32 201.56L117.64 201.65L118.96 201.76L120.28 201.9L121.59 202.06L122.9 202.26L124.2 202.48L125.5 202.72L126.79 203L128.08 203.3L128.32 203.36L128.55 203.43L128.78 203.5L129.01 203.57L129.24 203.65L129.46 203.74L129.68 203.83L129.89 203.92L130.11 204.02L130.31 204.13L130.52 204.23L130.72 204.34L130.92 204.46L131.11 204.58L131.3 204.7L131.48 204.83L131.67 204.96L131.84 205.1L132.01 205.24L132.18 205.38L132.34 205.53L132.5 205.68L132.66 205.83L132.81 205.98L132.95 206.14L133.09 206.31L133.22 206.47L133.35 206.64L133.48 206.81L133.59 206.99L133.71 207.16L133.81 207.34L133.92 207.53L134.01 207.71L134.1 207.9L134.19 208.09L134.27 208.28L134.34 208.48L134.41 208.67L134.47 208.87L134.78 210.05L135.06 211.23L135.29 212.42L135.49 213.6L135.65 214.79L135.76 215.98L135.84 217.17L135.88 218.36L135.87 219.54L135.83 220.73L135.75 221.91L135.64 223.09L135.48 224.27L135.29 225.44L135.05 226.6L134.78 227.76L134.48 228.91L134.13 230.06L133.75 231.2L133.33 232.33L132.87 233.45L132.38 234.56L131.85 235.66L131.29 236.74L130.69 237.82L130.05 238.88L129.38 239.93L128.67 240.97L127.93 241.99L127.15 243L126.34 243.99L125.49 244.96L124.61 245.92L123.7 246.86L122.75 247.78L121.76 248.68L120.75 249.56L119.7 250.42L118.61 251.26L117.5 252.08L117.63 252.07L117.77 252.06L117.91 252.05L118.04 252.04L118.18 252.03L118.31 252.02L118.45 252.01L118.59 251.99L118.72 251.99L118.86 251.98L119 251.97L119.13 251.96L119.27 251.95L119.41 251.94L119.54 251.93L119.68 251.92L119.82 251.92L119.95 251.91L120.09 251.9L120.23 251.89L120.36 251.89L120.5 251.88L120.64 251.88L120.77 251.87L120.91 251.86L121.05 251.86L121.19 251.85L121.32 251.85L121.46 251.85L121.6 251.84L121.74 251.84L121.87 251.84L122.01 251.83L122.15 251.83L122.29 251.83L122.42 251.83L122.56 251.83L122.7 251.82L122.84 251.82L122.98 251.82L123.22 251.83L123.47 251.83L123.72 251.85L123.96 251.87L124.21 251.89L124.45 251.92L124.69 251.96L124.93 251.99L125.17 252.04L125.41 252.09L125.64 252.14L125.87 252.2L126.1 252.27L126.33 252.34L126.55 252.41L126.78 252.49L127 252.58L127.21 252.66L127.43 252.76L127.64 252.85L127.84 252.96L128.05 253.06L128.25 253.17L128.45 253.29L128.64 253.41L128.83 253.53L129.02 253.66L129.2 253.79L129.38 253.92L129.55 254.06L129.72 254.21L129.89 254.35L130.05 254.5L130.21 254.66L130.36 254.82L130.51 254.98L130.65 255.15L130.79 255.32L130.92 255.49L131.05 255.67L131.74 256.7L132.4 257.74L133.02 258.79L133.61 259.85L134.16 260.93L134.68 262.01L135.16 263.1L135.6 264.2L136 265.3L136.37 266.41L136.71 267.53L137 268.65L137.27 269.78L137.49 270.91L137.68 272.05L137.84 273.18L137.95 274.32L138.04 275.46L138.08 276.61L138.09 277.75L138.07 278.89L138.01 280.03L137.91 281.17L137.78 282.3L137.61 283.43L137.4 284.56L137.16 285.69L136.89 286.81L136.58 287.92L136.23 289.03L135.85 290.13L135.43 291.22L134.98 292.31L134.49 293.38L133.97 294.45L133.41 295.51L132.81 296.56L132.18 297.59L131.52 298.61L130.82 299.62L131.1 299.54L131.38 299.46L131.66 299.39L131.93 299.32L132.21 299.25L132.49 299.19L132.76 299.14L133.03 299.09L133.3 299.04L133.57 299L133.84 298.97L134.11 298.94L134.37 298.92L134.64 298.9L134.9 298.89L135.16 298.88L135.42 298.88L135.68 298.89L135.94 298.9L136.2 298.92L136.45 298.94L136.71 298.98L136.96 299.01L137.21 299.06L137.46 299.11L137.71 299.17L137.96 299.23L138.21 299.3L138.45 299.38L138.7 299.47L138.94 299.56L139.18 299.66L139.42 299.77L139.66 299.88L139.9 300.01L140.14 300.14L140.38 300.28L140.61 300.42L140.84 300.58L141.08 300.74L142.18 301.55L143.25 302.39L144.29 303.25L145.3 304.13L146.28 305.03L147.23 305.95L148.14 306.89L149.03 307.85L149.88 308.83L150.7 309.83L151.49 310.84L152.24 311.87L152.96 312.92L153.65 313.98L154.3 315.06L154.91 316.15L155.49 317.25L156.04 318.37L156.54 319.5L157.02 320.64L157.45 321.79L157.85 322.95L158.21 324.12L158.53 325.3L158.81 326.49L159.05 327.69L159.26 328.9L159.42 330.11L159.55 331.32L159.63 332.55L159.68 333.77L159.68 335L159.64 336.24L159.56 337.48L159.43 338.72L159.27 339.96L159.06 341.2L158.81 342.44L158.51 343.69L158.17 344.93L158.19 344.92L158.21 344.9L158.23 344.89L158.25 344.88L158.27 344.86L158.29 344.85L158.31 344.84L158.34 344.83L158.36 344.81L158.4 344.79L158.42 344.77L158.44 344.76L158.46 344.75L158.48 344.73L158.56 344.68L158.63 344.64L158.65 344.63L158.67 344.62L158.69 344.6L158.71 344.59L158.73 344.58L158.75 344.56L158.77 344.55L158.79 344.54L158.81 344.53L158.83 344.51L158.86 344.5L158.88 344.49L158.9 344.47L158.92 344.46L158.94 344.45L158.96 344.44L158.98 344.42L159 344.41L159.21 344.3L159.42 344.19L159.63 344.08L159.84 343.98L160.06 343.88L160.28 343.79L160.5 343.71L160.72 343.63L160.95 343.55L161.18 343.48L161.41 343.42L161.64 343.35L161.87 343.3L162.1 343.25L162.34 343.2L162.58 343.16L162.81 343.13L163.05 343.1L163.29 343.07L163.53 343.05L163.77 343.04L164.01 343.03L164.25 343.03L164.49 343.03L164.73 343.03L164.97 343.04L165.22 343.06L165.46 343.08L165.7 343.11L165.94 343.14L166.17 343.18L166.41 343.22L166.65 343.27L166.89 343.32L167.12 343.38L167.35 343.44L167.59 343.51L167.82 343.58L168.04 343.66L168.27 343.75L170.8 344.78L173.22 345.91L175.55 347.11L177.78 348.4L179.91 349.76L181.94 351.19L183.87 352.7L185.69 354.26L187.41 355.89L189.03 357.58L190.53 359.31L191.94 361.1L193.23 362.94L194.42 364.82L195.5 366.74L196.46 368.69L197.32 370.68L198.06 372.69L198.7 374.73L199.21 376.79L199.62 378.87L199.91 380.97L200.08 383.07L200.13 385.18L200.07 387.29L199.88 389.4L199.58 391.51L199.16 393.61L198.61 395.69L197.94 397.77L197.15 399.82L196.24 401.85L195.19 403.86L194.03 405.83L192.73 407.77L191.31 409.68L189.76 411.54L188.08 413.36L186.26 415.13L184.32 416.85L184.62 417.05L184.93 417.25L185.23 417.45L185.54 417.64L185.84 417.84L186.15 418.03L186.46 418.23L186.76 418.43L187.07 418.62L187.38 418.82L187.68 419.01L187.99 419.2L188.3 419.4L188.61 419.59L188.92 419.78L189.23 419.98L189.54 420.17L189.84 420.36L190.15 420.55L190.47 420.74L190.78 420.93L191.09 421.12L191.4 421.31L191.71 421.5L192.02 421.69L192.33 421.88L192.65 422.07L192.96 422.26L193.27 422.45L193.59 422.64L193.9 422.82L194.22 423.01L194.53 423.2L194.84 423.38L195.16 423.57L195.48 423.75L195.79 423.94L196.11 424.12L196.42 424.31L196.74 424.49L196.76 423.26L196.82 422.06L196.91 420.89L197.05 419.76L197.21 418.67L197.42 417.61L197.65 416.59L197.93 415.61L198.23 414.66L198.57 413.74L198.93 412.85L199.33 412.01L199.76 411.19L200.22 410.41L200.71 409.66L201.22 408.94L201.76 408.26L202.33 407.6L202.92 406.98L203.54 406.4L204.18 405.84L204.84 405.31L205.53 404.82L206.24 404.35L206.97 403.92L207.72 403.51L208.49 403.14L209.27 402.79L210.08 402.48L210.9 402.19L211.74 401.93L212.59 401.7L213.46 401.5L214.34 401.33L215.24 401.18L216.15 401.06L217.07 400.97L218 400.9L218.94 400.86L219.89 400.85L220.74 400.86L221.56 400.87L222.36 400.91L223.15 400.95L223.93 401.02L224.71 401.1L225.49 401.2L226.28 401.33L227.09 401.47L227.91 401.65L228.76 401.85L229.64 402.07L230.55 402.33L231.5 402.62L232.5 402.94L233.54 403.29L234.64 403.68L235.81 404.1L237.03 404.57L238.33 405.08L239.7 405.62L241.16 406.21L242.7 406.85L244.33 407.53L246.06 408.26L247.89 409.04L249.83 409.87L251.87 410.76L254.04 411.7L256.33 412.69L258.75 413.74L261.3 414.85L263.99 416.02L266.82 417.26L269.8 418.55L272.93 419.92L276.23 421.34L279.68 422.84L283.31 424.41L287.11 426.05L287.45 425.62L287.8 425.19L288.16 424.78L288.54 424.37L288.93 423.97L289.33 423.58L289.74 423.2L290.16 422.82L290.59 422.46L291.03 422.1L291.49 421.75L291.95 421.42L292.42 421.09L292.91 420.77L293.4 420.46L293.91 420.16L294.42 419.87L294.94 419.59L295.47 419.32L296.01 419.06L296.55 418.81L297.11 418.58L297.67 418.35L298.24 418.14L298.82 417.93L299.41 417.74L300 417.56L300.6 417.4L301.2 417.24L301.82 417.1L302.44 416.97L303.06 416.86L303.69 416.75L304.33 416.66L304.97 416.58L305.62 416.52L306.27 416.47L306.92 416.44L307.59 416.41L308.25 416.41L334.46 416.41L335.13 416.41L335.79 416.44L336.45 416.47L337.1 416.52L337.74 416.58L338.39 416.66L339.02 416.75L339.65 416.86L340.28 416.97L340.9 417.1L341.51 417.24L342.12 417.4L342.71 417.56L343.31 417.74L343.89 417.93L344.47 418.14L345.04 418.35L345.6 418.58L346.16 418.81L346.71 419.06L347.25 419.32L347.78 419.59L348.3 419.87L348.81 420.16L349.31 420.46L349.81 420.77L350.29 421.09L350.76 421.42L351.23 421.75L351.68 422.1L352.12 422.46L352.56 422.82L352.98 423.2L353.39 423.58L353.79 423.97L354.17 424.37L354.55 424.78L354.91 425.19L355.26 425.62L355.6 426.05L405.9 404.39L405.98 404.36L406.08 404.32L406.2 404.27L406.35 404.21L406.52 404.14L406.72 404.06L406.94 403.98L407.17 403.89L407.43 403.79L407.71 403.69L408.01 403.58L408.33 403.47L408.67 403.35L409.02 403.23L409.4 403.11L409.79 402.99L410.2 402.86L410.62 402.74L411.06 402.61L411.51 402.49L411.98 402.36L412.46 402.24L412.95 402.11L413.46 401.99L413.98 401.87L414.51 401.76L415.05 401.65L415.6 401.55L416.16 401.45L416.73 401.35L417.31 401.26L417.9 401.18L418.49 401.11L419.09 401.04L419.7 400.99L420.32 400.94L420.94 400.9L421.56 400.87L422.19 400.85L422.82 400.85L423.79 400.86L424.74 400.9L425.68 400.97L426.62 401.07L427.53 401.19L428.44 401.34L429.33 401.52L430.2 401.73L431.06 401.97L431.9 402.23L432.73 402.53L433.53 402.85L434.32 403.2L435.09 403.58L435.84 403.99L436.57 404.43L437.27 404.9L437.96 405.4L438.62 405.92L439.25 406.48L439.87 407.07L440.46 407.69L441.02 408.33L441.55 409.01L442.06 409.72L442.54 410.46L443 411.23L443.42 412.03L443.81 412.86L444.18 413.72L444.51 414.62L444.81 415.54L445.07 416.5L445.31 417.49L445.51 418.51L445.67 419.57L445.8 420.65L445.9 421.77L445.95 422.92L445.97 424.1L446.27 423.92L446.57 423.75L446.87 423.57L447.17 423.4L447.47 423.22L447.76 423.05L448.06 422.87L448.36 422.69L448.66 422.51L448.95 422.34L449.25 422.16L449.55 421.98L449.84 421.8L450.14 421.62L450.43 421.44L450.73 421.26L451.02 421.08L451.32 420.9L451.61 420.72L451.91 420.54L452.2 420.36L452.49 420.18L452.79 420L453.08 419.81L453.37 419.63L453.66 419.45L453.96 419.27L454.25 419.08L454.54 418.9L454.83 418.71L455.12 418.53L455.41 418.35L455.7 418.16L455.99 417.98L456.28 417.79L456.57 417.6L456.86 417.42L457.15 417.23L457.44 417.04L457.73 416.86L455.78 415.13L453.96 413.36L452.28 411.54L450.73 409.67L449.3 407.77L448.01 405.82L446.84 403.85L445.8 401.84L444.88 399.81L444.09 397.75L443.42 395.68L442.87 393.59L442.45 391.49L442.15 389.39L441.97 387.27L441.9 385.16L441.96 383.05L442.13 380.95L442.42 378.86L442.83 376.78L443.35 374.72L443.98 372.68L444.73 370.66L445.58 368.68L446.55 366.72L447.63 364.81L448.82 362.93L450.12 361.09L451.52 359.3L453.03 357.56L454.64 355.88L456.36 354.25L458.19 352.69L460.11 351.19L462.14 349.75L464.27 348.39L466.5 347.11L468.82 345.9L471.25 344.78L473.77 343.75L474.01 343.66L474.25 343.58L474.48 343.5L474.72 343.43L474.96 343.36L475.2 343.3L475.44 343.24L475.68 343.19L475.92 343.15L476.17 343.11L476.41 343.08L476.66 343.05L476.9 343.03L477.15 343.02L477.39 343.01L477.64 343.01L477.89 343.01L478.14 343.02L478.39 343.04L478.64 343.06L478.89 343.09L479.15 343.13L479.4 343.17L479.66 343.22L479.91 343.27L480.17 343.34L480.43 343.41L480.69 343.48L480.95 343.56L481.21 343.65L481.47 343.75L481.73 343.85L482 343.96L482.26 344.08L482.53 344.2L482.79 344.33L483.06 344.47L483.33 344.61L483.6 344.77L483.87 344.93L483.53 343.67L483.23 342.42L482.97 341.17L482.76 339.91L482.59 338.66L482.47 337.42L482.39 336.17L482.35 334.93L482.36 333.69L482.4 332.46L482.49 331.23L482.62 330.01L482.79 328.8L483 327.59L483.25 326.39L483.53 325.2L483.86 324.02L484.22 322.85L484.63 321.68L485.06 320.53L485.54 319.39L486.05 318.27L486.6 317.15L487.18 316.05L487.8 314.96L488.45 313.89L489.14 312.83L489.86 311.79L490.62 310.76L491.4 309.75L492.22 308.76L493.07 307.79L493.95 306.84L494.86 305.9L495.81 304.99L496.78 304.09L497.78 303.22L498.81 302.37L499.87 301.54L500.96 300.74L501.19 300.58L501.43 300.42L501.66 300.28L501.9 300.14L502.13 300.01L502.37 299.89L502.61 299.77L502.85 299.66L503.09 299.56L503.33 299.47L503.58 299.38L503.82 299.3L504.07 299.23L504.32 299.17L504.57 299.11L504.82 299.06L505.07 299.01L505.32 298.98L505.58 298.95L505.83 298.92L506.09 298.9L506.35 298.89L506.61 298.88L506.87 298.88L507.13 298.89L507.39 298.9L507.66 298.92L507.92 298.94L508.19 298.97L508.46 299L508.73 299.04L509 299.09L509.27 299.14L509.55 299.19L509.82 299.25L510.1 299.32L510.38 299.39L510.66 299.46L510.94 299.54L511.22 299.62L510.52 298.61L509.85 297.59L509.22 296.55L508.63 295.51L508.07 294.45L507.55 293.38L507.06 292.31L506.61 291.22L506.19 290.13L505.81 289.02L505.46 287.92L505.15 286.8L504.87 285.68L504.64 284.56L504.43 283.43L504.26 282.3L504.13 281.16L504.03 280.02L503.97 278.88L503.95 277.74L503.96 276.6L504 275.46L504.09 274.32L504.2 273.18L504.36 272.04L504.55 270.91L504.77 269.78L505.04 268.65L505.33 267.53L505.67 266.41L506.04 265.3L506.44 264.19L506.89 263.1L507.36 262.01L507.88 260.92L508.43 259.85L509.02 258.79L509.64 257.74L510.3 256.69L510.99 255.66L511.22 255.35L511.46 255.05L511.7 254.77L511.95 254.51L512.21 254.26L512.47 254.02L512.74 253.8L513.02 253.6L513.31 253.4L513.6 253.22L513.9 253.06L514.2 252.91L514.51 252.76L514.82 252.63L515.14 252.52L515.47 252.41L515.8 252.31L516.14 252.23L516.48 252.15L516.82 252.08L517.17 252.03L517.53 251.98L517.89 251.93L518.25 251.9L518.62 251.87L518.99 251.85L519.37 251.84L519.75 251.83L520.13 251.83L520.52 251.84L520.91 251.85L521.3 251.86L521.7 251.88L522.1 251.9L522.5 251.92L522.9 251.95L523.31 251.98L523.72 252.01L524.13 252.05L524.54 252.08L523.41 251.25L522.32 250.4L521.26 249.53L520.23 248.64L519.24 247.73L518.28 246.8L517.36 245.85L516.48 244.88L515.63 243.9L514.81 242.9L514.03 241.89L513.29 240.86L512.59 239.82L511.91 238.76L511.28 237.7L510.68 236.62L510.12 235.52L509.6 234.42L509.11 233.31L508.66 232.19L508.24 231.06L507.87 229.92L507.53 228.78L507.22 227.63L506.96 226.47L506.73 225.31L506.54 224.14L506.39 222.97L506.28 221.8L506.2 220.62L506.16 219.44L506.17 218.26L506.21 217.08L506.28 215.9L506.4 214.73L506.56 213.55L506.75 212.37L506.99 211.2L507.26 210.03L507.57 208.87L507.63 208.67L507.7 208.48L507.77 208.28L507.85 208.09L507.94 207.9L508.03 207.71L508.12 207.53L508.23 207.34L508.33 207.16L508.45 206.99L508.56 206.81L508.69 206.64L508.82 206.47L508.95 206.3L509.09 206.14L509.23 205.98L509.38 205.83L509.54 205.67L509.7 205.52L509.86 205.38L510.03 205.24L510.2 205.1L510.38 204.96L510.56 204.83L510.74 204.7L510.93 204.58L511.12 204.46L511.32 204.34L511.52 204.23L511.73 204.12L511.93 204.02L512.15 203.92L512.36 203.83L512.58 203.74L512.8 203.65L513.03 203.57L513.26 203.5L513.49 203.42L513.72 203.36L513.96 203.3L515.25 203L516.55 202.72L517.85 202.47L519.16 202.25L520.47 202.06L521.79 201.89L523.11 201.75L524.43 201.64L525.76 201.56L527.09 201.5L528.41 201.47L529.74 201.47L531.07 201.49L532.39 201.54L533.72 201.62L535.04 201.73L536.36 201.86L537.67 202.02L538.98 202.21L540.29 202.42L541.59 202.66L542.88 202.93L544.16 203.23L545.44 203.55L546.71 203.9L547.97 204.28L549.23 204.68L550.47 205.11L551.7 205.57L552.92 206.06L554.12 206.57L555.32 207.11L556.5 207.68L557.67 208.27L558.82 208.89L559.96 209.54L561.08 210.21L562.18 210.92L563.27 211.65L564.34 212.4L564.31 212.18L564.28 211.96L564.26 211.73L564.23 211.51L564.21 211.29L564.18 211.07L564.15 210.84L564.13 210.62L564.1 210.4L564.07 210.17L564.04 209.95L564.01 209.73L563.99 209.5L563.96 209.28L563.93 209.06L563.9 208.84L563.87 208.61L563.84 208.39L563.81 208.17L563.78 207.94L563.75 207.72L563.72 207.5L563.69 207.27L563.66 207.05L563.63 206.83L563.59 206.6L563.56 206.38L563.53 206.16L563.5 205.94L563.47 205.71L563.43 205.49L563.4 205.27L563.36 205.04L563.33 204.82L563.3 204.6L563.26 204.37L563.23 204.15L563.19 203.93L563.16 203.71L563.12 203.48L559.98 202.6L556.94 201.61L554.01 200.51L551.19 199.29L548.49 197.98L545.89 196.56L543.41 195.06L541.04 193.46L538.79 191.78L536.66 190.01L534.65 188.18L532.76 186.27L531 184.29L529.35 182.25L527.83 180.16L526.44 178.01L525.18 175.81L524.05 173.56L523.04 171.28L522.17 168.96L521.44 166.61L520.83 164.24L520.37 161.84L520.04 159.42L519.86 156.99L519.81 154.55L519.9 152.11L520.14 149.67L520.53 147.23L521.06 144.81L521.74 142.39L522.57 140L523.55 137.62L524.68 135.28L525.96 132.97L527.4 130.69L529 128.45L530.76 126.26L532.67 124.12L534.74 122.03L534.91 121.88L535.08 121.73L535.25 121.59L535.43 121.44L535.61 121.31L535.8 121.18L535.98 121.05L536.18 120.93L536.37 120.81L536.57 120.69L536.78 120.58L536.98 120.48L537.19 120.38L537.4 120.28L537.62 120.19L537.83 120.1L538.05 120.02L538.28 119.94L538.5 119.87L538.73 119.8L538.96 119.74L539.19 119.68L539.42 119.63L539.65 119.58L539.89 119.54L540.13 119.5L540.36 119.47L540.6 119.44L540.84 119.42L541.09 119.4L541.33 119.39L541.57 119.38L541.82 119.38L542.06 119.38L542.31 119.39ZM354.96 471.47L354.6 471.88L354.23 472.28L353.85 472.67L353.45 473.06L353.04 473.44L352.62 473.81L352.19 474.17L351.74 474.53L351.29 474.88L350.82 475.22L350.34 475.56L349.85 475.88L349.35 476.2L348.84 476.5L348.32 476.8L347.79 477.08L347.25 477.36L346.7 477.62L346.15 477.88L345.58 478.12L345.01 478.35L344.42 478.57L343.83 478.77L343.24 478.97L342.63 479.15L342.02 479.32L357.68 515.64L358.2 514.63L358.68 513.67L359.14 512.76L359.57 511.9L359.97 511.09L360.35 510.32L360.71 509.6L361.06 508.93L361.39 508.29L361.7 507.69L362.01 507.14L362.31 506.61L362.6 506.13L362.89 505.67L363.18 505.25L363.47 504.86L363.77 504.5L364.07 504.16L364.38 503.85L364.71 503.57L365.04 503.3L365.4 503.06L365.77 502.83L366.16 502.62L366.58 502.43L367.02 502.25L367.49 502.08L367.99 501.93L368.51 501.79L369.01 501.67L369.5 501.58L369.98 501.52L370.46 501.48L370.94 501.47L371.41 501.48L371.89 501.51L372.37 501.58L372.87 501.66L373.37 501.77L373.89 501.9L374.43 502.06L374.98 502.24L375.56 502.45L376.17 502.68L376.8 502.93L377.47 503.21L378.17 503.5L378.91 503.83L379.69 504.17L380.51 504.54L381.38 504.93L382.29 505.34L383.26 505.78L384.28 506.23L385.36 506.71L386.49 507.21L374.17 478.63L355.62 470.65L355.3 471.06L354.96 471.47ZM256.22 507.21L257.44 506.68L258.58 506.17L259.65 505.71L260.64 505.27L261.55 504.86L262.4 504.48L263.19 504.14L263.92 503.82L264.59 503.52L265.2 503.25L265.77 503.01L266.3 502.79L266.78 502.59L267.23 502.41L267.64 502.25L268.02 502.11L268.37 501.99L268.71 501.88L269.02 501.79L269.32 501.72L269.61 501.65L269.89 501.6L270.16 501.56L270.44 501.53L270.72 501.51L271 501.5L271.3 501.49L271.61 501.49L272.16 501.51L272.69 501.56L273.23 501.65L273.76 501.78L274.28 501.94L274.8 502.14L275.32 502.37L275.83 502.64L276.33 502.95L276.84 503.29L277.33 503.67L277.82 504.09L278.31 504.54L278.79 505.03L279.27 505.55L279.74 506.11L280.21 506.7L280.67 507.34L281.13 508L281.58 508.71L282.03 509.45L282.47 510.23L282.91 511.04L283.34 511.89L283.77 512.77L284.2 513.69L284.61 514.65L285.03 515.64L300.69 479.32L300.08 479.15L299.48 478.97L298.88 478.78L298.29 478.57L297.71 478.35L297.13 478.12L296.57 477.88L296.01 477.63L295.46 477.36L294.92 477.09L294.39 476.8L293.87 476.51L293.36 476.2L292.86 475.89L292.37 475.56L291.89 475.23L291.43 474.89L290.97 474.54L290.52 474.18L290.09 473.81L289.67 473.44L289.26 473.06L288.87 472.67L288.48 472.28L288.11 471.88L287.76 471.48L287.42 471.06L287.09 470.65L268.54 478.63L256.22 507.21ZM219.05 416.18L218.67 416.22L218.31 416.29L217.98 416.38L217.67 416.52L217.39 416.69L217.12 416.91L216.88 417.17L216.66 417.49L216.46 417.87L216.27 418.31L216.11 418.82L215.96 419.41L215.82 420.07L215.7 420.82L215.6 421.65L215.51 422.58L215.43 423.6L215.36 424.72L215.31 425.96L215.27 427.3L215.23 428.76L215.21 430.34L215.19 432.05L215.18 433.89L215.17 435.86L215.17 437.98L215.18 440.24L215.19 442.65L215.2 445.22L215.22 447.94L215.23 450.83L215.25 453.89L215.26 457.12L215.28 460.54L215.29 464.13L215.3 467.92L215.31 471.9L215.31 476.07L215.32 476.16L215.34 476.26L215.36 476.36L215.38 476.48L215.4 476.6L215.43 476.73L215.45 476.87L215.49 477.01L215.53 477.16L215.57 477.31L215.61 477.47L215.66 477.63L215.72 477.79L215.77 477.96L215.84 478.13L215.91 478.3L215.98 478.47L216.06 478.64L216.14 478.8L216.24 478.97L216.33 479.14L216.44 479.3L216.55 479.46L216.66 479.61L216.78 479.76L216.91 479.91L217.05 480.05L217.19 480.18L217.35 480.31L217.51 480.42L217.67 480.53L217.85 480.64L218.03 480.73L218.22 480.81L218.42 480.88L218.63 480.94L218.85 480.98L219.08 481.02L219.31 481.04L219.56 481.05L219.88 481.05L220.2 481.04L220.52 481.02L220.84 480.99L221.17 480.96L221.52 480.9L221.89 480.83L222.28 480.74L222.72 480.63L223.19 480.5L223.7 480.34L224.26 480.16L224.88 479.94L225.56 479.69L226.31 479.41L227.13 479.1L228.03 478.74L229.02 478.34L230.09 477.91L231.26 477.42L232.52 476.89L233.9 476.31L235.38 475.68L236.99 475L238.72 474.26L240.57 473.46L242.56 472.61L244.69 471.69L246.97 470.71L249.4 469.66L251.98 468.54L254.73 467.35L257.64 466.09L260.73 464.75L264 463.34L267.46 461.85L271.1 460.27L274.94 458.62L278.98 456.87L283.23 455.04L283.23 441.64L228.2 417.95L228.11 417.91L228.01 417.87L227.9 417.83L227.78 417.78L227.65 417.73L227.51 417.68L227.36 417.63L227.21 417.58L227.05 417.52L226.88 417.46L226.7 417.41L226.52 417.35L226.33 417.29L226.13 417.23L225.93 417.17L225.72 417.11L225.51 417.05L225.29 416.99L225.07 416.93L224.84 416.87L224.61 416.81L224.38 416.75L224.14 416.7L223.9 416.64L223.66 416.59L223.41 416.54L223.17 416.49L222.92 416.45L222.67 416.4L222.41 416.36L222.16 416.32L221.91 416.29L221.65 416.26L221.4 416.23L221.14 416.21L220.89 416.19L220.64 416.17L220.39 416.16L220.14 416.15L219.89 416.15L219.46 416.15L219.05 416.18ZM421.27 416.23L420.25 416.4L419.14 416.64L417.92 416.96L416.58 417.36L415.14 417.84L413.57 418.39L411.87 419.02L410.05 419.73L408.09 420.52L406 421.38L403.76 422.32L401.37 423.34L398.83 424.44L396.13 425.61L393.27 426.86L390.24 428.19L387.04 429.6L383.67 431.09L380.12 432.65L376.38 434.29L372.45 436.01L368.32 437.81L364 439.69L359.47 441.64L359.47 455.05L363.78 456.9L367.87 458.66L371.76 460.34L375.44 461.93L378.93 463.44L382.22 464.86L385.34 466.21L388.27 467.48L391.04 468.67L393.63 469.8L396.07 470.85L398.35 471.83L400.48 472.75L402.47 473.61L404.33 474.41L406.05 475.14L407.64 475.82L409.12 476.45L410.48 477.02L411.74 477.55L412.89 478.02L413.94 478.45L414.91 478.84L415.79 479.19L416.59 479.5L417.32 479.77L417.98 480.01L418.58 480.22L419.13 480.4L419.63 480.55L420.08 480.67L420.49 480.78L420.88 480.86L421.23 480.92L421.57 480.97L421.89 481L422.2 481.03L422.51 481.04L422.83 481.05L423.15 481.05L423.4 481.04L423.64 481.02L423.87 480.98L424.1 480.93L424.31 480.87L424.51 480.8L424.71 480.71L424.89 480.62L425.07 480.51L425.24 480.4L425.4 480.28L425.55 480.14L425.7 480.01L425.83 479.86L425.96 479.71L426.09 479.56L426.2 479.4L426.31 479.24L426.41 479.07L426.51 478.9L426.6 478.73L426.68 478.56L426.76 478.39L426.84 478.22L426.9 478.05L426.96 477.88L427.02 477.71L427.07 477.55L427.12 477.39L427.16 477.24L427.2 477.09L427.24 476.94L427.27 476.81L427.3 476.68L427.32 476.55L427.34 476.44L427.36 476.34L427.38 476.24L427.39 476.16L427.4 476.08L427.4 476.08L427.4 424.06L427.38 422.99L427.34 422L427.27 421.09L427.16 420.25L427.01 419.49L426.81 418.81L426.56 418.21L426.26 417.68L425.89 417.23L425.46 416.85L424.97 416.56L424.39 416.34L423.74 416.19L423 416.13L422.18 416.14L421.27 416.23ZM307.84 431.72L307.44 431.75L307.05 431.8L306.67 431.87L306.29 431.96L305.93 432.06L305.57 432.19L305.23 432.33L304.89 432.49L304.57 432.66L304.27 432.84L303.98 433.05L303.7 433.26L303.44 433.49L303.19 433.73L302.97 433.98L302.76 434.24L302.57 434.52L302.4 434.8L302.25 435.09L302.12 435.4L302.01 435.71L301.92 436.02L301.86 436.34L301.82 436.67L301.81 437.01L301.81 459.68L301.82 460.01L301.86 460.34L301.92 460.66L302.01 460.98L302.12 461.29L302.25 461.59L302.4 461.88L302.57 462.17L302.76 462.44L302.97 462.7L303.19 462.96L303.44 463.2L303.7 463.43L303.98 463.64L304.27 463.84L304.57 464.03L304.89 464.2L305.23 464.36L305.57 464.5L305.93 464.62L306.29 464.73L306.67 464.82L307.05 464.89L307.44 464.94L307.84 464.97L308.25 464.98L334.46 464.98L334.74 464.97L335.01 464.95L335.27 464.91L335.54 464.85L335.8 464.78L336.07 464.7L336.33 464.6L336.59 464.48L336.84 464.34L337.1 464.2L337.35 464.03L337.6 463.85L337.85 463.65L338.1 463.44L338.34 463.21L338.58 462.97L338.82 462.71L339.06 462.44L339.3 462.15L339.53 461.84L339.77 461.52L340 461.18L340.23 460.83L340.45 460.46L340.68 460.08L340.9 459.68L340.9 437.01L340.89 436.67L340.85 436.34L340.79 436.02L340.71 435.7L340.6 435.4L340.47 435.09L340.32 434.8L340.15 434.52L339.96 434.24L339.75 433.98L339.52 433.73L339.27 433.49L339.01 433.26L338.74 433.05L338.45 432.84L338.14 432.66L337.82 432.48L337.49 432.33L337.14 432.19L336.79 432.06L336.42 431.96L336.05 431.87L335.66 431.8L335.27 431.75L334.87 431.72L334.46 431.71L308.25 431.71L307.84 431.72ZM504.74 409.74L502.23 410.15L499.74 410.71L497.3 411.42L494.91 412.27L492.58 413.28L490.31 414.43L488.14 415.73L486.05 417.18L484.06 418.79L485.71 420.63L487.49 422.34L489.39 423.92L491.4 425.36L493.5 426.66L495.7 427.82L497.97 428.84L500.32 429.72L502.72 430.47L505.17 431.07L507.66 431.52L510.18 431.84L512.72 432.01L515.27 432.04L517.82 431.92L520.36 431.66L522.88 431.25L525.36 430.69L527.81 429.98L530.21 429.13L532.54 428.12L534.81 426.97L536.99 425.66L539.08 424.2L541.08 422.59L539.42 420.74L537.64 419.03L535.74 417.46L533.73 416.02L531.62 414.72L529.42 413.56L527.14 412.54L524.8 411.66L522.39 410.92L519.94 410.32L517.44 409.86L514.92 409.55L512.38 409.38L509.83 409.36L507.28 409.48L504.74 409.74ZM127.14 409.55L124.62 409.86L122.12 410.31L119.67 410.91L117.26 411.65L114.91 412.53L112.64 413.55L110.43 414.71L108.32 416.01L106.31 417.45L104.4 419.02L102.62 420.74L100.96 422.59L102.94 424.19L105.02 425.64L107.19 426.94L109.45 428.09L111.77 429.09L114.16 429.95L116.6 430.66L119.09 431.22L121.6 431.63L124.14 431.9L126.68 432.02L129.23 432L131.78 431.84L134.3 431.53L136.79 431.08L139.25 430.48L141.66 429.74L144.01 428.87L146.29 427.85L148.49 426.68L150.61 425.38L152.62 423.94L154.53 422.36L156.32 420.65L157.98 418.79L155.99 417.19L153.91 415.74L151.73 414.43L149.48 413.28L147.15 412.28L144.76 411.43L142.31 410.72L139.83 410.16L137.31 409.75L134.78 409.48L132.23 409.36L129.68 409.38L127.14 409.55ZM471.85 363.11L469.73 364.92L467.82 366.83L466.13 368.85L464.66 370.95L463.4 373.13L462.37 375.38L461.56 377.68L460.97 380.01L460.61 382.38L460.47 384.76L460.56 387.15L460.88 389.53L461.43 391.88L462.2 394.21L463.21 396.49L464.45 398.72L465.93 400.88L467.64 402.95L469.59 404.94L471.78 406.82L474.34 405.27L476.68 403.59L478.8 401.78L480.71 399.86L482.4 397.84L483.87 395.73L485.13 393.54L486.15 391.3L486.96 389L487.54 386.66L487.9 384.29L488.03 381.91L487.94 379.53L487.62 377.15L487.07 374.8L486.29 372.47L485.28 370.19L484.04 367.97L482.56 365.82L480.86 363.75L478.91 361.77L476.73 359.89L474.18 361.43L471.85 363.11ZM161.17 363.76L159.46 365.84L157.99 367.99L156.74 370.22L155.73 372.5L154.96 374.83L154.41 377.18L154.09 379.56L154 381.95L154.14 384.33L154.5 386.7L155.09 389.03L155.9 391.33L156.93 393.57L158.19 395.76L159.66 397.86L161.35 399.88L163.25 401.79L165.37 403.6L167.71 405.28L170.26 406.82L172.45 404.94L174.4 402.95L176.11 400.87L177.59 398.71L178.83 396.49L179.84 394.21L180.62 391.88L181.16 389.52L181.48 387.14L181.57 384.76L181.43 382.38L181.07 380.01L180.48 377.67L179.67 375.38L178.63 373.13L177.38 370.95L175.91 368.85L174.22 366.83L172.31 364.92L170.19 363.11L167.85 361.43L165.31 359.89L163.12 361.77L161.17 363.76ZM505.72 373.59L506.01 375.02L506.24 376.47L507.02 375.63L507.8 374.79L508.57 373.95L509.33 373.11L508.21 372.55L507.12 371.97L506.04 371.37L504.97 370.74L505.37 372.16L505.72 373.59ZM134.92 371.97L133.82 372.55L132.7 373.11L133.47 373.95L134.24 374.79L135.02 375.63L135.8 376.47L136.03 375.02L136.32 373.58L136.66 372.16L137.06 370.74L136 371.37L134.92 371.97ZM562.71 353.6L560.18 353.96L557.68 354.46L555.22 355.11L552.83 355.9L550.51 356.83L548.26 357.91L546.11 359.12L544.06 360.46L542.12 361.94L540.3 363.55L538.61 365.29L537.07 367.16L535.68 369.14L537.91 370.54L540.21 371.77L542.59 372.84L545.03 373.74L547.52 374.49L550.05 375.07L552.6 375.5L555.18 375.77L557.76 375.88L560.34 375.84L562.9 375.65L565.44 375.31L567.94 374.82L570.4 374.18L572.8 373.4L575.14 372.47L577.39 371.41L579.56 370.2L581.62 368.85L583.58 367.36L585.42 365.74L587.12 363.99L588.68 362.1L590.09 360.08L587.84 358.67L585.5 357.42L583.1 356.35L580.64 355.44L578.14 354.7L575.6 354.12L573.03 353.7L570.45 353.44L567.86 353.34L565.28 353.4L562.71 353.6ZM68.96 353.71L66.4 354.13L63.86 354.71L61.36 355.46L58.91 356.36L56.51 357.43L54.19 358.67L51.95 360.08L53.36 362.1L54.92 363.99L56.63 365.75L58.46 367.37L60.42 368.85L62.49 370.2L64.66 371.41L66.91 372.48L69.25 373.4L71.65 374.18L74.1 374.82L76.61 375.31L79.15 375.65L81.71 375.84L84.29 375.88L86.87 375.76L89.44 375.49L92 375.07L94.53 374.49L97.01 373.74L99.45 372.84L101.83 371.77L104.13 370.54L106.36 369.14L104.96 367.15L103.41 365.27L101.72 363.53L99.9 361.92L97.95 360.44L95.89 359.09L93.73 357.88L91.49 356.81L89.16 355.88L86.76 355.09L84.31 354.44L81.81 353.95L79.27 353.59L76.7 353.39L74.12 353.35L71.54 353.45L68.96 353.71ZM127.69 318.31L125.42 319.88L123.34 321.57L121.47 323.38L119.79 325.29L118.32 327.29L117.05 329.37L115.98 331.52L115.13 333.72L114.49 335.97L114.07 338.26L113.86 340.56L113.87 342.88L114.1 345.2L114.56 347.5L115.24 349.79L116.15 352.03L117.3 354.24L118.68 356.38L120.29 358.46L122.14 360.45L124.78 359.17L127.24 357.75L129.5 356.18L131.58 354.49L133.45 352.69L135.13 350.78L136.61 348.79L137.88 346.71L138.95 344.56L139.8 342.36L140.45 340.11L140.88 337.83L141.09 335.52L141.09 333.2L140.86 330.88L140.41 328.58L139.72 326.29L138.81 324.04L137.67 321.83L136.29 319.68L134.67 317.6L132.81 315.59L130.15 316.88L127.69 318.31ZM505.75 319.68L504.37 321.84L503.22 324.04L502.31 326.3L501.63 328.58L501.18 330.89L500.95 333.21L500.94 335.53L501.16 337.84L501.59 340.12L502.24 342.37L503.1 344.57L504.16 346.72L505.44 348.79L506.91 350.79L508.59 352.69L510.47 354.5L512.54 356.19L514.8 357.75L517.26 359.17L519.9 360.45L521.74 358.47L523.35 356.4L524.73 354.26L525.87 352.07L526.78 349.82L527.46 347.55L527.92 345.24L528.16 342.93L528.17 340.61L527.97 338.3L527.55 336.02L526.91 333.77L526.06 331.56L525 329.41L523.74 327.32L522.27 325.32L520.59 323.4L518.71 321.59L516.64 319.89L514.36 318.32L511.89 316.88L509.23 315.59L507.37 317.6L505.75 319.68ZM99.86 319.47L98.27 319.83L96.66 320.16L97.26 321.38L97.87 322.61L98.49 323.84L99.12 325.06L99.98 323.4L100.91 321.77L101.92 320.18L103 318.62L101.44 319.07L99.86 319.47ZM541.13 321.77L542.06 323.4L542.92 325.06L543.55 323.84L544.17 322.61L544.78 321.38L545.38 320.15L543.77 319.83L542.18 319.47L540.6 319.07L539.03 318.62L540.12 320.18L541.13 321.77ZM599.55 285.73L597.27 286.03L595.03 286.46L592.84 287.01L590.69 287.67L588.61 288.45L586.59 289.35L584.64 290.35L582.77 291.46L580.99 292.68L579.31 294L577.73 295.42L576.26 296.94L574.9 298.55L573.67 300.26L572.57 302.05L572.42 302.49L572.26 302.94L572.09 303.39L571.93 303.85L571.76 304.32L571.59 304.78L571.42 305.24L571.25 305.7L571.09 306.14L570.93 306.57L570.77 306.98L570.63 307.38L570.49 307.75L570.36 308.09L570.24 308.41L570.13 308.69L570.03 308.94L569.95 309.15L569.89 309.32L569.84 309.45L569.81 309.53L569.8 309.55L570.32 309.71L570.85 309.86L571.38 310L571.91 310.13L572.44 310.26L572.98 310.38L573.52 310.49L574.06 310.59L574.6 310.69L575.15 310.78L575.69 310.87L576.24 310.94L576.79 311.01L577.34 311.07L577.89 311.13L578.45 311.18L579 311.22L579.56 311.25L580.11 311.28L580.67 311.3L581.23 311.31L581.79 311.31L581.68 311.31L581.7 311.32L581.84 311.33L582.1 311.34L582.46 311.34L582.92 311.33L583.48 311.31L584.13 311.27L584.86 311.22L585.67 311.14L586.55 311.04L587.49 310.92L588.5 310.76L589.56 310.56L590.66 310.33L591.81 310.06L593 309.74L594.21 309.38L595.45 308.96L596.7 308.5L597.97 307.97L599.25 307.38L600.45 306.77L601.62 306.13L602.75 305.44L603.84 304.72L604.89 303.97L605.9 303.19L606.87 302.37L607.8 301.52L608.68 300.65L609.52 299.75L610.32 298.82L611.07 297.87L611.78 296.89L612.43 295.89L613.04 294.87L613.6 293.83L614.11 292.77L614.57 291.7L614.98 290.61L615.33 289.5L615.63 288.38L615.88 287.25L613.55 286.63L611.21 286.14L608.87 285.79L606.52 285.58L604.18 285.5L601.85 285.55L599.55 285.73ZM31.64 286L28.89 286.53L26.16 287.25L26.74 289.61L27.53 291.89L28.54 294.06L29.74 296.14L31.13 298.11L32.7 299.97L34.43 301.7L36.3 303.32L38.32 304.8L40.47 306.15L42.74 307.35L45.12 308.41L47.58 309.31L50.14 310.06L52.76 310.64L55.45 311.04L58.19 311.27L60.97 311.32L63.77 311.18L66.59 310.84L69.42 310.3L72.24 309.55L71.61 307.11L70.77 304.76L69.72 302.54L68.47 300.42L67.04 298.43L65.44 296.57L63.68 294.83L61.77 293.23L59.73 291.76L57.56 290.44L55.27 289.27L52.89 288.24L50.42 287.37L47.87 286.66L45.26 286.12L42.6 285.74L39.89 285.54L37.15 285.51L34.4 285.66L31.64 286ZM111.44 268.75L108.68 269.65L106.07 270.74L103.6 271.98L101.29 273.39L99.14 274.93L97.16 276.61L95.36 278.42L93.75 280.33L92.33 282.34L91.12 284.44L90.11 286.62L89.32 288.87L88.76 291.18L88.43 293.53L88.34 295.91L88.5 298.32L88.92 300.74L89.6 303.17L90.55 305.58L93.56 305.06L96.45 304.35L99.2 303.44L101.82 302.36L104.29 301.11L106.6 299.7L108.75 298.16L110.73 296.48L112.52 294.68L114.14 292.76L115.55 290.75L116.77 288.65L117.78 286.47L118.56 284.22L119.13 281.92L119.46 279.56L119.55 277.18L119.39 274.77L118.97 272.35L118.29 269.92L117.34 267.5L114.33 268.03L111.44 268.75ZM523.07 272.34L522.65 274.76L522.49 277.17L522.58 279.55L522.91 281.9L523.47 284.2L524.26 286.45L525.26 288.63L526.47 290.74L527.89 292.75L529.5 294.66L531.3 296.47L533.27 298.15L535.42 299.7L537.73 301.1L540.2 302.35L542.82 303.43L545.58 304.34L548.47 305.06L551.49 305.58L552.44 303.17L553.12 300.74L553.54 298.32L553.7 295.91L553.61 293.52L553.28 291.17L552.72 288.87L551.93 286.62L550.92 284.44L549.71 282.34L548.29 280.32L546.67 278.41L544.88 276.61L542.9 274.93L540.75 273.38L538.44 271.98L535.97 270.73L533.35 269.65L530.6 268.74L527.71 268.02L524.7 267.5L523.75 269.91L523.07 272.34ZM84.13 262.72L82.25 262.73L80.41 262.68L78.58 262.59L78.81 264.07L79.05 265.56L79.3 267.04L79.56 268.53L79.84 270.01L81.34 268.37L82.93 266.8L84.6 265.3L86.35 263.86L88.18 262.5L86.1 262.64L84.13 262.72ZM557.44 265.3L559.11 266.8L560.7 268.37L562.2 270.01L562.48 268.53L562.74 267.04L562.99 265.56L563.23 264.07L563.46 262.59L561.64 262.68L559.8 262.73L557.91 262.72L555.94 262.64L553.86 262.5L555.69 263.86L557.44 265.3ZM524.81 217L524.73 219.4L524.89 221.76L525.28 224.07L525.89 226.31L526.71 228.48L527.73 230.58L528.94 232.59L530.34 234.51L531.9 236.33L533.63 238.04L535.51 239.63L537.54 241.1L539.7 242.43L541.99 243.63L544.39 244.68L546.9 245.57L549.51 246.3L552.21 246.85L554.98 247.23L557.83 247.42L560.73 247.41L563.68 247.2L563.76 244.8L563.6 242.44L563.21 240.14L562.6 237.9L561.78 235.72L560.76 233.63L559.55 231.62L558.16 229.7L556.6 227.88L554.87 226.17L552.99 224.58L550.97 223.11L548.8 221.77L546.52 220.58L544.11 219.53L541.6 218.64L539 217.91L536.3 217.35L533.52 216.97L530.68 216.78L527.77 216.79L524.81 217ZM105.77 217.35L103.08 217.91L100.47 218.63L97.96 219.52L95.56 220.57L93.27 221.76L91.11 223.09L89.08 224.56L87.2 226.15L85.47 227.86L83.9 229.67L82.5 231.59L81.29 233.6L80.27 235.7L79.44 237.88L78.83 240.12L78.44 242.43L78.28 244.79L78.36 247.2L81.31 247.41L84.21 247.42L87.05 247.23L89.82 246.85L92.52 246.3L95.12 245.57L97.63 244.68L100.04 243.63L102.32 242.44L104.49 241.1L106.51 239.64L108.4 238.04L110.13 236.34L111.7 234.52L113.09 232.6L114.3 230.59L115.32 228.49L116.14 226.32L116.76 224.07L117.15 221.77L117.31 219.4L117.23 217L114.28 216.79L111.39 216.78L108.55 216.97L105.77 217.35ZM612.33 214.68L610.17 214.97L608.05 215.36L605.99 215.87L603.98 216.47L602.03 217.17L600.14 217.97L598.32 218.86L596.58 219.84L594.91 220.9L593.32 222.05L591.83 223.27L590.42 224.57L589.11 225.94L587.9 227.38L586.79 228.89L585.8 230.46L584.92 232.08L584.16 233.76L584.16 234.38L584.15 235L584.15 235.62L584.15 236.24L584.14 236.86L584.13 237.48L584.12 238.09L584.11 238.71L584.1 239.33L584.08 239.95L584.06 240.57L584.04 241.18L584.02 241.8L584 242.42L583.97 243.03L583.94 243.65L583.92 244.27L583.88 244.88L583.85 245.5L583.82 246.12L583.78 246.73L586.86 246.7L589.85 246.45L592.75 246.01L595.54 245.37L598.23 244.55L600.79 243.56L603.23 242.4L605.53 241.09L607.68 239.64L609.68 238.05L611.52 236.34L613.19 234.52L614.67 232.58L615.97 230.56L617.07 228.45L617.97 226.26L618.64 224L619.1 221.69L619.33 219.33L619.31 216.93L619.04 214.5L616.77 214.44L614.53 214.5L612.33 214.68ZM22.73 216.94L22.71 219.35L22.94 221.72L23.4 224.04L24.08 226.3L24.98 228.49L26.09 230.6L27.39 232.63L28.89 234.56L30.56 236.38L32.4 238.09L34.4 239.67L36.56 241.12L38.86 242.42L41.3 243.57L43.86 244.56L46.54 245.38L49.33 246.01L52.22 246.45L55.2 246.7L58.26 246.73L58.22 246.11L58.19 245.5L58.15 244.88L58.12 244.27L58.09 243.65L58.07 243.03L58.04 242.42L58.02 241.8L58 241.18L57.98 240.57L57.96 239.95L57.94 239.33L57.93 238.71L57.92 238.1L57.91 237.48L57.9 236.86L57.89 236.24L57.89 235.62L57.88 235.01L57.88 234.39L57.88 233.77L57.13 232.1L56.26 230.49L55.27 228.93L54.17 227.43L52.97 225.99L51.66 224.62L50.26 223.32L48.77 222.1L47.19 220.95L45.53 219.88L43.79 218.9L41.97 218L40.08 217.2L38.13 216.49L36.12 215.88L34.05 215.38L31.92 214.97L29.75 214.68L27.54 214.5L25.28 214.44L22.99 214.5L22.73 216.94ZM90.9 137.64L88.26 138.82L85.75 140.13L83.39 141.56L81.18 143.12L79.11 144.78L77.2 146.54L75.44 148.39L73.84 150.33L72.4 152.34L71.14 154.42L70.04 156.57L69.11 158.77L68.36 161.01L67.78 163.3L67.39 165.61L67.19 167.94L67.17 170.29L67.35 172.65L67.72 175.01L68.29 177.35L69.06 179.68L70.04 181.99L71.22 184.27L72.62 186.5L74.23 188.69L75.62 188.29L76.98 187.85L78.32 187.37L79.64 186.86L80.94 186.31L82.21 185.73L83.45 185.12L84.67 184.47L85.85 183.78L87.01 183.07L88.14 182.33L89.24 181.55L90.31 180.75L91.34 179.91L92.34 179.05L93.3 178.16L94.23 177.24L95.12 176.3L95.97 175.33L96.79 174.34L97.56 173.32L98.29 172.28L98.98 171.21L99.63 170.13L100.23 169.02L100.79 167.89L101.3 166.75L101.76 165.58L102.18 164.41L102.54 163.24L102.85 162.06L103.11 160.87L103.32 159.68L103.48 158.49L103.59 157.29L103.65 156.09L103.66 154.9L103.62 153.71L103.54 152.52L103.41 151.33L103.22 150.15L102.99 148.97L102.72 147.8L102.39 146.64L102.02 145.49L101.6 144.35L101.14 143.22L100.63 142.1L100.07 140.99L99.47 139.9L98.82 138.83L98.12 137.77L97.38 136.73L96.6 135.71L93.69 136.6L90.9 137.64ZM542.43 140.13L541.24 142.41L540.26 144.72L539.49 147.05L538.92 149.4L538.55 151.75L538.38 154.11L538.39 156.46L538.6 158.8L538.99 161.11L539.56 163.4L540.32 165.64L541.25 167.84L542.35 169.98L543.62 172.07L545.05 174.08L546.65 176.02L548.41 177.87L550.32 179.63L552.39 181.29L554.61 182.84L556.97 184.27L559.47 185.58L562.11 186.76L564.89 187.8L567.81 188.69L569.42 186.5L570.82 184.26L572.01 181.98L572.98 179.68L573.75 177.34L574.32 175L574.7 172.64L574.87 170.28L574.85 167.93L574.65 165.6L574.26 163.28L573.68 161L572.93 158.76L572 156.56L570.9 154.41L569.63 152.33L568.19 150.32L566.59 148.38L564.83 146.53L562.92 144.77L560.85 143.11L558.64 141.56L556.28 140.13L553.77 138.82L551.13 137.64L548.35 136.6L545.44 135.71L543.83 137.9L542.43 140.13Z" id="a5WRmxWFlt"></path><path d="M298.7 313.32L299.2 313.38L299.7 313.46L300.19 313.57L300.67 313.71L301.15 313.87L301.61 314.06L302.07 314.27L302.51 314.5L302.95 314.76L303.36 315.04L303.77 315.34L304.15 315.66L304.52 316L304.88 316.37L305.21 316.75L305.52 317.15L305.81 317.57L306.08 318.01L306.33 318.46L306.55 318.94L306.74 319.42L306.91 319.93L307.05 320.45L307.16 320.98L307.24 321.53L307.29 322.1L307.3 322.67L307.3 370.16L307.3 370.55L307.27 370.93L307.23 371.31L307.18 371.68L307.11 372.05L307.03 372.41L306.93 372.77L306.83 373.12L306.7 373.47L306.57 373.81L306.42 374.14L306.26 374.47L306.08 374.79L305.9 375.1L305.7 375.4L305.49 375.7L305.28 375.98L305.05 376.26L304.81 376.53L304.56 376.79L304.3 377.04L304.03 377.28L303.75 377.51L303.46 377.73L303.17 377.94L302.87 378.13L302.55 378.32L302.24 378.49L301.91 378.65L301.58 378.8L301.24 378.94L300.89 379.06L300.54 379.17L300.18 379.27L299.82 379.35L299.45 379.42L299.07 379.47L298.7 379.51L298.31 379.53L297.93 379.54L297.63 379.53L297.26 379.51L296.83 379.46L296.34 379.41L295.78 379.33L295.17 379.24L294.5 379.12L293.77 378.99L292.99 378.84L292.16 378.67L291.27 378.47L290.34 378.26L289.36 378.03L288.34 377.77L287.28 377.49L286.17 377.19L285.02 376.87L283.84 376.52L282.62 376.15L281.37 375.75L280.08 375.33L278.77 374.89L277.42 374.41L276.05 373.92L274.65 373.39L273.23 372.84L271.79 372.26L270.33 371.65L268.85 371.02L267.36 370.35L265.85 369.66L264.33 368.93L262.8 368.18L261.25 367.39L259.71 366.58L258.15 365.73L256.6 364.85L255.04 363.94L253.48 362.99L251.92 362.02L251.52 361.75L251.14 361.46L250.78 361.16L250.44 360.84L250.11 360.51L249.81 360.17L249.52 359.82L249.26 359.46L249.01 359.08L248.79 358.7L248.58 358.31L248.4 357.91L248.23 357.5L248.08 357.09L247.95 356.67L247.85 356.24L247.76 355.82L247.69 355.39L247.64 354.95L247.61 354.52L247.61 354.08L247.62 353.65L247.65 353.21L247.7 352.78L247.77 352.35L247.86 351.92L247.97 351.49L248.11 351.07L248.26 350.66L248.43 350.25L248.62 349.85L248.83 349.46L249.07 349.07L249.32 348.7L249.59 348.33L249.89 347.98L250.2 347.63L250.54 347.3L250.89 346.98L251.27 346.68L292.22 315.23L292.68 314.9L293.16 314.59L293.64 314.32L294.14 314.08L294.63 313.88L295.14 313.7L295.64 313.56L296.15 313.45L296.66 313.36L297.17 313.31L297.68 313.28L298.19 313.29L298.7 313.32ZM275.03 353.29L276.12 353.76L277.32 354.25L278.61 354.77L280.01 355.31L281.52 355.87L283.12 356.45L284.83 357.06L286.64 357.68L288.55 358.33L288.55 341.69L274.04 352.84L275.03 353.29Z" id="e3e2gxhcYO"></path><path d="M297.99 137.54L298.28 137.58L298.56 137.64L298.84 137.71L299.12 137.79L299.4 137.89L299.69 138L299.97 138.12L300.25 138.26L300.52 138.41L300.8 138.58L301.08 138.76L301.36 138.96L301.63 139.17L301.91 139.39L302.19 139.63L302.46 139.88L302.73 140.15L303.01 140.43L303.28 140.72L303.55 141.03L303.83 141.35L304.1 141.69L304.37 142.04L304.64 142.4L304.91 142.78L305.18 143.18L305.44 143.58L305.71 144L305.98 144.44L306.24 144.89L306.51 145.35L306.78 145.83L307.04 146.32L307.3 146.83L307.31 272.17L307.3 272.39L307.3 272.61L307.28 272.82L307.27 273.04L307.24 273.26L307.22 273.47L307.18 273.68L307.15 273.89L307.1 274.1L307.06 274.31L307.01 274.52L306.95 274.73L306.89 274.93L306.83 275.14L306.76 275.34L306.68 275.54L306.6 275.73L306.52 275.93L306.43 276.13L306.34 276.32L306.24 276.51L306.14 276.69L306.04 276.88L305.93 277.06L305.82 277.24L305.7 277.42L305.58 277.6L305.45 277.77L305.32 277.94L305.19 278.11L305.05 278.27L304.91 278.43L304.76 278.59L304.61 278.75L304.46 278.9L304.31 279.05L304.14 279.19L303.98 279.34L303.81 279.47L303.64 279.61L232.89 333.94L232.58 334.17L232.26 334.39L231.93 334.59L231.6 334.78L231.27 334.95L230.92 335.11L230.58 335.25L230.23 335.38L229.88 335.49L229.52 335.59L229.16 335.67L228.8 335.74L228.44 335.8L228.08 335.84L227.72 335.87L227.36 335.88L226.99 335.88L226.63 335.87L226.27 335.84L225.91 335.8L225.55 335.74L225.19 335.67L224.84 335.59L224.49 335.49L224.15 335.38L223.8 335.25L223.47 335.12L223.13 334.97L222.81 334.8L222.49 334.62L222.17 334.43L221.86 334.23L221.56 334.01L221.27 333.78L220.98 333.54L220.7 333.29L220.43 333.02L220.18 332.74L219.93 332.44L219.69 332.14L215.78 326.64L212.22 321.02L209.01 315.31L206.15 309.5L203.62 303.62L201.43 297.66L199.57 291.66L198.04 285.6L196.83 279.52L195.94 273.41L195.36 267.3L195.1 261.19L195.13 255.09L195.48 249.01L196.11 242.98L197.04 236.99L198.26 231.05L199.77 225.2L201.55 219.42L203.61 213.74L205.95 208.16L208.55 202.7L211.41 197.37L214.53 192.18L217.91 187.14L221.54 182.26L225.41 177.56L229.53 173.05L233.88 168.73L238.47 164.62L243.29 160.74L248.33 157.08L253.6 153.67L259.08 150.52L264.77 147.63L270.67 145.02L276.78 142.7L283.08 140.68L289.58 138.98L296.28 137.6L296.56 137.55L296.85 137.52L297.14 137.51L297.42 137.5L297.71 137.52L297.99 137.54ZM278.88 161.99L274.27 163.97L269.8 166.14L265.49 168.5L261.33 171.04L257.32 173.76L253.48 176.64L249.8 179.68L246.28 182.87L242.93 186.21L239.75 189.68L236.73 193.28L233.9 197.01L231.24 200.85L228.75 204.8L226.45 208.85L224.34 212.99L222.41 217.22L220.67 221.53L219.12 225.91L217.76 230.35L216.6 234.85L215.64 239.41L214.88 244L214.33 248.63L213.98 253.28L213.83 257.96L213.9 262.65L214.19 267.35L214.69 272.04L215.41 276.73L216.35 281.4L217.51 286.05L218.9 290.66L220.52 295.24L222.37 299.78L224.45 304.26L226.77 308.68L229.32 313.04L288.55 267.55L288.55 158.65L283.64 160.21L278.88 161.99Z" id="a4geEwNtB5"></path><path d="M460.65 278.9C451.63 342.26 401.47 392.15 338.5 401.17C333.37 401.91 329.82 406.66 330.55 411.78C331.28 416.89 336.01 420.47 341.16 419.73C413.89 409.31 469.25 351.57 479.21 281.54C479.94 276.41 476.38 271.67 471.25 270.94C466.13 270.21 461.38 273.77 460.65 278.9Z" id="c2tQO82mUu"></path><path d="M317.95 95.6C228.13 95.6 155.05 168.67 155.05 258.5C155.05 341.28 216.56 408.52 294.74 419.73C299.87 420.47 304.62 416.91 305.35 411.78C306.09 406.66 302.53 401.91 297.4 401.17C228.67 391.32 173.81 332.12 173.81 258.49C173.81 179.01 238.47 114.35 317.95 114.35C389.12 114.35 450.45 167.42 460.61 237.8C461.35 242.93 466.09 246.48 471.23 245.74C476.35 245 479.91 240.25 479.17 235.12C467.76 156.08 399.57 95.6 317.95 95.6Z" id="e3P1erDYFz"></path><path d="M338.77 137.48L339.2 137.53L339.63 137.6L346.32 138.98L352.83 140.68L359.13 142.7L365.24 145.02L371.14 147.63L376.83 150.52L382.31 153.67L387.58 157.08L392.62 160.74L397.44 164.62L402.03 168.73L406.38 173.05L410.5 177.56L414.37 182.26L418 187.14L421.38 192.18L424.5 197.37L427.36 202.7L429.96 208.16L432.3 213.73L434.36 219.42L436.14 225.19L437.65 231.05L438.87 236.98L439.8 242.97L440.43 249.01L440.77 255.08L440.81 261.18L440.55 267.3L439.97 273.41L439.08 279.52L437.87 285.6L436.34 291.65L434.48 297.66L432.29 303.61L429.76 309.5L426.9 315.3L423.69 321.02L420.13 326.63L416.22 332.14L416.09 332.31L415.95 332.48L415.81 332.65L415.67 332.81L415.52 332.97L415.37 333.12L415.21 333.28L415.05 333.42L414.89 333.57L414.73 333.71L414.56 333.84L414.39 333.98L414.22 334.11L414.04 334.23L413.86 334.35L413.68 334.47L413.5 334.58L413.31 334.68L413.12 334.79L412.93 334.89L412.74 334.98L412.54 335.07L412.34 335.16L412.14 335.24L411.94 335.31L411.74 335.39L411.53 335.45L411.32 335.52L411.12 335.57L410.9 335.63L410.69 335.67L410.48 335.72L410.26 335.76L410.05 335.79L409.83 335.82L409.61 335.84L409.39 335.86L409.17 335.87L408.95 335.88L408.73 335.88L408.41 335.89L408.12 335.89L407.84 335.9L407.58 335.9L407.31 335.88L407.04 335.84L406.75 335.78L406.43 335.68L406.08 335.55L405.69 335.37L405.25 335.15L404.75 334.86L404.18 334.51L403.53 334.1L402.81 333.61L401.98 333.04L401.06 332.38L400.03 331.63L398.87 330.79L397.59 329.84L396.18 328.77L394.62 327.6L392.91 326.29L391.04 324.86L389 323.3L386.78 321.6L384.37 319.75L381.77 317.74L378.96 315.58L375.95 313.25L372.71 310.76L369.25 308.08L365.54 305.22L361.6 302.18L357.39 298.94L352.93 295.5L348.19 291.85L343.17 287.99L337.87 283.91L332.27 279.61L332.1 279.47L331.93 279.34L331.76 279.19L331.6 279.05L331.45 278.9L331.29 278.75L331.14 278.59L331 278.43L330.86 278.27L330.72 278.11L330.59 277.94L330.46 277.77L330.33 277.6L330.21 277.42L330.09 277.24L329.98 277.06L329.87 276.88L329.76 276.69L329.66 276.51L329.57 276.32L329.48 276.13L329.39 275.93L329.31 275.73L329.23 275.54L329.15 275.34L329.08 275.14L329.02 274.93L328.96 274.73L328.9 274.52L328.85 274.31L328.8 274.1L328.76 273.89L328.72 273.68L328.69 273.47L328.66 273.26L328.64 273.04L328.62 272.82L328.61 272.61L328.6 272.39L328.6 272.17L328.6 146.83L328.61 146.39L328.64 145.96L328.69 145.54L328.76 145.12L328.84 144.71L328.94 144.31L329.06 143.92L329.2 143.53L329.35 143.15L329.52 142.78L329.7 142.42L329.9 142.07L330.11 141.73L330.34 141.4L330.57 141.07L330.83 140.76L331.09 140.47L331.37 140.18L331.66 139.9L331.96 139.64L332.27 139.39L332.59 139.16L332.92 138.93L333.26 138.72L333.61 138.53L333.97 138.35L334.34 138.19L334.71 138.04L335.09 137.9L335.48 137.79L335.87 137.69L336.27 137.6L336.68 137.54L337.09 137.49L337.51 137.46L337.92 137.45L338.35 137.46L338.77 137.48ZM406.59 313.04L409.14 308.69L411.45 304.27L413.54 299.79L415.38 295.26L417 290.68L418.39 286.07L419.55 281.42L420.49 276.76L421.21 272.07L421.71 267.38L422 262.68L422.07 258L421.93 253.32L421.58 248.66L421.03 244.04L420.27 239.44L419.31 234.89L418.16 230.39L416.8 225.95L415.26 221.57L413.52 217.26L411.59 213.03L409.48 208.88L407.18 204.83L404.7 200.88L402.04 197.04L399.2 193.31L396.19 189.71L393.01 186.23L389.66 182.89L386.14 179.7L382.46 176.66L378.61 173.77L374.6 171.05L370.44 168.51L366.12 166.15L361.66 163.97L357.04 161.99L352.27 160.22L347.36 158.65L347.36 267.55L406.59 313.04Z" id="a2UpP933X1"></path><path d="M339.25 313.37L339.76 313.45L340.27 313.56L340.77 313.7L341.28 313.88L341.77 314.09L342.26 314.32L342.75 314.59L343.22 314.9L343.69 315.23L384.64 346.68L385.01 346.99L385.37 347.3L385.7 347.63L386.02 347.98L386.31 348.33L386.59 348.7L386.84 349.07L387.07 349.46L387.28 349.85L387.48 350.25L387.65 350.66L387.8 351.07L387.93 351.49L388.04 351.92L388.13 352.35L388.21 352.78L388.26 353.21L388.29 353.65L388.3 354.08L388.29 354.52L388.26 354.95L388.22 355.38L388.15 355.82L388.06 356.24L387.95 356.67L387.82 357.09L387.68 357.5L387.51 357.91L387.32 358.31L387.12 358.7L386.89 359.08L386.65 359.46L386.38 359.82L386.1 360.17L385.79 360.51L385.47 360.84L385.13 361.16L384.76 361.46L384.38 361.75L383.98 362.02L382.96 362.66L381.93 363.3L380.9 363.92L379.87 364.54L378.83 365.14L377.78 365.74L376.73 366.32L375.67 366.89L374.61 367.45L373.55 368L372.48 368.54L371.41 369.07L370.33 369.59L369.24 370.09L368.16 370.59L367.06 371.07L365.97 371.55L364.87 372.01L363.76 372.46L362.65 372.9L361.54 373.33L360.42 373.75L359.3 374.16L358.17 374.56L357.04 374.94L355.91 375.32L354.77 375.68L353.63 376.03L352.48 376.37L351.33 376.7L350.18 377.02L349.02 377.33L347.86 377.63L346.7 377.91L345.53 378.19L344.36 378.45L343.18 378.7L342 378.94L340.82 379.17L339.63 379.39L339.43 379.43L339.22 379.46L339.02 379.48L338.81 379.5L338.61 379.52L338.4 379.53L338.19 379.54L337.99 379.54L337.79 379.54L337.58 379.53L337.38 379.52L337.17 379.5L336.97 379.48L336.77 379.46L336.57 379.43L336.37 379.4L336.17 379.36L335.97 379.32L335.77 379.27L335.57 379.22L335.38 379.17L335.18 379.11L334.99 379.05L334.8 378.98L334.61 378.91L334.42 378.84L334.23 378.76L334.04 378.67L333.86 378.58L333.68 378.49L333.49 378.4L333.32 378.3L333.14 378.19L332.96 378.08L332.79 377.97L332.62 377.86L332.45 377.74L332.29 377.61L332.12 377.49L331.96 377.35L331.8 377.22L331.65 377.08L331.5 376.94L331.35 376.79L331.21 376.65L331.07 376.5L330.93 376.34L330.79 376.19L330.66 376.03L330.54 375.87L330.42 375.7L330.3 375.54L330.18 375.37L330.07 375.2L329.96 375.03L329.86 374.85L329.76 374.67L329.66 374.49L329.57 374.31L329.48 374.13L329.4 373.94L329.32 373.76L329.24 373.57L329.17 373.38L329.1 373.19L329.04 372.99L328.98 372.8L328.93 372.6L328.88 372.4L328.83 372.21L328.79 372.01L328.75 371.8L328.71 371.6L328.69 371.4L328.66 371.19L328.64 370.99L328.62 370.78L328.61 370.58L328.61 370.37L328.6 370.16L328.6 322.67L328.62 322.09L328.67 321.53L328.75 320.98L328.86 320.45L329 319.93L329.17 319.42L329.36 318.93L329.58 318.46L329.83 318.01L330.1 317.57L330.39 317.15L330.7 316.75L331.03 316.36L331.38 316L331.75 315.66L332.14 315.34L332.54 315.04L332.96 314.76L333.39 314.5L333.84 314.27L334.29 314.06L334.76 313.87L335.24 313.71L335.72 313.57L336.21 313.46L336.71 313.38L337.21 313.32L337.72 313.29L338.23 313.29L338.74 313.31L339.25 313.37ZM348.84 357.88L350.32 357.41L351.8 356.92L353.26 356.4L354.72 355.86L356.16 355.3L357.6 354.72L359.03 354.11L360.46 353.49L361.87 352.84L347.36 341.69L347.36 358.33L348.84 357.88Z" id="cvhL25Np7"></path></defs><g><g><g><use xlink:href="#a5WRmxWFlt" opacity="1" fill="#000000" fill-opacity="1"></use><g><use xlink:href="#a5WRmxWFlt" opacity="1" fill-opacity="0" stroke="#000000" stroke-width="1" stroke-opacity="0"></use></g></g><g><use xlink:href="#e3e2gxhcYO" opacity="1" fill="#000000" fill-opacity="1"></use><g><use xlink:href="#e3e2gxhcYO" opacity="1" fill-opacity="0" stroke="#000000" stroke-width="1" stroke-opacity="0"></use></g></g><g><use xlink:href="#a4geEwNtB5" opacity="1" fill="#000000" fill-opacity="1"></use><g><use xlink:href="#a4geEwNtB5" opacity="1" fill-opacity="0" stroke="#000000" stroke-width="1" stroke-opacity="0"></use></g></g><g><use xlink:href="#c2tQO82mUu" opacity="1" fill="#000000" fill-opacity="1"></use><g><use xlink:href="#c2tQO82mUu" opacity="1" fill-opacity="0" stroke="#000000" stroke-width="1" stroke-opacity="0"></use></g></g><g><use xlink:href="#e3P1erDYFz" opacity="1" fill="#000000" fill-opacity="1"></use><g><use xlink:href="#e3P1erDYFz" opacity="1" fill-opacity="0" stroke="#000000" stroke-width="1" stroke-opacity="0"></use></g></g><g><use xlink:href="#a2UpP933X1" opacity="1" fill="#000000" fill-opacity="1"></use><g><use xlink:href="#a2UpP933X1" opacity="1" fill-opacity="0" stroke="#000000" stroke-width="1" stroke-opacity="0"></use></g></g><g><use xlink:href="#cvhL25Np7" opacity="1" fill="#000000" fill-opacity="1"></use><g><use xlink:href="#cvhL25Np7" opacity="1" fill-opacity="0" stroke="#000000" stroke-width="1" stroke-opacity="0"></use></g></g></g></g></svg>