<?xml version="1.0" encoding="UTF-8"?>
<svg xmlns="http://www.w3.org/2000/svg" xmlns:xlink="http://www.w3.org/1999/xlink" width="43pt" height="43pt" viewBox="0 0 43 43" version="1.1">
<g id="surface1">
<path style=" stroke:none;fill-rule:nonzero;fill:rgb(0%,0%,0%);fill-opacity:1;" d="M 37.167969 25.605469 C 34.835938 25.605469 32.066406 25.058594 31.277344 23.523438 C 30.804688 22.597656 31.285156 21.597656 31.773438 20.917969 C 33.546875 18.457031 34.480469 15.714844 34.480469 12.980469 C 34.480469 5.824219 28.660156 0 21.5 0 C 14.339844 0 8.519531 5.824219 8.519531 12.980469 C 8.519531 15.714844 9.453125 18.457031 11.226562 20.917969 C 11.714844 21.597656 12.195312 22.597656 11.722656 23.523438 C 10.933594 25.058594 8.164062 25.605469 5.832031 25.605469 C 3.34375 25.605469 1.316406 27.632812 1.316406 30.121094 C 1.316406 32.609375 3.34375 34.636719 5.832031 34.636719 C 7.125 34.636719 8.925781 34.320312 10.464844 33.917969 C 10.050781 34.234375 9.613281 34.5625 9.203125 34.859375 C 7.433594 36.132812 6.871094 38.175781 7.730469 40.199219 C 8.242188 41.390625 9.230469 42.320312 10.445312 42.75 C 11.566406 43.148438 12.742188 43.070312 13.753906 42.53125 C 16.78125 40.929688 18.746094 38.234375 20.179688 36.265625 C 20.601562 35.6875 21.144531 34.9375 21.5 34.574219 C 21.855469 34.9375 22.398438 35.6875 22.820312 36.265625 C 24.253906 38.234375 26.21875 40.929688 29.246094 42.53125 C 29.832031 42.84375 30.472656 43 31.128906 43 C 31.601562 43 32.082031 42.917969 32.554688 42.75 C 33.769531 42.320312 34.757812 41.390625 35.269531 40.199219 C 36.128906 38.175781 35.566406 36.132812 33.796875 34.859375 C 33.386719 34.5625 32.949219 34.234375 32.535156 33.917969 C 34.074219 34.320312 35.875 34.636719 37.167969 34.636719 C 39.65625 34.636719 41.683594 32.609375 41.683594 30.121094 C 41.683594 27.632812 39.65625 25.605469 37.167969 25.605469 Z M 37.167969 32.003906 C 35.570312 32.003906 32.660156 31.332031 31.398438 30.785156 C 30.265625 30.292969 28.980469 30.714844 28.40625 31.769531 C 27.835938 32.8125 28.175781 34.03125 29.226562 34.734375 C 29.535156 34.9375 30.046875 35.332031 30.589844 35.746094 C 31.109375 36.144531 31.703125 36.59375 32.261719 36.996094 C 33.214844 37.683594 33.105469 38.554688 32.847656 39.164062 C 32.628906 39.671875 32.191406 40.085938 31.675781 40.269531 C 31.382812 40.375 30.933594 40.445312 30.476562 40.207031 C 27.988281 38.886719 26.230469 36.476562 24.949219 34.714844 C 23.710938 33.019531 22.820312 31.792969 21.5 31.792969 C 20.179688 31.792969 19.289062 33.019531 18.050781 34.714844 C 16.769531 36.476562 15.011719 38.886719 12.523438 40.207031 C 12.066406 40.445312 11.617188 40.375 11.324219 40.269531 C 10.808594 40.085938 10.371094 39.671875 10.152344 39.164062 C 9.894531 38.554688 9.785156 37.683594 10.738281 36.996094 C 11.296875 36.59375 11.890625 36.144531 12.410156 35.746094 C 12.953125 35.332031 13.464844 34.9375 13.773438 34.734375 C 14.824219 34.03125 15.164062 32.8125 14.59375 31.769531 C 14.019531 30.714844 12.734375 30.292969 11.601562 30.785156 C 10.339844 31.332031 7.429688 32.003906 5.832031 32.003906 C 4.792969 32.003906 3.949219 31.160156 3.949219 30.121094 C 3.949219 29.082031 4.792969 28.238281 5.832031 28.238281 C 9.917969 28.238281 12.921875 26.957031 14.066406 24.722656 C 14.894531 23.101562 14.640625 21.152344 13.363281 19.378906 C 11.894531 17.339844 11.148438 15.1875 11.148438 12.980469 C 11.148438 7.277344 15.792969 2.632812 21.5 2.632812 C 27.207031 2.632812 31.851562 7.277344 31.851562 12.980469 C 31.851562 15.1875 31.105469 17.339844 29.636719 19.378906 C 28.359375 21.152344 28.105469 23.101562 28.933594 24.722656 C 30.078125 26.957031 33.082031 28.238281 37.167969 28.238281 C 38.207031 28.238281 39.050781 29.082031 39.050781 30.121094 C 39.050781 31.160156 38.207031 32.003906 37.167969 32.003906 Z M 37.167969 32.003906 "/>
<path style=" stroke:none;fill-rule:nonzero;fill:rgb(0%,0%,0%);fill-opacity:1;" d="M 17.121094 12.730469 C 16.167969 12.730469 15.390625 13.511719 15.390625 14.480469 C 15.390625 15.445312 16.167969 16.230469 17.121094 16.230469 C 18.074219 16.230469 18.847656 15.445312 18.847656 14.480469 C 18.847656 13.511719 18.074219 12.730469 17.121094 12.730469 Z M 17.121094 12.730469 "/>
<path style=" stroke:none;fill-rule:nonzero;fill:rgb(0%,0%,0%);fill-opacity:1;" d="M 25.867188 12.714844 C 24.90625 12.714844 24.125 13.503906 24.125 14.480469 C 24.125 15.453125 24.90625 16.242188 25.867188 16.242188 C 26.828125 16.242188 27.609375 15.453125 27.609375 14.480469 C 27.609375 13.503906 26.828125 12.714844 25.867188 12.714844 Z M 25.867188 12.714844 "/>
</g>
</svg>
