<?xml version="1.0" encoding="UTF-8"?>
<svg xmlns="http://www.w3.org/2000/svg" xmlns:xlink="http://www.w3.org/1999/xlink" width="43pt" height="43pt" viewBox="0 0 43 43" version="1.1">
<g id="surface1">
<path style=" stroke:none;fill-rule:nonzero;fill:rgb(0%,0%,0%);fill-opacity:1;" d="M 41.433594 23.023438 C 39.621094 21.828125 38.386719 19.804688 37.078125 17.660156 C 36.925781 17.40625 36.773438 17.15625 36.617188 16.902344 C 39.101562 9.878906 35.730469 4.230469 35.582031 3.988281 L 34.683594 2.519531 L 28.851562 9.296875 C 26.75 8.378906 24.320312 7.925781 21.5 7.925781 C 18.679688 7.925781 16.25 8.378906 14.148438 9.296875 L 8.316406 2.519531 L 7.417969 3.988281 C 7.269531 4.230469 3.894531 9.878906 6.382812 16.902344 C 6.226562 17.15625 6.074219 17.40625 5.921875 17.660156 C 4.613281 19.804688 3.378906 21.828125 1.566406 23.023438 L 0 24.054688 L 1.550781 25.109375 C 1.65625 25.183594 12.226562 32.386719 14.640625 34.796875 C 15.402344 35.5625 16.007812 36.351562 16.597656 37.117188 C 17.925781 38.847656 19.179688 40.480469 21.5 40.480469 C 23.820312 40.480469 25.074219 38.847656 26.402344 37.117188 C 26.992188 36.351562 27.597656 35.5625 28.359375 34.796875 C 30.773438 32.386719 41.34375 25.179688 41.449219 25.109375 L 43 24.054688 Z M 34.183594 6.949219 C 34.753906 8.527344 35.355469 11.117188 34.773438 14.140625 C 33.960938 13.0625 33.035156 12.035156 31.890625 11.125 C 31.632812 10.917969 31.367188 10.722656 31.097656 10.535156 Z M 8.320312 8.664062 C 8.464844 8.011719 8.640625 7.433594 8.816406 6.949219 L 11.902344 10.535156 C 11.632812 10.722656 11.367188 10.917969 11.109375 11.125 C 9.964844 12.035156 9.035156 13.066406 8.222656 14.144531 C 7.875 12.351562 7.90625 10.515625 8.320312 8.664062 Z M 17.625 34.367188 C 17.261719 33.925781 16.863281 33.472656 16.414062 33.023438 C 14.5 31.109375 8.257812 26.699219 4.988281 24.429688 C 6.875 23.859375 9.8125 23.191406 13.1875 23.191406 C 14.183594 23.191406 14.972656 23.507812 15.601562 24.160156 C 17.566406 26.199219 17.707031 30.933594 17.625 34.367188 Z M 21.5 37.972656 C 20.957031 37.972656 20.511719 37.746094 20.039062 37.304688 C 20.046875 36.988281 20.058594 36.617188 20.074219 36.210938 C 20.078125 36.117188 20.082031 36.019531 20.085938 35.921875 L 22.914062 35.921875 C 22.917969 36.019531 22.921875 36.117188 22.925781 36.210938 C 22.941406 36.617188 22.953125 36.988281 22.960938 37.304688 C 22.488281 37.746094 22.042969 37.972656 21.5 37.972656 Z M 22.847656 33.410156 L 20.152344 33.410156 C 20.1875 29.605469 19.835938 24.9375 17.410156 22.417969 C 16.300781 21.265625 14.878906 20.679688 13.1875 20.679688 C 10.648438 20.679688 8.351562 21.019531 6.492188 21.4375 C 7.046875 20.632812 7.558594 19.792969 8.0625 18.964844 C 9.347656 16.859375 10.671875 14.683594 12.671875 13.085938 C 14.910156 11.304688 17.796875 10.4375 21.5 10.4375 C 25.203125 10.4375 28.089844 11.304688 30.328125 13.085938 C 32.328125 14.683594 33.652344 16.859375 34.9375 18.964844 C 35.441406 19.792969 35.953125 20.632812 36.507812 21.4375 C 34.648438 21.019531 32.351562 20.679688 29.8125 20.679688 C 28.121094 20.679688 26.699219 21.265625 25.589844 22.417969 C 23.164062 24.9375 22.8125 29.605469 22.847656 33.410156 Z M 26.585938 33.023438 C 26.136719 33.472656 25.738281 33.925781 25.375 34.367188 C 25.292969 30.933594 25.433594 26.199219 27.398438 24.160156 C 28.023438 23.507812 28.816406 23.191406 29.8125 23.191406 C 33.171875 23.191406 36.117188 23.859375 38.007812 24.429688 C 34.738281 26.699219 28.5 31.109375 26.585938 33.023438 Z M 26.585938 33.023438 "/>
<path style=" stroke:none;fill-rule:nonzero;fill:rgb(0%,0%,0%);fill-opacity:1;" d="M 30.40625 24.546875 C 29.609375 24.546875 28.96875 25.199219 28.96875 26 C 28.96875 26.804688 29.609375 27.457031 30.40625 27.457031 C 31.195312 27.457031 31.839844 26.804688 31.839844 26 C 31.839844 25.199219 31.195312 24.546875 30.40625 24.546875 Z M 30.40625 24.546875 "/>
<path style=" stroke:none;fill-rule:nonzero;fill:rgb(0%,0%,0%);fill-opacity:1;" d="M 12.597656 24.546875 C 11.804688 24.546875 11.160156 25.199219 11.160156 26 C 11.160156 26.804688 11.804688 27.457031 12.597656 27.457031 C 13.390625 27.457031 14.03125 26.804688 14.03125 26 C 14.03125 25.199219 13.390625 24.546875 12.597656 24.546875 Z M 12.597656 24.546875 "/>
</g>
</svg>
