<?xml version="1.0" encoding="UTF-8"?>
<svg xmlns="http://www.w3.org/2000/svg" xmlns:xlink="http://www.w3.org/1999/xlink" width="43pt" height="43pt" viewBox="0 0 43 43" version="1.1">
<g id="surface1">
<path style=" stroke:none;fill-rule:nonzero;fill:rgb(0%,0%,0%);fill-opacity:1;" d="M 18.734375 30.414062 C 17.984375 30.414062 17.375 31.03125 17.375 31.792969 C 17.375 32.550781 17.984375 33.167969 18.734375 33.167969 C 19.484375 33.167969 20.09375 32.554688 20.09375 31.792969 C 20.09375 31.03125 19.484375 30.414062 18.734375 30.414062 Z M 18.734375 30.414062 "/>
<path style=" stroke:none;fill-rule:nonzero;fill:rgb(0%,0%,0%);fill-opacity:1;" d="M 24.257812 30.40625 C 23.5 30.40625 22.886719 31.027344 22.886719 31.792969 C 22.886719 32.558594 23.5 33.179688 24.257812 33.179688 C 25.011719 33.179688 25.625 32.558594 25.625 31.792969 C 25.625 31.027344 25.011719 30.40625 24.257812 30.40625 Z M 24.257812 30.40625 "/>
<path style=" stroke:none;fill-rule:nonzero;fill:rgb(0%,0%,0%);fill-opacity:1;" d="M 17.984375 21.316406 C 17.984375 20.347656 17.207031 19.566406 16.253906 19.566406 C 15.304688 19.566406 14.527344 20.347656 14.527344 21.316406 C 14.527344 22.28125 15.304688 23.066406 16.253906 23.066406 C 17.207031 23.066406 17.984375 22.28125 17.984375 21.316406 Z M 17.984375 21.316406 "/>
<path style=" stroke:none;fill-rule:nonzero;fill:rgb(0%,0%,0%);fill-opacity:1;" d="M 26.730469 19.550781 C 25.769531 19.550781 24.992188 20.339844 24.992188 21.316406 C 24.992188 22.289062 25.769531 23.078125 26.730469 23.078125 C 27.691406 23.078125 28.472656 22.289062 28.472656 21.316406 C 28.472656 20.339844 27.691406 19.550781 26.730469 19.550781 Z M 26.730469 19.550781 "/>
<path style=" stroke:none;fill-rule:nonzero;fill:rgb(0%,0%,0%);fill-opacity:1;" d="M 37.707031 14.792969 C 35.382812 8.078125 28.996094 3.242188 21.5 3.242188 C 14.003906 3.242188 7.617188 8.078125 5.292969 14.792969 C 2.113281 15.40625 -0.203125 18.3125 0.015625 21.628906 C 0.125 23.371094 0.910156 24.964844 2.222656 26.117188 C 3.292969 27.058594 4.613281 27.609375 6.007812 27.71875 C 7.683594 31.257812 10.558594 34.191406 14.230469 35.914062 C 15.816406 38.230469 18.484375 39.757812 21.5 39.757812 C 24.515625 39.757812 27.183594 38.230469 28.769531 35.914062 C 32.441406 34.191406 35.3125 31.257812 36.992188 27.71875 C 38.386719 27.609375 39.707031 27.058594 40.777344 26.117188 C 42.089844 24.964844 42.875 23.371094 42.984375 21.628906 C 43.203125 18.3125 40.886719 15.40625 37.707031 14.792969 Z M 3.960938 24.136719 C 3.175781 23.449219 2.707031 22.5 2.640625 21.460938 C 2.542969 19.949219 3.324219 18.578125 4.546875 17.851562 C 4.421875 18.679688 4.359375 19.523438 4.359375 20.382812 C 4.359375 21.882812 4.554688 23.355469 4.925781 24.765625 C 4.578125 24.605469 4.253906 24.398438 3.960938 24.136719 Z M 28.007812 26.292969 L 26.179688 26.539062 L 27.007812 28.1875 C 27.445312 29.050781 27.664062 29.984375 27.664062 30.960938 C 27.664062 34.359375 24.898438 37.125 21.5 37.125 C 18.101562 37.125 15.335938 34.359375 15.335938 30.960938 C 15.335938 29.984375 15.554688 29.050781 15.992188 28.1875 L 16.820312 26.539062 L 14.992188 26.292969 C 12.449219 25.945312 10.53125 23.742188 10.53125 21.167969 C 10.53125 18.316406 12.851562 15.996094 15.703125 15.996094 C 17.667969 15.996094 19.441406 17.089844 20.324219 18.847656 L 21.5 21.1875 L 22.675781 18.847656 C 23.5625 17.089844 25.332031 15.996094 27.296875 15.996094 C 30.148438 15.996094 32.46875 18.316406 32.46875 21.167969 C 32.46875 23.742188 30.550781 25.945312 28.007812 26.292969 Z M 30.242188 31.964844 C 30.277344 31.636719 30.296875 31.300781 30.296875 30.960938 C 30.296875 30.117188 30.183594 29.296875 29.953125 28.507812 C 32.976562 27.410156 35.101562 24.492188 35.101562 21.167969 C 35.101562 16.867188 31.601562 13.363281 27.296875 13.363281 C 25.042969 13.363281 22.957031 14.316406 21.5 15.941406 C 20.042969 14.316406 17.957031 13.363281 15.703125 13.363281 C 11.398438 13.363281 7.898438 16.867188 7.898438 21.167969 C 7.898438 24.492188 10.023438 27.410156 13.046875 28.507812 C 12.816406 29.296875 12.703125 30.117188 12.703125 30.960938 C 12.703125 31.300781 12.722656 31.636719 12.757812 31.964844 C 9.179688 29.257812 6.992188 24.996094 6.992188 20.382812 C 6.992188 12.382812 13.5 5.875 21.5 5.875 C 29.5 5.875 36.007812 12.382812 36.007812 20.382812 C 36.007812 24.996094 33.820312 29.257812 30.242188 31.964844 Z M 40.359375 21.460938 C 40.292969 22.5 39.824219 23.449219 39.039062 24.136719 C 38.746094 24.398438 38.421875 24.605469 38.074219 24.765625 C 38.445312 23.355469 38.640625 21.886719 38.640625 20.382812 C 38.640625 19.523438 38.578125 18.679688 38.453125 17.851562 C 39.675781 18.578125 40.457031 19.949219 40.359375 21.460938 Z M 40.359375 21.460938 "/>
</g>
</svg>
