<?xml version="1.0" encoding="UTF-8"?>
<svg xmlns="http://www.w3.org/2000/svg" xmlns:xlink="http://www.w3.org/1999/xlink" width="43pt" height="43pt" viewBox="0 0 43 43" version="1.1">
<g id="surface1">
<path style=" stroke:none;fill-rule:nonzero;fill:rgb(0%,0%,0%);fill-opacity:1;" d="M 39.234375 18.734375 C 44.011719 13.75 42.902344 4.671875 42.855469 4.289062 L 42.726562 3.308594 L 41.75 3.15625 C 41.421875 3.105469 34.035156 2.023438 28.726562 5.617188 C 26.414062 4.472656 23.984375 3.894531 21.5 3.894531 C 19.015625 3.894531 16.585938 4.472656 14.273438 5.617188 C 8.964844 2.023438 1.574219 3.105469 1.25 3.15625 L 0.273438 3.308594 L 0.144531 4.289062 C 0.0976562 4.671875 -1.011719 13.75 3.765625 18.734375 L 3.78125 18.71875 C 3.324219 20.402344 3.085938 22.125 3.085938 23.835938 C 3.085938 28.703125 4.984375 32.839844 8.574219 35.800781 C 11.882812 38.53125 16.472656 40.035156 21.5 40.035156 C 26.527344 40.035156 31.117188 38.53125 34.425781 35.800781 C 38.015625 32.84375 39.914062 28.703125 39.914062 23.835938 C 39.914062 22.125 39.675781 20.402344 39.21875 18.71875 Z M 2.671875 5.65625 C 4.507812 5.53125 8.464844 5.503906 11.714844 7.160156 C 10.535156 8.007812 9.433594 9.003906 8.425781 10.140625 C 6.914062 11.839844 5.691406 13.773438 4.796875 15.828125 C 2.589844 12.546875 2.5625 7.746094 2.671875 5.65625 Z M 32.753906 33.769531 C 29.914062 36.113281 25.917969 37.402344 21.5 37.402344 C 17.082031 37.402344 13.085938 36.113281 10.246094 33.769531 C 7.285156 31.328125 5.71875 27.890625 5.71875 23.835938 C 5.71875 19.589844 7.421875 15.234375 10.394531 11.886719 C 13.460938 8.429688 17.40625 6.527344 21.5 6.527344 C 25.59375 6.527344 29.539062 8.429688 32.605469 11.886719 C 35.578125 15.234375 37.28125 19.589844 37.28125 23.835938 C 37.28125 27.890625 35.714844 31.328125 32.753906 33.769531 Z M 34.574219 10.140625 C 33.566406 9.003906 32.464844 8.007812 31.285156 7.160156 C 34.535156 5.5 38.496094 5.53125 40.328125 5.65625 C 40.375 6.507812 40.398438 7.816406 40.253906 9.292969 C 39.953125 12.445312 39.082031 14.503906 38.199219 15.824219 C 37.308594 13.773438 36.085938 11.839844 34.574219 10.140625 Z M 34.574219 10.140625 "/>
<path style=" stroke:none;fill-rule:nonzero;fill:rgb(0%,0%,0%);fill-opacity:1;" d="M 17.121094 17.6875 C 18.074219 17.6875 18.847656 16.902344 18.847656 15.9375 C 18.847656 14.972656 18.074219 14.1875 17.121094 14.1875 C 16.167969 14.1875 15.394531 14.972656 15.394531 15.9375 C 15.394531 16.902344 16.167969 17.6875 17.121094 17.6875 Z M 17.121094 17.6875 "/>
<path style=" stroke:none;fill-rule:nonzero;fill:rgb(0%,0%,0%);fill-opacity:1;" d="M 25.867188 17.699219 C 26.828125 17.699219 27.609375 16.910156 27.609375 15.9375 C 27.609375 14.964844 26.828125 14.175781 25.867188 14.175781 C 24.90625 14.175781 24.125 14.964844 24.125 15.9375 C 24.125 16.910156 24.90625 17.699219 25.867188 17.699219 Z M 25.867188 17.699219 "/>
<path style=" stroke:none;fill-rule:nonzero;fill:rgb(0%,0%,0%);fill-opacity:1;" d="M 19.394531 27.171875 C 18.820312 27.171875 18.355469 27.640625 18.355469 28.222656 C 18.355469 28.800781 18.820312 29.273438 19.394531 29.273438 C 19.964844 29.273438 20.429688 28.800781 20.429688 28.222656 C 20.429688 27.640625 19.964844 27.171875 19.394531 27.171875 Z M 19.394531 27.171875 "/>
<path style=" stroke:none;fill-rule:nonzero;fill:rgb(0%,0%,0%);fill-opacity:1;" d="M 23.597656 27.164062 C 23.023438 27.164062 22.554688 27.636719 22.554688 28.222656 C 22.554688 28.804688 23.023438 29.28125 23.597656 29.28125 C 24.175781 29.28125 24.644531 28.804688 24.644531 28.222656 C 24.644531 27.636719 24.175781 27.164062 23.597656 27.164062 Z M 23.597656 27.164062 "/>
<path style=" stroke:none;fill-rule:nonzero;fill:rgb(0%,0%,0%);fill-opacity:1;" d="M 27.148438 23.453125 C 25.625 22.285156 23.621094 21.640625 21.5 21.640625 C 19.378906 21.640625 17.375 22.285156 15.851562 23.453125 C 14.222656 24.703125 13.328125 26.398438 13.328125 28.222656 C 13.328125 30.046875 14.222656 31.738281 15.851562 32.988281 C 17.375 34.15625 19.378906 34.800781 21.5 34.800781 C 23.621094 34.800781 25.625 34.15625 27.148438 32.988281 C 28.777344 31.738281 29.671875 30.046875 29.671875 28.222656 C 29.671875 26.398438 28.777344 24.703125 27.148438 23.453125 Z M 25.546875 30.898438 C 24.480469 31.71875 23.042969 32.167969 21.5 32.167969 C 19.957031 32.167969 18.519531 31.71875 17.453125 30.898438 C 16.492188 30.160156 15.960938 29.210938 15.960938 28.222656 C 15.960938 27.234375 16.492188 26.28125 17.453125 25.542969 C 18.519531 24.722656 19.957031 24.273438 21.5 24.273438 C 23.042969 24.273438 24.480469 24.722656 25.546875 25.542969 C 26.511719 26.28125 27.039062 27.234375 27.039062 28.222656 C 27.039062 29.210938 26.507812 30.160156 25.546875 30.898438 Z M 25.546875 30.898438 "/>
</g>
</svg>
